{"glyphs":{"0":{"ha":833,"x_min":0,"x_max":0,"o":"m 139 654 l 139 318 l 457 0 l 515 0 l 833 318 l 833 654 l 515 972 l 457 972 z m 278 596 l 486 804 l 694 596 l 694 376 l 486 168 l 278 376 z "},"1":{"ha":833,"x_min":0,"x_max":0,"o":"m 278 694 l 417 694 l 417 139 l 278 139 l 278 0 l 694 0 l 694 139 l 556 139 l 556 972 l 417 972 l 417 833 l 278 833 z "},"2":{"ha":833,"x_min":0,"x_max":0,"o":"m 139 694 l 238 694 l 376 833 l 596 833 l 694 735 l 694 654 l 596 556 l 457 556 l 139 238 l 139 0 l 833 0 l 833 139 l 278 139 l 278 179 l 515 417 l 654 417 l 833 596 l 833 793 l 654 972 l 318 972 l 139 793 z "},"3":{"ha":833,"x_min":0,"x_max":0,"o":"m 139 833 l 694 833 l 694 793 l 556 654 l 556 556 l 417 556 l 417 417 l 596 417 l 694 318 l 694 238 l 596 139 l 376 139 l 238 278 l 139 278 l 139 179 l 318 0 l 654 0 l 833 179 l 833 376 l 694 515 l 694 596 l 833 735 l 833 972 l 139 972 z "},"4":{"ha":833,"x_min":0,"x_max":0,"o":"m 139 515 l 139 278 l 556 278 l 556 0 l 694 0 l 694 278 l 833 278 l 833 417 l 694 417 l 694 972 l 556 972 l 556 833 l 457 833 z m 278 457 l 515 694 l 556 694 l 556 417 l 278 417 z "},"5":{"ha":833,"x_min":0,"x_max":0,"o":"m 139 972 l 139 556 l 596 556 l 694 457 l 694 238 l 596 139 l 376 139 l 238 278 l 139 278 l 139 179 l 318 0 l 654 0 l 833 179 l 833 515 l 654 694 l 278 694 l 278 833 l 833 833 l 833 972 z "},"6":{"ha":833,"x_min":0,"x_max":0,"o":"m 139 654 l 139 179 l 318 0 l 654 0 l 833 179 l 833 376 l 654 556 l 278 556 l 278 596 l 515 833 l 694 833 l 694 972 l 457 972 z m 278 417 l 596 417 l 694 318 l 694 238 l 596 139 l 376 139 l 278 238 z "},"7":{"ha":833,"x_min":0,"x_max":0,"o":"m 139 833 l 694 833 l 694 793 l 278 376 l 278 0 l 417 0 l 417 318 l 833 735 l 833 972 l 139 972 z "},"8":{"ha":833,"x_min":0,"x_max":0,"o":"m 139 793 l 139 596 l 249 486 l 139 376 l 139 179 l 318 0 l 654 0 l 833 179 l 833 376 l 724 486 l 833 596 l 833 793 l 654 972 l 318 972 z m 376 833 l 596 833 l 694 735 l 694 654 l 596 556 l 376 556 l 278 654 l 278 735 z m 376 417 l 596 417 l 694 318 l 694 238 l 596 139 l 376 139 l 278 238 l 278 318 z "},"9":{"ha":833,"x_min":0,"x_max":0,"o":"m 139 793 l 139 596 l 318 417 l 694 417 l 694 376 l 457 139 l 278 139 l 278 0 l 515 0 l 833 318 l 833 793 l 654 972 l 318 972 z m 376 833 l 596 833 l 694 735 l 694 556 l 376 556 l 278 654 l 278 735 z "}," ":{"ha":833,"x_min":0,"x_max":0,"o":""},"!":{"ha":833,"x_min":0,"x_max":0,"o":"m 417 972 l 417 278 l 556 278 l 556 972 z m 417 0 l 556 0 l 556 139 l 417 139 z "},"\"":{"ha":833,"x_min":0,"x_max":0,"o":"m 278 972 l 278 556 l 417 556 l 417 972 z m 556 972 l 556 556 l 694 556 l 694 972 z "},"#":{"ha":833,"x_min":0,"x_max":0,"o":"m 139 556 l 278 556 l 278 417 l 139 417 l 139 278 l 278 278 l 278 0 l 417 0 l 417 278 l 556 278 l 556 0 l 694 0 l 694 278 l 833 278 l 833 417 l 694 417 l 694 556 l 833 556 l 833 694 l 694 694 l 694 972 l 556 972 l 556 694 l 417 694 l 417 972 l 278 972 l 278 694 l 139 694 z m 417 556 l 556 556 l 556 417 l 417 417 z "},"$":{"ha":833,"x_min":0,"x_max":0,"o":"m 139 793 l 139 596 l 318 417 l 417 417 l 417 139 l 376 139 l 238 278 l 139 278 l 139 179 l 318 0 l 654 0 l 833 179 l 833 376 l 654 556 l 556 556 l 556 833 l 596 833 l 735 694 l 833 694 l 833 793 l 654 972 l 318 972 z m 376 833 l 417 833 l 417 556 l 376 556 l 278 654 l 278 735 z m 556 417 l 596 417 l 694 318 l 694 238 l 596 139 l 556 139 z "},"%":{"ha":833,"x_min":0,"x_max":0,"o":"m 139 972 l 139 694 l 417 694 l 417 972 z m 139 139 l 238 139 l 833 735 l 833 833 l 735 833 l 139 238 z m 556 278 l 556 0 l 833 0 l 833 278 z "},"&":{"ha":833,"x_min":0,"x_max":0,"o":"m 139 793 l 139 596 l 249 486 l 139 376 l 139 179 l 318 0 l 515 0 l 625 110 l 735 0 l 833 0 l 833 99 l 724 208 l 833 318 l 833 417 l 735 417 l 625 307 l 446 486 l 556 596 l 556 793 l 376 972 l 318 972 z m 278 735 l 347 804 l 417 735 l 417 654 l 347 585 l 278 654 z m 278 318 l 347 388 l 526 208 l 457 139 l 376 139 l 278 238 z "},"'":{"ha":833,"x_min":0,"x_max":0,"o":"m 417 972 l 417 556 l 556 556 l 556 972 z "},"(":{"ha":833,"x_min":0,"x_max":0,"o":"m 278 654 l 278 318 l 596 0 l 694 0 l 694 99 l 417 376 l 417 596 l 694 874 l 694 972 l 596 972 z "},")":{"ha":833,"x_min":0,"x_max":0,"o":"m 278 874 l 556 596 l 556 376 l 278 99 l 278 0 l 376 0 l 694 318 l 694 654 l 376 972 l 278 972 z "},"*":{"ha":833,"x_min":0,"x_max":0,"o":"m 139 735 l 318 556 l 417 556 l 417 417 l 318 417 l 139 238 l 139 139 l 238 139 l 376 278 l 417 278 l 417 0 l 556 0 l 556 278 l 596 278 l 735 139 l 833 139 l 833 238 l 654 417 l 556 417 l 556 556 l 654 556 l 833 735 l 833 833 l 735 833 l 596 694 l 556 694 l 556 972 l 417 972 l 417 694 l 376 694 l 238 833 l 139 833 z "},"+":{"ha":833,"x_min":0,"x_max":0,"o":"m 139 417 l 417 417 l 417 139 l 556 139 l 556 417 l 833 417 l 833 556 l 556 556 l 556 833 l 417 833 l 417 556 l 139 556 z "},",":{"ha":833,"x_min":0,"x_max":0,"o":"m 417 99 l 278 -40 l 278 -139 l 376 -139 l 556 40 l 556 278 l 417 278 z "},"-":{"ha":833,"x_min":0,"x_max":0,"o":"m 278 417 l 694 417 l 694 556 l 278 556 z "},".":{"ha":833,"x_min":0,"x_max":0,"o":"m 417 0 l 556 0 l 556 139 l 417 139 z "},"/":{"ha":833,"x_min":0,"x_max":0,"o":"m 139 139 l 238 139 l 833 735 l 833 833 l 735 833 l 139 238 z "},":":{"ha":833,"x_min":0,"x_max":0,"o":"m 417 556 l 556 556 l 556 694 l 417 694 z m 417 0 l 556 0 l 556 139 l 417 139 z "},";":{"ha":833,"x_min":0,"x_max":0,"o":"m 417 99 l 278 -40 l 278 -139 l 376 -139 l 556 40 l 556 278 l 417 278 z m 417 556 l 556 556 l 556 694 l 417 694 z "},"<":{"ha":833,"x_min":0,"x_max":0,"o":"m 139 457 l 596 0 l 694 0 l 694 99 l 307 486 l 694 874 l 694 972 l 596 972 l 139 515 z "},"=":{"ha":833,"x_min":0,"x_max":0,"o":"m 139 556 l 833 556 l 833 694 l 139 694 z m 139 278 l 833 278 l 833 417 l 139 417 z "},">":{"ha":833,"x_min":0,"x_max":0,"o":"m 278 874 l 665 486 l 278 99 l 278 0 l 376 0 l 833 457 l 833 515 l 376 972 l 278 972 z "},"?":{"ha":833,"x_min":0,"x_max":0,"o":"m 139 694 l 238 694 l 376 833 l 596 833 l 665 764 l 417 515 l 417 278 l 556 278 l 556 457 l 833 735 l 833 793 l 654 972 l 318 972 l 139 793 z m 417 0 l 556 0 l 556 139 l 417 139 z "},"@":{"ha":833,"x_min":0,"x_max":0,"o":"m 139 793 l 139 179 l 318 0 l 694 0 l 694 139 l 376 139 l 278 238 l 278 735 l 376 833 l 596 833 l 694 735 l 694 694 l 417 694 l 417 278 l 833 278 l 833 793 l 654 972 l 318 972 z m 556 556 l 694 556 l 694 417 l 556 417 z "},"A":{"ha":833,"x_min":0,"x_max":0,"o":"m 139 654 l 139 0 l 278 0 l 278 278 l 694 278 l 694 0 l 833 0 l 833 654 l 515 972 l 457 972 z m 278 596 l 486 804 l 694 596 l 694 417 l 278 417 z "},"B":{"ha":833,"x_min":0,"x_max":0,"o":"m 139 972 l 139 0 l 654 0 l 833 179 l 833 376 l 724 486 l 833 596 l 833 793 l 654 972 z m 278 833 l 596 833 l 694 735 l 694 654 l 596 556 l 278 556 z m 278 417 l 596 417 l 694 318 l 694 238 l 596 139 l 278 139 z "},"C":{"ha":833,"x_min":0,"x_max":0,"o":"m 139 793 l 139 179 l 318 0 l 654 0 l 833 179 l 833 278 l 735 278 l 596 139 l 376 139 l 278 238 l 278 735 l 376 833 l 596 833 l 735 694 l 833 694 l 833 793 l 654 972 l 318 972 z "},"D":{"ha":833,"x_min":0,"x_max":0,"o":"m 139 972 l 139 0 l 654 0 l 833 179 l 833 793 l 654 972 z m 278 833 l 596 833 l 694 735 l 694 238 l 596 139 l 278 139 z "},"E":{"ha":833,"x_min":0,"x_max":0,"o":"m 139 972 l 139 0 l 833 0 l 833 139 l 278 139 l 278 417 l 694 417 l 694 556 l 278 556 l 278 833 l 833 833 l 833 972 z "},"F":{"ha":833,"x_min":0,"x_max":0,"o":"m 139 972 l 139 0 l 278 0 l 278 417 l 694 417 l 694 556 l 278 556 l 278 833 l 833 833 l 833 972 z "},"G":{"ha":833,"x_min":0,"x_max":0,"o":"m 139 793 l 139 179 l 318 0 l 833 0 l 833 417 l 556 417 l 556 278 l 694 278 l 694 139 l 376 139 l 278 238 l 278 735 l 376 833 l 596 833 l 735 694 l 833 694 l 833 793 l 654 972 l 318 972 z "},"H":{"ha":833,"x_min":0,"x_max":0,"o":"m 139 972 l 139 0 l 278 0 l 278 417 l 694 417 l 694 0 l 833 0 l 833 972 l 694 972 l 694 556 l 278 556 l 278 972 z "},"I":{"ha":833,"x_min":0,"x_max":0,"o":"m 278 833 l 417 833 l 417 139 l 278 139 l 278 0 l 694 0 l 694 139 l 556 139 l 556 833 l 694 833 l 694 972 l 278 972 z "},"J":{"ha":833,"x_min":0,"x_max":0,"o":"m 139 179 l 318 0 l 654 0 l 833 179 l 833 972 l 694 972 l 694 238 l 596 139 l 376 139 l 238 278 l 139 278 z "},"K":{"ha":833,"x_min":0,"x_max":0,"o":"m 139 972 l 139 0 l 278 0 l 278 417 l 318 417 l 735 0 l 833 0 l 833 99 l 446 486 l 833 874 l 833 972 l 735 972 l 318 556 l 278 556 l 278 972 z "},"L":{"ha":833,"x_min":0,"x_max":0,"o":"m 139 972 l 139 0 l 833 0 l 833 139 l 278 139 l 278 972 z "},"M":{"ha":833,"x_min":0,"x_max":0,"o":"m 139 972 l 139 0 l 278 0 l 278 694 l 318 694 l 417 596 l 417 417 l 556 417 l 556 596 l 654 694 l 694 694 l 694 0 l 833 0 l 833 972 l 694 972 l 694 833 l 596 833 l 486 724 l 376 833 l 278 833 l 278 972 z "},"N":{"ha":833,"x_min":0,"x_max":0,"o":"m 139 972 l 139 0 l 278 0 l 278 556 l 318 556 l 596 278 l 694 278 l 694 0 l 833 0 l 833 972 l 694 972 l 694 417 l 654 417 l 376 694 l 278 694 l 278 972 z "},"O":{"ha":833,"x_min":0,"x_max":0,"o":"m 139 793 l 139 179 l 318 0 l 654 0 l 833 179 l 833 793 l 654 972 l 318 972 z m 376 833 l 596 833 l 694 735 l 694 238 l 596 139 l 376 139 l 278 238 l 278 735 z "},"P":{"ha":833,"x_min":0,"x_max":0,"o":"m 139 972 l 139 0 l 278 0 l 278 417 l 654 417 l 833 596 l 833 793 l 654 972 z m 278 833 l 596 833 l 694 735 l 694 654 l 596 556 l 278 556 z "},"Q":{"ha":833,"x_min":0,"x_max":0,"o":"m 139 793 l 139 179 l 318 0 l 515 0 l 625 110 l 735 0 l 833 0 l 833 99 l 724 208 l 833 318 l 833 793 l 654 972 l 318 972 z m 376 833 l 596 833 l 694 735 l 694 376 l 625 307 l 515 417 l 417 417 l 417 318 l 526 208 l 457 139 l 376 139 l 278 238 l 278 735 z "},"R":{"ha":833,"x_min":0,"x_max":0,"o":"m 139 972 l 139 0 l 278 0 l 278 417 l 417 417 l 417 318 l 735 0 l 833 0 l 833 99 l 556 376 l 556 417 l 654 417 l 833 596 l 833 793 l 654 972 z m 278 833 l 596 833 l 694 735 l 694 654 l 596 556 l 278 556 z "},"S":{"ha":833,"x_min":0,"x_max":0,"o":"m 139 793 l 139 596 l 318 417 l 596 417 l 694 318 l 694 238 l 596 139 l 376 139 l 238 278 l 139 278 l 139 179 l 318 0 l 654 0 l 833 179 l 833 376 l 654 556 l 376 556 l 278 654 l 278 735 l 376 833 l 596 833 l 735 694 l 833 694 l 833 793 l 654 972 l 318 972 z "},"T":{"ha":833,"x_min":0,"x_max":0,"o":"m 139 833 l 417 833 l 417 0 l 556 0 l 556 833 l 833 833 l 833 972 l 139 972 z "},"U":{"ha":833,"x_min":0,"x_max":0,"o":"m 139 972 l 139 179 l 318 0 l 654 0 l 833 179 l 833 972 l 694 972 l 694 238 l 596 139 l 376 139 l 278 238 l 278 972 z "},"V":{"ha":833,"x_min":0,"x_max":0,"o":"m 139 972 l 139 596 l 278 457 l 278 318 l 417 179 l 417 0 l 556 0 l 556 179 l 694 318 l 694 457 l 833 596 l 833 972 l 694 972 l 694 654 l 556 515 l 556 376 l 486 307 l 417 376 l 417 515 l 278 654 l 278 972 z "},"W":{"ha":833,"x_min":0,"x_max":0,"o":"m 139 972 l 139 179 l 318 0 l 376 0 l 486 110 l 596 0 l 654 0 l 833 179 l 833 972 l 694 972 l 694 238 l 625 168 l 556 238 l 556 556 l 417 556 l 417 238 l 347 168 l 278 238 l 278 972 z "},"X":{"ha":833,"x_min":0,"x_max":0,"o":"m 139 972 l 139 735 l 388 486 l 139 238 l 139 0 l 278 0 l 278 179 l 486 388 l 694 179 l 694 0 l 833 0 l 833 238 l 585 486 l 833 735 l 833 972 l 694 972 l 694 793 l 486 585 l 278 793 l 278 972 z "},"Y":{"ha":833,"x_min":0,"x_max":0,"o":"m 139 972 l 139 735 l 417 457 l 417 0 l 556 0 l 556 457 l 833 735 l 833 972 l 694 972 l 694 793 l 486 585 l 278 793 l 278 972 z "},"Z":{"ha":833,"x_min":0,"x_max":0,"o":"m 139 833 l 694 833 l 694 793 l 139 238 l 139 0 l 833 0 l 833 139 l 278 139 l 278 179 l 833 735 l 833 972 l 139 972 z "},"[":{"ha":833,"x_min":0,"x_max":0,"o":"m 278 972 l 278 0 l 833 0 l 833 139 l 417 139 l 417 833 l 833 833 l 833 972 z "},"\\":{"ha":833,"x_min":0,"x_max":0,"o":"m 139 735 l 735 139 l 833 139 l 833 238 l 238 833 l 139 833 z "},"]":{"ha":833,"x_min":0,"x_max":0,"o":"m 139 833 l 556 833 l 556 139 l 139 139 l 139 0 l 694 0 l 694 972 l 139 972 z "},"^":{"ha":833,"x_min":0,"x_max":0,"o":"m 139 556 l 238 556 l 486 804 l 735 556 l 833 556 l 833 654 l 515 972 l 457 972 l 139 654 z "},"_":{"ha":833,"x_min":0,"x_max":0,"o":"m 139 0 l 833 0 l 833 139 l 139 139 z "},"`":{"ha":833,"x_min":0,"x_max":0,"o":"m 278 874 l 596 556 l 694 556 l 694 654 l 376 972 l 278 972 z "},"a":{"ha":833,"x_min":0,"x_max":0,"o":"m 139 179 l 318 0 l 833 0 l 833 515 l 654 694 l 278 694 l 278 556 l 596 556 l 694 457 l 694 417 l 318 417 l 139 238 z m 376 139 l 307 208 l 376 278 l 694 278 l 694 139 z "},"b":{"ha":833,"x_min":0,"x_max":0,"o":"m 139 972 l 139 0 l 654 0 l 833 179 l 833 515 l 654 694 l 278 694 l 278 972 z m 278 556 l 596 556 l 694 457 l 694 238 l 596 139 l 278 139 z "},"c":{"ha":833,"x_min":0,"x_max":0,"o":"m 139 515 l 139 179 l 318 0 l 833 0 l 833 139 l 376 139 l 278 238 l 278 457 l 376 556 l 833 556 l 833 694 l 318 694 z "},"d":{"ha":833,"x_min":0,"x_max":0,"o":"m 139 515 l 139 179 l 318 0 l 833 0 l 833 972 l 694 972 l 694 694 l 318 694 z m 376 556 l 694 556 l 694 139 l 376 139 l 278 238 l 278 457 z "},"e":{"ha":833,"x_min":0,"x_max":0,"o":"m 139 515 l 139 179 l 318 0 l 694 0 l 694 139 l 376 139 l 278 238 l 278 278 l 833 278 l 833 515 l 654 694 l 318 694 z m 376 556 l 596 556 l 694 457 l 694 417 l 278 417 l 278 457 z "},"f":{"ha":833,"x_min":0,"x_max":0,"o":"m 278 417 l 417 417 l 417 0 l 556 0 l 556 417 l 694 417 l 694 556 l 556 556 l 556 735 l 694 874 l 694 972 l 596 972 l 417 793 l 417 556 l 278 556 z "},"g":{"ha":833,"x_min":0,"x_max":0,"o":"m 139 515 l 139 179 l 318 0 l 694 0 l 694 -40 l 596 -139 l 278 -139 l 278 -278 l 654 -278 l 833 -99 l 833 694 l 318 694 z m 376 556 l 694 556 l 694 139 l 376 139 l 278 238 l 278 457 z "},"h":{"ha":833,"x_min":0,"x_max":0,"o":"m 139 972 l 139 0 l 278 0 l 278 556 l 596 556 l 694 457 l 694 0 l 833 0 l 833 515 l 654 694 l 278 694 l 278 972 z "},"i":{"ha":833,"x_min":0,"x_max":0,"o":"m 278 556 l 417 556 l 417 139 l 278 139 l 278 0 l 694 0 l 694 139 l 556 139 l 556 694 l 278 694 z m 417 833 l 556 833 l 556 972 l 417 972 z "},"j":{"ha":833,"x_min":0,"x_max":0,"o":"m 417 -40 l 278 -179 l 278 -278 l 376 -278 l 556 -99 l 556 694 l 417 694 z m 417 833 l 556 833 l 556 972 l 417 972 z "},"k":{"ha":833,"x_min":0,"x_max":0,"o":"m 278 972 l 278 0 l 417 0 l 417 278 l 457 278 l 735 0 l 833 0 l 833 99 l 585 347 l 833 596 l 833 694 l 735 694 l 457 417 l 417 417 l 417 972 z "},"l":{"ha":833,"x_min":0,"x_max":0,"o":"m 278 833 l 417 833 l 417 139 l 278 139 l 278 0 l 694 0 l 694 139 l 556 139 l 556 972 l 278 972 z "},"m":{"ha":833,"x_min":0,"x_max":0,"o":"m 139 694 l 139 0 l 278 0 l 278 556 l 318 556 l 417 457 l 417 0 l 556 0 l 556 457 l 625 526 l 694 457 l 694 0 l 833 0 l 833 515 l 654 694 l 596 694 l 486 585 l 376 694 z "},"n":{"ha":833,"x_min":0,"x_max":0,"o":"m 139 694 l 139 0 l 278 0 l 278 556 l 596 556 l 694 457 l 694 0 l 833 0 l 833 515 l 654 694 z "},"o":{"ha":833,"x_min":0,"x_max":0,"o":"m 139 515 l 139 179 l 318 0 l 654 0 l 833 179 l 833 515 l 654 694 l 318 694 z m 376 556 l 596 556 l 694 457 l 694 238 l 596 139 l 376 139 l 278 238 l 278 457 z "},"p":{"ha":833,"x_min":0,"x_max":0,"o":"m 139 694 l 139 -278 l 278 -278 l 278 0 l 654 0 l 833 179 l 833 515 l 654 694 z m 278 556 l 596 556 l 694 457 l 694 238 l 596 139 l 278 139 z "},"q":{"ha":833,"x_min":0,"x_max":0,"o":"m 139 515 l 139 179 l 318 0 l 694 0 l 694 -278 l 833 -278 l 833 694 l 318 694 z m 376 556 l 694 556 l 694 139 l 376 139 l 278 238 l 278 457 z "},"r":{"ha":833,"x_min":0,"x_max":0,"o":"m 278 694 l 278 0 l 417 0 l 417 417 l 515 417 l 654 556 l 833 556 l 833 694 l 596 694 l 457 556 l 417 556 l 417 694 z "},"s":{"ha":833,"x_min":0,"x_max":0,"o":"m 139 457 l 318 278 l 596 278 l 665 208 l 596 139 l 139 139 l 139 0 l 654 0 l 833 179 l 833 238 l 654 417 l 376 417 l 307 486 l 376 556 l 833 556 l 833 694 l 318 694 l 139 515 z "},"t":{"ha":833,"x_min":0,"x_max":0,"o":"m 278 556 l 417 556 l 417 179 l 596 0 l 694 0 l 694 99 l 556 238 l 556 556 l 694 556 l 694 694 l 556 694 l 556 972 l 417 972 l 417 694 l 278 694 z "},"u":{"ha":833,"x_min":0,"x_max":0,"o":"m 139 694 l 139 179 l 318 0 l 833 0 l 833 694 l 694 694 l 694 139 l 376 139 l 278 238 l 278 694 z "},"v":{"ha":833,"x_min":0,"x_max":0,"o":"m 139 694 l 139 457 l 278 318 l 278 179 l 457 0 l 515 0 l 694 179 l 694 318 l 833 457 l 833 694 l 694 694 l 694 515 l 556 376 l 556 238 l 486 168 l 417 238 l 417 376 l 278 515 l 278 694 z "},"w":{"ha":833,"x_min":0,"x_max":0,"o":"m 139 694 l 139 179 l 318 0 l 376 0 l 486 110 l 596 0 l 654 0 l 833 179 l 833 694 l 694 694 l 694 238 l 625 168 l 556 238 l 556 417 l 417 417 l 417 238 l 347 168 l 278 238 l 278 694 z "},"x":{"ha":833,"x_min":0,"x_max":0,"o":"m 139 596 l 388 347 l 139 99 l 139 0 l 238 0 l 486 249 l 735 0 l 833 0 l 833 99 l 585 347 l 833 596 l 833 694 l 735 694 l 486 446 l 238 694 l 139 694 z "},"y":{"ha":833,"x_min":0,"x_max":0,"o":"m 139 694 l 139 179 l 318 0 l 694 0 l 694 -40 l 596 -139 l 278 -139 l 278 -278 l 654 -278 l 833 -99 l 833 694 l 694 694 l 694 139 l 376 139 l 278 238 l 278 694 z "},"z":{"ha":833,"x_min":0,"x_max":0,"o":"m 139 556 l 556 556 l 556 515 l 278 238 l 278 139 l 139 139 l 139 0 l 833 0 l 833 139 l 417 139 l 417 179 l 694 457 l 694 556 l 833 556 l 833 694 l 139 694 z "},"{":{"ha":833,"x_min":0,"x_max":0,"o":"m 417 654 l 278 515 l 278 457 l 417 318 l 417 179 l 596 0 l 833 0 l 833 139 l 654 139 l 556 238 l 556 376 l 446 486 l 556 596 l 556 735 l 654 833 l 833 833 l 833 972 l 596 972 l 417 793 z "},"|":{"ha":833,"x_min":0,"x_max":0,"o":"m 417 972 l 417 0 l 556 0 l 556 972 z "},"}":{"ha":833,"x_min":0,"x_max":0,"o":"m 139 833 l 318 833 l 417 735 l 417 596 l 526 486 l 417 376 l 417 238 l 318 139 l 139 139 l 139 0 l 376 0 l 556 179 l 556 318 l 694 457 l 694 515 l 556 654 l 556 793 l 376 972 l 139 972 z "},"~":{"ha":833,"x_min":0,"x_max":0,"o":"m 139 694 l 238 694 l 347 804 l 596 556 l 654 556 l 833 735 l 833 833 l 735 833 l 625 724 l 376 972 l 318 972 l 139 793 z "}," ":{"ha":833,"x_min":0,"x_max":0,"o":""},"¡":{"ha":833,"x_min":0,"x_max":0,"o":"m 417 556 l 556 556 l 556 694 l 417 694 z m 417 417 l 417 -278 l 556 -278 l 556 417 z "},"¢":{"ha":833,"x_min":0,"x_max":0,"o":"m 139 515 l 139 179 l 318 0 l 417 0 l 417 -139 l 556 -139 l 556 0 l 833 0 l 833 139 l 556 139 l 556 556 l 833 556 l 833 694 l 556 694 l 556 833 l 417 833 l 417 694 l 318 694 z m 376 556 l 417 556 l 417 139 l 376 139 l 278 238 l 278 457 z "},"£":{"ha":833,"x_min":0,"x_max":0,"o":"m 139 417 l 278 417 l 278 139 l 139 139 l 139 0 l 833 0 l 833 139 l 417 139 l 417 417 l 556 417 l 556 556 l 417 556 l 417 735 l 515 833 l 596 833 l 735 694 l 833 694 l 833 793 l 654 972 l 457 972 l 278 793 l 278 556 l 139 556 z "},"¤":{"ha":833,"x_min":0,"x_max":0,"o":"m 139 596 l 278 457 l 278 238 l 139 99 l 139 0 l 238 0 l 376 139 l 596 139 l 735 0 l 833 0 l 833 99 l 694 238 l 694 457 l 833 596 l 833 694 l 735 694 l 596 556 l 376 556 l 238 694 l 139 694 z m 417 417 l 556 417 l 556 278 l 417 278 z "},"¥":{"ha":833,"x_min":0,"x_max":0,"o":"m 139 874 l 278 735 l 278 694 l 139 694 l 139 556 l 417 556 l 417 417 l 139 417 l 139 278 l 417 278 l 417 0 l 556 0 l 556 278 l 833 278 l 833 417 l 556 417 l 556 556 l 833 556 l 833 694 l 694 694 l 694 735 l 833 874 l 833 972 l 735 972 l 556 793 l 556 694 l 417 694 l 417 793 l 238 972 l 139 972 z "},"¦":{"ha":833,"x_min":0,"x_max":0,"o":"m 417 972 l 417 556 l 556 556 l 556 972 z m 417 417 l 417 0 l 556 0 l 556 417 z "},"§":{"ha":833,"x_min":0,"x_max":0,"o":"m 139 793 l 139 596 l 249 486 l 139 376 l 139 318 l 318 139 l 596 139 l 694 40 l 694 -40 l 596 -139 l 376 -139 l 238 0 l 139 0 l 139 -99 l 318 -278 l 654 -278 l 833 -99 l 833 99 l 724 208 l 833 318 l 833 376 l 654 556 l 376 556 l 278 654 l 278 735 l 376 833 l 596 833 l 735 694 l 833 694 l 833 793 l 654 972 l 318 972 z m 376 278 l 307 347 l 376 417 l 596 417 l 665 347 l 596 278 z "},"¨":{"ha":833,"x_min":0,"x_max":0,"o":"m 278 833 l 417 833 l 417 972 l 278 972 z m 556 833 l 694 833 l 694 972 l 556 972 z "},"©":{"ha":833,"x_min":0,"x_max":0,"o":"m 139 793 l 139 -99 l 318 -278 l 654 -278 l 833 -99 l 833 793 l 654 972 l 318 972 z m 376 833 l 596 833 l 694 735 l 694 556 l 654 556 l 515 694 l 457 694 l 318 556 l 278 556 l 278 735 z m 278 139 l 318 139 l 457 0 l 515 0 l 654 139 l 694 139 l 694 -40 l 596 -139 l 376 -139 l 278 -40 z m 417 457 l 486 526 l 596 417 l 694 417 l 694 278 l 596 278 l 486 168 l 417 238 z "},"ª":{"ha":833,"x_min":0,"x_max":0,"o":"m 139 457 l 318 278 l 833 278 l 833 793 l 654 972 l 278 972 l 278 833 l 596 833 l 694 735 l 694 694 l 318 694 l 139 515 z m 139 0 l 833 0 l 833 139 l 139 139 z m 376 417 l 307 486 l 376 556 l 694 556 l 694 417 z "},"«":{"ha":833,"x_min":0,"x_max":0,"o":"m 139 318 l 318 139 l 417 139 l 417 238 l 307 347 l 417 457 l 417 556 l 318 556 l 139 376 z m 556 318 l 735 139 l 833 139 l 833 238 l 724 347 l 833 457 l 833 556 l 735 556 l 556 376 z "},"¬":{"ha":833,"x_min":0,"x_max":0,"o":"m 139 556 l 694 556 l 694 278 l 833 278 l 833 694 l 139 694 z "},"®":{"ha":833,"x_min":0,"x_max":0,"o":"m 139 793 l 139 -99 l 318 -278 l 654 -278 l 833 -99 l 833 793 l 654 972 l 318 972 z m 376 833 l 596 833 l 694 735 l 694 556 l 654 556 l 515 694 l 278 694 l 278 735 z m 417 556 l 457 556 l 556 457 l 556 376 l 457 278 l 417 278 z m 278 0 l 417 0 l 417 139 l 457 139 l 596 0 l 694 0 l 694 -40 l 596 -139 l 376 -139 l 278 -40 z m 654 139 l 585 208 l 654 278 l 694 278 l 694 139 z "},"¯":{"ha":833,"x_min":0,"x_max":0,"o":"m 278 833 l 694 833 l 694 972 l 278 972 z "},"°":{"ha":833,"x_min":0,"x_max":0,"o":"m 278 735 l 457 556 l 654 556 l 833 735 l 833 793 l 654 972 l 457 972 l 278 793 z m 515 694 l 446 764 l 515 833 l 596 833 l 665 764 l 596 694 z "},"±":{"ha":833,"x_min":0,"x_max":0,"o":"m 139 556 l 417 556 l 417 278 l 556 278 l 556 556 l 833 556 l 833 694 l 556 694 l 556 972 l 417 972 l 417 694 l 139 694 z m 139 0 l 833 0 l 833 139 l 139 139 z "},"²":{"ha":833,"x_min":0,"x_max":0,"o":"m 278 833 l 457 833 l 526 764 l 278 515 l 278 278 l 694 278 l 694 417 l 417 417 l 417 457 l 694 735 l 694 793 l 515 972 l 278 972 z "},"³":{"ha":833,"x_min":0,"x_max":0,"o":"m 278 833 l 457 833 l 526 764 l 457 694 l 278 694 l 278 556 l 457 556 l 526 486 l 457 417 l 278 417 l 278 278 l 515 278 l 694 457 l 694 515 l 585 625 l 694 735 l 694 793 l 515 972 l 278 972 z "},"´":{"ha":833,"x_min":0,"x_max":0,"o":"m 278 556 l 376 556 l 694 874 l 694 972 l 596 972 l 278 654 z "},"µ":{"ha":833,"x_min":0,"x_max":0,"o":"m 139 694 l 139 -278 l 278 -278 l 278 0 l 515 0 l 625 110 l 735 0 l 833 0 l 833 99 l 694 238 l 694 694 l 556 694 l 556 238 l 457 139 l 278 139 l 278 694 z "},"¶":{"ha":833,"x_min":0,"x_max":0,"o":"m 139 793 l 139 596 l 318 417 l 417 417 l 417 0 l 556 0 l 556 972 l 318 972 z m 376 833 l 417 833 l 417 556 l 376 556 l 278 654 l 278 735 z m 694 972 l 694 0 l 833 0 l 833 972 z "},"·":{"ha":833,"x_min":0,"x_max":0,"o":"m 417 417 l 556 417 l 556 556 l 417 556 z "},"¸":{"ha":833,"x_min":0,"x_max":0,"o":"m 417 40 l 526 -69 l 417 -179 l 417 -278 l 515 -278 l 694 -99 l 694 -40 l 515 139 l 417 139 z "},"¹":{"ha":833,"x_min":0,"x_max":0,"o":"m 278 694 l 417 694 l 417 417 l 278 417 l 278 278 l 694 278 l 694 417 l 556 417 l 556 972 l 417 972 l 417 833 l 278 833 z "},"º":{"ha":833,"x_min":0,"x_max":0,"o":"m 139 793 l 139 457 l 318 278 l 654 278 l 833 457 l 833 793 l 654 972 l 318 972 z m 139 0 l 833 0 l 833 139 l 139 139 z m 376 833 l 596 833 l 694 735 l 694 515 l 596 417 l 376 417 l 278 515 l 278 735 z "},"»":{"ha":833,"x_min":0,"x_max":0,"o":"m 139 457 l 249 347 l 139 238 l 139 139 l 238 139 l 417 318 l 417 376 l 238 556 l 139 556 z m 556 457 l 665 347 l 556 238 l 556 139 l 654 139 l 833 318 l 833 376 l 654 556 l 556 556 z "},"¼":{"ha":833,"x_min":0,"x_max":0,"o":"m 278 972 l 278 278 l 417 278 l 417 972 z m 417 99 l 417 -139 l 694 -139 l 694 -278 l 833 -278 l 833 417 l 694 417 l 694 278 l 596 278 z m 654 139 l 694 139 l 694 0 l 556 0 l 556 40 z "},"½":{"ha":833,"x_min":0,"x_max":0,"o":"m 139 972 l 139 278 l 278 278 l 278 972 z m 417 278 l 596 278 l 665 208 l 417 -40 l 417 -278 l 833 -278 l 833 -139 l 556 -139 l 556 -99 l 833 179 l 833 238 l 654 417 l 417 417 z "},"¾":{"ha":833,"x_min":0,"x_max":0,"o":"m 139 833 l 318 833 l 388 764 l 318 694 l 139 694 l 139 556 l 318 556 l 388 486 l 318 417 l 139 417 l 139 278 l 376 278 l 556 457 l 556 515 l 446 625 l 556 735 l 556 793 l 376 972 l 139 972 z m 417 99 l 417 -139 l 694 -139 l 694 -278 l 833 -278 l 833 417 l 694 417 l 694 278 l 596 278 z m 654 139 l 694 139 l 694 0 l 556 0 l 556 40 z "},"¿":{"ha":833,"x_min":0,"x_max":0,"o":"m 139 -99 l 318 -278 l 654 -278 l 833 -99 l 833 0 l 735 0 l 596 -139 l 376 -139 l 307 -69 l 556 179 l 556 417 l 417 417 l 417 238 l 139 -40 z m 417 556 l 556 556 l 556 694 l 417 694 z "},"À":{"ha":833,"x_min":0,"x_max":0,"o":"m 139 515 l 139 0 l 278 0 l 278 278 l 694 278 l 694 0 l 833 0 l 833 515 l 654 694 l 556 694 l 556 793 l 376 972 l 278 972 l 278 874 l 417 735 l 417 694 l 318 694 z m 376 556 l 596 556 l 694 457 l 694 417 l 278 417 l 278 457 z "},"Á":{"ha":833,"x_min":0,"x_max":0,"o":"m 139 515 l 139 0 l 278 0 l 278 278 l 694 278 l 694 0 l 833 0 l 833 515 l 654 694 l 556 694 l 556 735 l 694 874 l 694 972 l 596 972 l 417 793 l 417 694 l 318 694 z m 376 556 l 596 556 l 694 457 l 694 417 l 278 417 l 278 457 z "},"Â":{"ha":833,"x_min":0,"x_max":0,"o":"m 278 654 l 139 515 l 139 0 l 278 0 l 278 278 l 694 278 l 694 0 l 833 0 l 833 515 l 694 654 l 694 793 l 515 972 l 457 972 l 278 793 z m 376 556 l 596 556 l 694 457 l 694 417 l 278 417 l 278 457 z m 417 735 l 486 804 l 556 735 l 556 694 l 417 694 z "},"Ã":{"ha":833,"x_min":0,"x_max":0,"o":"m 278 654 l 139 515 l 139 0 l 278 0 l 278 278 l 694 278 l 694 0 l 833 0 l 833 515 l 694 654 l 694 735 l 833 874 l 833 972 l 735 972 l 625 863 l 515 972 l 457 972 l 278 793 z m 376 556 l 596 556 l 694 457 l 694 417 l 278 417 l 278 457 z m 417 735 l 486 804 l 556 735 l 556 694 l 417 694 z "},"Ä":{"ha":833,"x_min":0,"x_max":0,"o":"m 139 515 l 139 0 l 278 0 l 278 278 l 694 278 l 694 0 l 833 0 l 833 515 l 654 694 l 318 694 z m 278 833 l 417 833 l 417 972 l 278 972 z m 376 556 l 596 556 l 694 457 l 694 417 l 278 417 l 278 457 z m 556 833 l 694 833 l 694 972 l 556 972 z "},"Å":{"ha":833,"x_min":0,"x_max":0,"o":"m 139 515 l 139 0 l 278 0 l 278 278 l 694 278 l 694 0 l 833 0 l 833 515 l 654 694 l 318 694 z m 376 556 l 596 556 l 694 457 l 694 417 l 278 417 l 278 457 z m 417 833 l 556 833 l 556 972 l 417 972 z "},"Æ":{"ha":833,"x_min":0,"x_max":0,"o":"m 139 793 l 139 0 l 278 0 l 278 278 l 417 278 l 417 0 l 833 0 l 833 139 l 556 139 l 556 417 l 694 417 l 694 556 l 556 556 l 556 833 l 833 833 l 833 972 l 318 972 z m 376 833 l 417 833 l 417 417 l 278 417 l 278 735 z "},"Ç":{"ha":833,"x_min":0,"x_max":0,"o":"m 139 793 l 139 179 l 318 0 l 417 0 l 417 -40 l 278 -179 l 278 -278 l 376 -278 l 556 -99 l 556 0 l 654 0 l 833 179 l 833 278 l 735 278 l 596 139 l 376 139 l 278 238 l 278 735 l 376 833 l 596 833 l 735 694 l 833 694 l 833 793 l 654 972 l 318 972 z "},"È":{"ha":833,"x_min":0,"x_max":0,"o":"m 139 694 l 139 0 l 833 0 l 833 139 l 278 139 l 278 278 l 694 278 l 694 417 l 278 417 l 278 556 l 833 556 l 833 694 l 556 694 l 556 793 l 376 972 l 278 972 l 278 874 l 417 735 l 417 694 z "},"É":{"ha":833,"x_min":0,"x_max":0,"o":"m 139 694 l 139 0 l 833 0 l 833 139 l 278 139 l 278 278 l 694 278 l 694 417 l 278 417 l 278 556 l 833 556 l 833 694 l 556 694 l 556 735 l 694 874 l 694 972 l 596 972 l 417 793 l 417 694 z "},"Ê":{"ha":833,"x_min":0,"x_max":0,"o":"m 139 694 l 139 0 l 833 0 l 833 139 l 278 139 l 278 278 l 694 278 l 694 417 l 278 417 l 278 556 l 833 556 l 833 694 l 694 694 l 694 793 l 515 972 l 457 972 l 278 793 l 278 694 z m 417 694 l 417 735 l 486 804 l 556 735 l 556 694 z "},"Ë":{"ha":833,"x_min":0,"x_max":0,"o":"m 139 694 l 139 0 l 833 0 l 833 139 l 278 139 l 278 278 l 694 278 l 694 417 l 278 417 l 278 556 l 833 556 l 833 694 z m 278 833 l 417 833 l 417 972 l 278 972 z m 556 833 l 694 833 l 694 972 l 556 972 z "},"Ì":{"ha":833,"x_min":0,"x_max":0,"o":"m 278 874 l 457 694 l 556 694 l 556 793 l 376 972 l 278 972 z m 278 417 l 417 417 l 417 139 l 278 139 l 278 0 l 694 0 l 694 139 l 556 139 l 556 417 l 694 417 l 694 556 l 278 556 z "},"Í":{"ha":833,"x_min":0,"x_max":0,"o":"m 278 417 l 417 417 l 417 139 l 278 139 l 278 0 l 694 0 l 694 139 l 556 139 l 556 417 l 694 417 l 694 556 l 278 556 z m 417 694 l 515 694 l 694 874 l 694 972 l 596 972 l 417 793 z "},"Î":{"ha":833,"x_min":0,"x_max":0,"o":"m 278 694 l 376 694 l 486 804 l 596 694 l 694 694 l 694 793 l 515 972 l 457 972 l 278 793 z m 278 417 l 417 417 l 417 139 l 278 139 l 278 0 l 694 0 l 694 139 l 556 139 l 556 417 l 694 417 l 694 556 l 278 556 z "},"Ï":{"ha":833,"x_min":0,"x_max":0,"o":"m 278 833 l 417 833 l 417 972 l 278 972 z m 278 556 l 417 556 l 417 139 l 278 139 l 278 0 l 694 0 l 694 139 l 556 139 l 556 556 l 694 556 l 694 694 l 278 694 z m 556 833 l 694 833 l 694 972 l 556 972 z "},"Ð":{"ha":833,"x_min":0,"x_max":0,"o":"m 139 417 l 278 417 l 278 0 l 654 0 l 833 179 l 833 793 l 654 972 l 278 972 l 278 556 l 139 556 z m 417 833 l 596 833 l 694 735 l 694 238 l 596 139 l 417 139 l 417 417 l 556 417 l 556 556 l 417 556 z "},"Ñ":{"ha":833,"x_min":0,"x_max":0,"o":"m 139 556 l 139 0 l 278 0 l 278 417 l 318 417 l 596 139 l 694 139 l 694 0 l 833 0 l 833 556 l 694 556 l 694 278 l 654 278 l 376 556 z m 278 694 l 376 694 l 486 804 l 596 694 l 654 694 l 833 874 l 833 972 l 735 972 l 625 863 l 515 972 l 457 972 l 278 793 z "},"Ò":{"ha":833,"x_min":0,"x_max":0,"o":"m 139 515 l 139 179 l 318 0 l 654 0 l 833 179 l 833 515 l 654 694 l 556 694 l 556 793 l 376 972 l 278 972 l 278 874 l 417 735 l 417 694 l 318 694 z m 376 556 l 596 556 l 694 457 l 694 238 l 596 139 l 376 139 l 278 238 l 278 457 z "},"Ó":{"ha":833,"x_min":0,"x_max":0,"o":"m 139 515 l 139 179 l 318 0 l 654 0 l 833 179 l 833 515 l 654 694 l 556 694 l 556 735 l 694 874 l 694 972 l 596 972 l 417 793 l 417 694 l 318 694 z m 376 556 l 596 556 l 694 457 l 694 238 l 596 139 l 376 139 l 278 238 l 278 457 z "},"Ô":{"ha":833,"x_min":0,"x_max":0,"o":"m 278 654 l 139 515 l 139 179 l 318 0 l 654 0 l 833 179 l 833 515 l 694 654 l 694 793 l 515 972 l 457 972 l 278 793 z m 376 556 l 596 556 l 694 457 l 694 238 l 596 139 l 376 139 l 278 238 l 278 457 z m 417 735 l 486 804 l 556 735 l 556 694 l 417 694 z "},"Õ":{"ha":833,"x_min":0,"x_max":0,"o":"m 278 654 l 139 515 l 139 179 l 318 0 l 654 0 l 833 179 l 833 515 l 694 654 l 694 735 l 833 874 l 833 972 l 735 972 l 625 863 l 515 972 l 457 972 l 278 793 z m 376 556 l 596 556 l 694 457 l 694 238 l 596 139 l 376 139 l 278 238 l 278 457 z m 417 735 l 486 804 l 556 735 l 556 694 l 417 694 z "},"Ö":{"ha":833,"x_min":0,"x_max":0,"o":"m 139 515 l 139 179 l 318 0 l 654 0 l 833 179 l 833 515 l 654 694 l 318 694 z m 278 833 l 417 833 l 417 972 l 278 972 z m 376 556 l 596 556 l 694 457 l 694 238 l 596 139 l 376 139 l 278 238 l 278 457 z m 556 833 l 694 833 l 694 972 l 556 972 z "},"×":{"ha":833,"x_min":0,"x_max":0,"o":"m 139 735 l 388 486 l 139 238 l 139 139 l 238 139 l 486 388 l 735 139 l 833 139 l 833 238 l 585 486 l 833 735 l 833 833 l 735 833 l 486 585 l 238 833 l 139 833 z "},"Ø":{"ha":833,"x_min":0,"x_max":0,"o":"m 139 793 l 139 179 l 318 0 l 654 0 l 833 179 l 833 793 l 654 972 l 318 972 z m 376 833 l 596 833 l 694 735 l 694 694 l 596 694 l 318 417 l 278 417 l 278 735 z m 278 278 l 376 278 l 654 556 l 694 556 l 694 238 l 596 139 l 376 139 l 278 238 z "},"Ù":{"ha":833,"x_min":0,"x_max":0,"o":"m 139 694 l 139 179 l 318 0 l 654 0 l 833 179 l 833 694 l 694 694 l 694 238 l 596 139 l 376 139 l 278 238 l 278 694 z m 278 874 l 457 694 l 556 694 l 556 793 l 376 972 l 278 972 z "},"Ú":{"ha":833,"x_min":0,"x_max":0,"o":"m 139 694 l 139 179 l 318 0 l 654 0 l 833 179 l 833 694 l 694 694 l 694 238 l 596 139 l 376 139 l 278 238 l 278 694 z m 417 694 l 515 694 l 694 874 l 694 972 l 596 972 l 417 793 z "},"Û":{"ha":833,"x_min":0,"x_max":0,"o":"m 139 556 l 139 179 l 318 0 l 654 0 l 833 179 l 833 556 l 694 556 l 694 238 l 596 139 l 376 139 l 278 238 l 278 556 z m 278 694 l 376 694 l 486 804 l 596 694 l 694 694 l 694 793 l 515 972 l 457 972 l 278 793 z "},"Ü":{"ha":833,"x_min":0,"x_max":0,"o":"m 139 694 l 139 179 l 318 0 l 654 0 l 833 179 l 833 694 l 694 694 l 694 238 l 596 139 l 376 139 l 278 238 l 278 694 z m 278 833 l 417 833 l 417 972 l 278 972 z m 556 833 l 694 833 l 694 972 l 556 972 z "},"Ý":{"ha":833,"x_min":0,"x_max":0,"o":"m 139 596 l 417 318 l 417 0 l 556 0 l 556 318 l 833 596 l 833 694 l 735 694 l 486 446 l 238 694 l 139 694 z m 417 694 l 515 694 l 694 874 l 694 972 l 596 972 l 417 793 z "},"Þ":{"ha":833,"x_min":0,"x_max":0,"o":"m 139 972 l 139 0 l 278 0 l 278 278 l 654 278 l 833 457 l 833 654 l 654 833 l 278 833 l 278 972 z m 278 694 l 596 694 l 694 596 l 694 515 l 596 417 l 278 417 z "},"ß":{"ha":833,"x_min":0,"x_max":0,"o":"m 139 793 l 139 -278 l 278 -278 l 278 735 l 376 833 l 457 833 l 556 735 l 556 556 l 417 556 l 417 417 l 596 417 l 694 318 l 694 238 l 596 139 l 417 139 l 417 0 l 654 0 l 833 179 l 833 376 l 694 515 l 694 793 l 515 972 l 318 972 z "},"à":{"ha":833,"x_min":0,"x_max":0,"o":"m 139 179 l 318 0 l 833 0 l 833 515 l 654 694 l 556 694 l 556 793 l 376 972 l 278 972 l 278 874 l 417 735 l 417 694 l 278 694 l 278 556 l 596 556 l 694 457 l 694 417 l 318 417 l 139 238 z m 376 139 l 307 208 l 376 278 l 694 278 l 694 139 z "},"á":{"ha":833,"x_min":0,"x_max":0,"o":"m 139 179 l 318 0 l 833 0 l 833 515 l 654 694 l 556 694 l 556 735 l 694 874 l 694 972 l 596 972 l 417 793 l 417 694 l 278 694 l 278 556 l 596 556 l 694 457 l 694 417 l 318 417 l 139 238 z m 376 139 l 307 208 l 376 278 l 694 278 l 694 139 z "},"â":{"ha":833,"x_min":0,"x_max":0,"o":"m 139 179 l 318 0 l 833 0 l 833 515 l 694 654 l 694 793 l 515 972 l 457 972 l 278 793 l 278 556 l 596 556 l 694 457 l 694 417 l 318 417 l 139 238 z m 376 139 l 307 208 l 376 278 l 694 278 l 694 139 z m 417 735 l 486 804 l 556 735 l 556 694 l 417 694 z "},"ã":{"ha":833,"x_min":0,"x_max":0,"o":"m 139 179 l 318 0 l 833 0 l 833 515 l 694 654 l 694 735 l 833 874 l 833 972 l 735 972 l 625 863 l 515 972 l 457 972 l 278 793 l 278 556 l 596 556 l 694 457 l 694 417 l 318 417 l 139 238 z m 376 139 l 307 208 l 376 278 l 694 278 l 694 139 z m 417 735 l 486 804 l 556 735 l 556 694 l 417 694 z "},"ä":{"ha":833,"x_min":0,"x_max":0,"o":"m 139 179 l 318 0 l 833 0 l 833 515 l 654 694 l 278 694 l 278 556 l 596 556 l 694 457 l 694 417 l 318 417 l 139 238 z m 278 833 l 417 833 l 417 972 l 278 972 z m 376 139 l 307 208 l 376 278 l 694 278 l 694 139 z m 556 833 l 694 833 l 694 972 l 556 972 z "},"å":{"ha":833,"x_min":0,"x_max":0,"o":"m 139 179 l 318 0 l 833 0 l 833 515 l 654 694 l 278 694 l 278 556 l 596 556 l 694 457 l 694 417 l 318 417 l 139 238 z m 376 139 l 307 208 l 376 278 l 694 278 l 694 139 z m 417 833 l 556 833 l 556 972 l 417 972 z "},"æ":{"ha":833,"x_min":0,"x_max":0,"o":"m 139 179 l 318 0 l 694 0 l 694 139 l 556 139 l 556 278 l 833 278 l 833 515 l 654 694 l 596 694 l 486 585 l 376 694 l 278 694 l 278 596 l 417 457 l 417 417 l 318 417 l 139 238 z m 376 139 l 307 208 l 376 278 l 417 278 l 417 139 z m 556 417 l 556 457 l 625 526 l 694 457 l 694 417 z "},"ç":{"ha":833,"x_min":0,"x_max":0,"o":"m 139 515 l 139 179 l 318 0 l 556 0 l 556 -40 l 417 -179 l 417 -278 l 515 -278 l 694 -99 l 694 0 l 833 0 l 833 139 l 376 139 l 278 238 l 278 457 l 376 556 l 833 556 l 833 694 l 318 694 z "},"è":{"ha":833,"x_min":0,"x_max":0,"o":"m 139 515 l 139 179 l 318 0 l 694 0 l 694 139 l 376 139 l 278 238 l 278 278 l 833 278 l 833 515 l 654 694 l 556 694 l 556 793 l 376 972 l 278 972 l 278 874 l 417 735 l 417 694 l 318 694 z m 376 556 l 596 556 l 694 457 l 694 417 l 278 417 l 278 457 z "},"é":{"ha":833,"x_min":0,"x_max":0,"o":"m 139 515 l 139 179 l 318 0 l 694 0 l 694 139 l 376 139 l 278 238 l 278 278 l 833 278 l 833 515 l 654 694 l 556 694 l 556 735 l 694 874 l 694 972 l 596 972 l 417 793 l 417 694 l 318 694 z m 376 556 l 596 556 l 694 457 l 694 417 l 278 417 l 278 457 z "},"ê":{"ha":833,"x_min":0,"x_max":0,"o":"m 278 654 l 139 515 l 139 179 l 318 0 l 694 0 l 694 139 l 376 139 l 278 238 l 278 278 l 833 278 l 833 515 l 694 654 l 694 793 l 515 972 l 457 972 l 278 793 z m 376 556 l 596 556 l 694 457 l 694 417 l 278 417 l 278 457 z m 417 735 l 486 804 l 556 735 l 556 694 l 417 694 z "},"ë":{"ha":833,"x_min":0,"x_max":0,"o":"m 139 515 l 139 179 l 318 0 l 694 0 l 694 139 l 376 139 l 278 238 l 278 278 l 833 278 l 833 515 l 654 694 l 318 694 z m 278 833 l 417 833 l 417 972 l 278 972 z m 376 556 l 596 556 l 694 457 l 694 417 l 278 417 l 278 457 z m 556 833 l 694 833 l 694 972 l 556 972 z "},"ì":{"ha":833,"x_min":0,"x_max":0,"o":"m 278 874 l 457 694 l 556 694 l 556 793 l 376 972 l 278 972 z m 278 417 l 417 417 l 417 139 l 278 139 l 278 0 l 694 0 l 694 139 l 556 139 l 556 556 l 278 556 z "},"í":{"ha":833,"x_min":0,"x_max":0,"o":"m 278 417 l 417 417 l 417 139 l 278 139 l 278 0 l 694 0 l 694 139 l 556 139 l 556 556 l 278 556 z m 417 694 l 515 694 l 694 874 l 694 972 l 596 972 l 417 793 z "},"î":{"ha":833,"x_min":0,"x_max":0,"o":"m 278 694 l 376 694 l 486 804 l 596 694 l 694 694 l 694 793 l 515 972 l 457 972 l 278 793 z m 278 417 l 417 417 l 417 139 l 278 139 l 278 0 l 694 0 l 694 139 l 556 139 l 556 556 l 278 556 z "},"ï":{"ha":833,"x_min":0,"x_max":0,"o":"m 278 833 l 417 833 l 417 972 l 278 972 z m 278 556 l 417 556 l 417 139 l 278 139 l 278 0 l 694 0 l 694 139 l 556 139 l 556 694 l 278 694 z m 556 833 l 694 833 l 694 972 l 556 972 z "},"ð":{"ha":833,"x_min":0,"x_max":0,"o":"m 139 833 l 318 833 l 388 764 l 278 654 l 278 556 l 376 556 l 486 665 l 694 457 l 694 417 l 318 417 l 139 238 l 139 179 l 318 0 l 654 0 l 833 179 l 833 515 l 585 764 l 694 874 l 694 972 l 596 972 l 486 863 l 376 972 l 139 972 z m 376 139 l 307 208 l 376 278 l 694 278 l 694 238 l 596 139 z "},"ñ":{"ha":833,"x_min":0,"x_max":0,"o":"m 139 694 l 139 0 l 278 0 l 278 556 l 596 556 l 694 457 l 694 0 l 833 0 l 833 515 l 694 654 l 694 735 l 833 874 l 833 972 l 735 972 l 625 863 l 515 972 l 457 972 l 278 793 l 278 694 z m 417 694 l 417 735 l 486 804 l 556 735 l 556 694 z "},"ò":{"ha":833,"x_min":0,"x_max":0,"o":"m 139 376 l 139 179 l 318 0 l 654 0 l 833 179 l 833 376 l 654 556 l 318 556 z m 278 874 l 457 694 l 556 694 l 556 793 l 376 972 l 278 972 z m 376 417 l 596 417 l 694 318 l 694 238 l 596 139 l 376 139 l 278 238 l 278 318 z "},"ó":{"ha":833,"x_min":0,"x_max":0,"o":"m 139 376 l 139 179 l 318 0 l 654 0 l 833 179 l 833 376 l 654 556 l 318 556 z m 376 417 l 596 417 l 694 318 l 694 238 l 596 139 l 376 139 l 278 238 l 278 318 z m 417 694 l 515 694 l 694 874 l 694 972 l 596 972 l 417 793 z "},"ô":{"ha":833,"x_min":0,"x_max":0,"o":"m 139 376 l 139 179 l 318 0 l 654 0 l 833 179 l 833 376 l 654 556 l 318 556 z m 278 694 l 376 694 l 486 804 l 596 694 l 694 694 l 694 793 l 515 972 l 457 972 l 278 793 z m 376 417 l 596 417 l 694 318 l 694 238 l 596 139 l 376 139 l 278 238 l 278 318 z "},"õ":{"ha":833,"x_min":0,"x_max":0,"o":"m 139 376 l 139 179 l 318 0 l 654 0 l 833 179 l 833 376 l 654 556 l 318 556 z m 278 694 l 376 694 l 486 804 l 596 694 l 654 694 l 833 874 l 833 972 l 735 972 l 625 863 l 515 972 l 457 972 l 278 793 z m 376 417 l 596 417 l 694 318 l 694 238 l 596 139 l 376 139 l 278 238 l 278 318 z "},"ö":{"ha":833,"x_min":0,"x_max":0,"o":"m 139 376 l 139 179 l 318 0 l 654 0 l 833 179 l 833 376 l 654 556 l 318 556 z m 278 694 l 417 694 l 417 833 l 278 833 z m 376 417 l 596 417 l 694 318 l 694 238 l 596 139 l 376 139 l 278 238 l 278 318 z m 556 694 l 694 694 l 694 833 l 556 833 z "},"÷":{"ha":833,"x_min":0,"x_max":0,"o":"m 139 417 l 833 417 l 833 556 l 139 556 z m 417 694 l 556 694 l 556 833 l 417 833 z m 417 139 l 556 139 l 556 278 l 417 278 z "},"ø":{"ha":833,"x_min":0,"x_max":0,"o":"m 139 515 l 139 318 l 249 208 l 139 99 l 139 0 l 238 0 l 347 110 l 457 0 l 654 0 l 833 179 l 833 376 l 724 486 l 833 596 l 833 694 l 735 694 l 625 585 l 515 694 l 318 694 z m 376 556 l 457 556 l 526 486 l 347 307 l 278 376 l 278 457 z m 515 139 l 446 208 l 625 388 l 694 318 l 694 238 l 596 139 z "},"ù":{"ha":833,"x_min":0,"x_max":0,"o":"m 139 694 l 139 179 l 318 0 l 833 0 l 833 694 l 694 694 l 694 139 l 376 139 l 278 238 l 278 694 z m 278 874 l 457 694 l 556 694 l 556 793 l 376 972 l 278 972 z "},"ú":{"ha":833,"x_min":0,"x_max":0,"o":"m 139 694 l 139 179 l 318 0 l 833 0 l 833 694 l 694 694 l 694 139 l 376 139 l 278 238 l 278 694 z m 417 694 l 515 694 l 694 874 l 694 972 l 596 972 l 417 793 z "},"û":{"ha":833,"x_min":0,"x_max":0,"o":"m 139 556 l 139 179 l 318 0 l 833 0 l 833 556 l 694 556 l 694 139 l 376 139 l 278 238 l 278 556 z m 278 694 l 376 694 l 486 804 l 596 694 l 694 694 l 694 793 l 515 972 l 457 972 l 278 793 z "},"ü":{"ha":833,"x_min":0,"x_max":0,"o":"m 139 556 l 139 179 l 318 0 l 833 0 l 833 556 l 694 556 l 694 139 l 376 139 l 278 238 l 278 556 z m 278 694 l 417 694 l 417 833 l 278 833 z m 556 694 l 694 694 l 694 833 l 556 833 z "},"ý":{"ha":833,"x_min":0,"x_max":0,"o":"m 139 694 l 139 179 l 318 0 l 694 0 l 694 -40 l 596 -139 l 278 -139 l 278 -278 l 654 -278 l 833 -99 l 833 694 l 694 694 l 694 139 l 376 139 l 278 238 l 278 694 z m 417 694 l 515 694 l 694 874 l 694 972 l 596 972 l 417 793 z "},"þ":{"ha":833,"x_min":0,"x_max":0,"o":"m 139 972 l 139 -278 l 278 -278 l 278 0 l 654 0 l 833 179 l 833 515 l 654 694 l 278 694 l 278 972 z m 278 556 l 596 556 l 694 457 l 694 238 l 596 139 l 278 139 z "},"ÿ":{"ha":833,"x_min":0,"x_max":0,"o":"m 139 694 l 139 179 l 318 0 l 694 0 l 694 -40 l 596 -139 l 278 -139 l 278 -278 l 654 -278 l 833 -99 l 833 694 l 694 694 l 694 139 l 376 139 l 278 238 l 278 694 z m 278 833 l 417 833 l 417 972 l 278 972 z m 556 833 l 694 833 l 694 972 l 556 972 z "},"Ā":{"ha":833,"x_min":0,"x_max":0,"o":"m 139 515 l 139 0 l 278 0 l 278 278 l 694 278 l 694 0 l 833 0 l 833 515 l 654 694 l 318 694 z m 278 833 l 694 833 l 694 972 l 278 972 z m 376 556 l 596 556 l 694 457 l 694 417 l 278 417 l 278 457 z "},"ā":{"ha":833,"x_min":0,"x_max":0,"o":"m 139 179 l 318 0 l 833 0 l 833 515 l 654 694 l 278 694 l 278 556 l 596 556 l 694 457 l 694 417 l 318 417 l 139 238 z m 278 833 l 694 833 l 694 972 l 278 972 z m 376 139 l 307 208 l 376 278 l 694 278 l 694 139 z "},"Ą":{"ha":833,"x_min":0,"x_max":0,"o":"m 139 654 l 139 0 l 278 0 l 278 278 l 694 278 l 694 99 l 556 -40 l 556 -99 l 735 -278 l 833 -278 l 833 -179 l 724 -69 l 833 40 l 833 654 l 515 972 l 457 972 z m 278 596 l 486 804 l 694 596 l 694 417 l 278 417 z "},"ą":{"ha":833,"x_min":0,"x_max":0,"o":"m 139 179 l 318 0 l 556 0 l 556 -99 l 735 -278 l 833 -278 l 833 -179 l 694 -40 l 694 0 l 833 0 l 833 515 l 654 694 l 278 694 l 278 556 l 596 556 l 694 457 l 694 417 l 318 417 l 139 238 z m 376 139 l 307 208 l 376 278 l 694 278 l 694 139 z "},"Ć":{"ha":833,"x_min":0,"x_max":0,"o":"m 139 515 l 139 179 l 318 0 l 654 0 l 833 179 l 833 278 l 735 278 l 596 139 l 376 139 l 278 238 l 278 457 l 376 556 l 596 556 l 735 417 l 833 417 l 833 515 l 654 694 l 556 694 l 556 735 l 694 874 l 694 972 l 596 972 l 417 793 l 417 694 l 318 694 z "},"ć":{"ha":833,"x_min":0,"x_max":0,"o":"m 139 515 l 139 179 l 318 0 l 833 0 l 833 139 l 376 139 l 278 238 l 278 457 l 376 556 l 833 556 l 833 694 l 556 694 l 556 735 l 694 874 l 694 972 l 596 972 l 417 793 l 417 694 l 318 694 z "},"Ĉ":{"ha":833,"x_min":0,"x_max":0,"o":"m 278 654 l 139 515 l 139 179 l 318 0 l 654 0 l 833 179 l 833 278 l 735 278 l 596 139 l 376 139 l 278 238 l 278 457 l 376 556 l 596 556 l 735 417 l 833 417 l 833 515 l 694 654 l 694 793 l 515 972 l 457 972 l 278 793 z m 417 735 l 486 804 l 556 735 l 556 694 l 417 694 z "},"ĉ":{"ha":833,"x_min":0,"x_max":0,"o":"m 278 654 l 139 515 l 139 179 l 318 0 l 833 0 l 833 139 l 376 139 l 278 238 l 278 457 l 376 556 l 833 556 l 833 694 l 694 694 l 694 793 l 515 972 l 457 972 l 278 793 z m 417 735 l 486 804 l 556 735 l 556 694 l 417 694 z "},"Ċ":{"ha":833,"x_min":0,"x_max":0,"o":"m 139 515 l 139 179 l 318 0 l 654 0 l 833 179 l 833 278 l 735 278 l 596 139 l 376 139 l 278 238 l 278 457 l 376 556 l 596 556 l 735 417 l 833 417 l 833 515 l 654 694 l 318 694 z m 417 833 l 556 833 l 556 972 l 417 972 z "},"ċ":{"ha":833,"x_min":0,"x_max":0,"o":"m 139 515 l 139 179 l 318 0 l 833 0 l 833 139 l 376 139 l 278 238 l 278 457 l 376 556 l 833 556 l 833 694 l 318 694 z m 417 833 l 556 833 l 556 972 l 417 972 z "},"Č":{"ha":833,"x_min":0,"x_max":0,"o":"m 139 515 l 139 179 l 318 0 l 654 0 l 833 179 l 833 278 l 735 278 l 596 139 l 376 139 l 278 238 l 278 457 l 376 556 l 596 556 l 735 417 l 833 417 l 833 515 l 654 694 l 556 694 l 556 735 l 694 874 l 694 972 l 596 972 l 486 863 l 376 972 l 278 972 l 278 874 l 417 735 l 417 694 l 318 694 z "},"č":{"ha":833,"x_min":0,"x_max":0,"o":"m 139 515 l 139 179 l 318 0 l 833 0 l 833 139 l 376 139 l 278 238 l 278 457 l 376 556 l 833 556 l 833 694 l 556 694 l 556 735 l 694 874 l 694 972 l 596 972 l 486 863 l 376 972 l 278 972 l 278 874 l 417 735 l 417 694 l 318 694 z "},"Ď":{"ha":833,"x_min":0,"x_max":0,"o":"m 139 694 l 139 0 l 654 0 l 833 179 l 833 515 l 654 694 l 556 694 l 556 735 l 694 874 l 694 972 l 596 972 l 486 863 l 376 972 l 278 972 l 278 874 l 417 735 l 417 694 z m 278 556 l 596 556 l 694 457 l 694 238 l 596 139 l 278 139 z "},"ď":{"ha":833,"x_min":0,"x_max":0,"o":"m 139 515 l 139 179 l 318 0 l 556 0 l 556 972 l 417 972 l 417 694 l 318 694 z m 376 556 l 417 556 l 417 139 l 376 139 l 278 238 l 278 457 z m 694 972 l 694 694 l 833 694 l 833 972 z "},"Đ":{"ha":833,"x_min":0,"x_max":0,"o":"m 139 417 l 278 417 l 278 0 l 654 0 l 833 179 l 833 793 l 654 972 l 278 972 l 278 556 l 139 556 z m 417 833 l 596 833 l 694 735 l 694 238 l 596 139 l 417 139 l 417 417 l 556 417 l 556 556 l 417 556 z "},"đ":{"ha":833,"x_min":0,"x_max":0,"o":"m 139 376 l 139 179 l 318 0 l 694 0 l 694 694 l 833 694 l 833 833 l 694 833 l 694 972 l 556 972 l 556 833 l 417 833 l 417 694 l 556 694 l 556 556 l 318 556 z m 376 417 l 556 417 l 556 139 l 376 139 l 278 238 l 278 318 z "},"Ē":{"ha":833,"x_min":0,"x_max":0,"o":"m 139 694 l 139 0 l 833 0 l 833 139 l 278 139 l 278 278 l 694 278 l 694 417 l 278 417 l 278 556 l 833 556 l 833 694 z m 278 833 l 694 833 l 694 972 l 278 972 z "},"ē":{"ha":833,"x_min":0,"x_max":0,"o":"m 139 515 l 139 179 l 318 0 l 694 0 l 694 139 l 376 139 l 278 238 l 278 278 l 833 278 l 833 515 l 654 694 l 318 694 z m 278 833 l 694 833 l 694 972 l 278 972 z m 376 556 l 596 556 l 694 457 l 694 417 l 278 417 l 278 457 z "},"Ė":{"ha":833,"x_min":0,"x_max":0,"o":"m 139 694 l 139 0 l 833 0 l 833 139 l 278 139 l 278 278 l 694 278 l 694 417 l 278 417 l 278 556 l 833 556 l 833 694 z m 417 833 l 556 833 l 556 972 l 417 972 z "},"ė":{"ha":833,"x_min":0,"x_max":0,"o":"m 139 515 l 139 179 l 318 0 l 694 0 l 694 139 l 376 139 l 278 238 l 278 278 l 833 278 l 833 515 l 654 694 l 318 694 z m 376 556 l 596 556 l 694 457 l 694 417 l 278 417 l 278 457 z m 417 833 l 556 833 l 556 972 l 417 972 z "},"Ę":{"ha":833,"x_min":0,"x_max":0,"o":"m 139 972 l 139 0 l 556 0 l 556 -99 l 735 -278 l 833 -278 l 833 -179 l 694 -40 l 694 0 l 833 0 l 833 139 l 278 139 l 278 417 l 694 417 l 694 556 l 278 556 l 278 833 l 833 833 l 833 972 z "},"ę":{"ha":833,"x_min":0,"x_max":0,"o":"m 139 515 l 139 179 l 318 0 l 556 0 l 556 -99 l 735 -278 l 833 -278 l 833 -179 l 694 -40 l 694 139 l 376 139 l 278 238 l 278 278 l 833 278 l 833 515 l 654 694 l 318 694 z m 376 556 l 596 556 l 694 457 l 694 417 l 278 417 l 278 457 z "},"Ě":{"ha":833,"x_min":0,"x_max":0,"o":"m 139 694 l 139 0 l 833 0 l 833 139 l 278 139 l 278 278 l 694 278 l 694 417 l 278 417 l 278 556 l 833 556 l 833 694 l 556 694 l 556 735 l 694 874 l 694 972 l 596 972 l 486 863 l 376 972 l 278 972 l 278 874 l 417 735 l 417 694 z "},"ě":{"ha":833,"x_min":0,"x_max":0,"o":"m 139 515 l 139 179 l 318 0 l 694 0 l 694 139 l 376 139 l 278 238 l 278 278 l 833 278 l 833 515 l 654 694 l 556 694 l 556 735 l 694 874 l 694 972 l 596 972 l 486 863 l 376 972 l 278 972 l 278 874 l 417 735 l 417 694 l 318 694 z m 376 556 l 596 556 l 694 457 l 694 417 l 278 417 l 278 457 z "},"Ĝ":{"ha":833,"x_min":0,"x_max":0,"o":"m 278 654 l 139 515 l 139 179 l 318 0 l 833 0 l 833 417 l 556 417 l 556 278 l 694 278 l 694 139 l 376 139 l 278 238 l 278 457 l 376 556 l 833 556 l 833 694 l 694 694 l 694 793 l 515 972 l 457 972 l 278 793 z m 417 735 l 486 804 l 556 735 l 556 694 l 417 694 z "},"ĝ":{"ha":833,"x_min":0,"x_max":0,"o":"m 278 654 l 139 515 l 139 179 l 318 0 l 694 0 l 694 -40 l 596 -139 l 278 -139 l 278 -278 l 654 -278 l 833 -99 l 833 694 l 694 694 l 694 793 l 515 972 l 457 972 l 278 793 z m 376 556 l 694 556 l 694 139 l 376 139 l 278 238 l 278 457 z m 417 735 l 486 804 l 556 735 l 556 694 l 417 694 z "},"Ġ":{"ha":833,"x_min":0,"x_max":0,"o":"m 139 515 l 139 179 l 318 0 l 833 0 l 833 417 l 556 417 l 556 278 l 694 278 l 694 139 l 376 139 l 278 238 l 278 457 l 376 556 l 833 556 l 833 694 l 318 694 z m 417 833 l 556 833 l 556 972 l 417 972 z "},"ġ":{"ha":833,"x_min":0,"x_max":0,"o":"m 139 515 l 139 179 l 318 0 l 694 0 l 694 -40 l 596 -139 l 278 -139 l 278 -278 l 654 -278 l 833 -99 l 833 694 l 318 694 z m 376 556 l 694 556 l 694 139 l 376 139 l 278 238 l 278 457 z m 417 833 l 556 833 l 556 972 l 417 972 z "},"Ħ":{"ha":833,"x_min":0,"x_max":0,"o":"m 139 972 l 139 0 l 278 0 l 278 417 l 694 417 l 694 0 l 833 0 l 833 972 l 694 972 l 694 833 l 278 833 l 278 972 z m 278 694 l 694 694 l 694 556 l 278 556 z "},"ħ":{"ha":833,"x_min":0,"x_max":0,"o":"m 139 694 l 278 694 l 278 0 l 417 0 l 417 417 l 596 417 l 694 318 l 694 0 l 833 0 l 833 376 l 654 556 l 417 556 l 417 694 l 556 694 l 556 833 l 417 833 l 417 972 l 278 972 l 278 833 l 139 833 z "},"Ĩ":{"ha":833,"x_min":0,"x_max":0,"o":"m 278 694 l 376 694 l 486 804 l 596 694 l 654 694 l 833 874 l 833 972 l 735 972 l 625 863 l 515 972 l 457 972 l 278 793 z m 278 417 l 417 417 l 417 139 l 278 139 l 278 0 l 694 0 l 694 139 l 556 139 l 556 417 l 694 417 l 694 556 l 278 556 z "},"ĩ":{"ha":833,"x_min":0,"x_max":0,"o":"m 278 694 l 376 694 l 486 804 l 596 694 l 654 694 l 833 874 l 833 972 l 735 972 l 625 863 l 515 972 l 457 972 l 278 793 z m 278 417 l 417 417 l 417 139 l 278 139 l 278 0 l 694 0 l 694 139 l 556 139 l 556 556 l 278 556 z "},"Ī":{"ha":833,"x_min":0,"x_max":0,"o":"m 278 833 l 694 833 l 694 972 l 278 972 z m 278 556 l 417 556 l 417 139 l 278 139 l 278 0 l 694 0 l 694 139 l 556 139 l 556 556 l 694 556 l 694 694 l 278 694 z "},"ī":{"ha":833,"x_min":0,"x_max":0,"o":"m 278 833 l 694 833 l 694 972 l 278 972 z m 278 556 l 417 556 l 417 139 l 278 139 l 278 0 l 694 0 l 694 139 l 556 139 l 556 694 l 278 694 z "},"Į":{"ha":833,"x_min":0,"x_max":0,"o":"m 278 833 l 417 833 l 417 139 l 278 139 l 278 0 l 417 0 l 417 -99 l 596 -278 l 694 -278 l 694 -179 l 556 -40 l 556 0 l 694 0 l 694 139 l 556 139 l 556 833 l 694 833 l 694 972 l 278 972 z "},"į":{"ha":833,"x_min":0,"x_max":0,"o":"m 278 556 l 417 556 l 417 139 l 278 139 l 278 0 l 417 0 l 417 -99 l 596 -278 l 694 -278 l 694 -179 l 556 -40 l 556 0 l 694 0 l 694 139 l 556 139 l 556 694 l 278 694 z m 417 833 l 556 833 l 556 972 l 417 972 z "},"İ":{"ha":833,"x_min":0,"x_max":0,"o":"m 278 556 l 417 556 l 417 139 l 278 139 l 278 0 l 694 0 l 694 139 l 556 139 l 556 556 l 694 556 l 694 694 l 278 694 z m 417 833 l 556 833 l 556 972 l 417 972 z "},"ı":{"ha":833,"x_min":0,"x_max":0,"o":"m 278 556 l 417 556 l 417 139 l 278 139 l 278 0 l 694 0 l 694 139 l 556 139 l 556 694 l 278 694 z "},"Ĳ":{"ha":833,"x_min":0,"x_max":0,"o":"m 139 972 l 139 0 l 278 0 l 278 972 z m 417 179 l 596 0 l 654 0 l 833 179 l 833 972 l 694 972 l 694 238 l 625 168 l 515 278 l 417 278 z "},"ĳ":{"ha":833,"x_min":0,"x_max":0,"o":"m 139 556 l 278 556 l 278 139 l 139 139 l 139 0 l 556 0 l 556 139 l 417 139 l 417 694 l 139 694 z m 278 833 l 417 833 l 417 972 l 278 972 z m 694 -40 l 556 -179 l 556 -278 l 654 -278 l 833 -99 l 833 694 l 694 694 z m 694 833 l 833 833 l 833 972 l 694 972 z "},"Ĵ":{"ha":833,"x_min":0,"x_max":0,"o":"m 139 179 l 318 0 l 515 0 l 694 179 l 694 556 l 556 556 l 556 238 l 457 139 l 376 139 l 238 278 l 139 278 z m 417 694 l 515 694 l 625 804 l 735 694 l 833 694 l 833 793 l 654 972 l 596 972 l 417 793 z "},"ĵ":{"ha":833,"x_min":0,"x_max":0,"o":"m 278 694 l 376 694 l 486 804 l 596 694 l 694 694 l 694 793 l 515 972 l 457 972 l 278 793 z m 417 -40 l 278 -179 l 278 -278 l 376 -278 l 556 -99 l 556 556 l 417 556 z "},"ĸ":{"ha":833,"x_min":0,"x_max":0,"o":"m 139 694 l 139 0 l 278 0 l 278 278 l 457 278 l 735 0 l 833 0 l 833 99 l 585 347 l 833 596 l 833 694 l 735 694 l 457 417 l 278 417 l 278 694 z "},"Ľ":{"ha":833,"x_min":0,"x_max":0,"o":"m 139 972 l 139 0 l 833 0 l 833 139 l 278 139 l 278 972 z m 556 793 l 417 654 l 417 556 l 515 556 l 694 735 l 694 972 l 556 972 z "},"ľ":{"ha":833,"x_min":0,"x_max":0,"o":"m 139 833 l 278 833 l 278 139 l 139 139 l 139 0 l 556 0 l 556 139 l 417 139 l 417 972 l 139 972 z m 694 793 l 556 654 l 556 556 l 654 556 l 833 735 l 833 972 l 694 972 z "},"Ŀ":{"ha":833,"x_min":0,"x_max":0,"o":"m 139 972 l 139 0 l 833 0 l 833 139 l 278 139 l 278 972 z m 694 417 l 833 417 l 833 556 l 694 556 z "},"ŀ":{"ha":833,"x_min":0,"x_max":0,"o":"m 139 833 l 278 833 l 278 139 l 139 139 l 139 0 l 556 0 l 556 139 l 417 139 l 417 972 l 139 972 z m 694 417 l 833 417 l 833 556 l 694 556 z "},"Ł":{"ha":833,"x_min":0,"x_max":0,"o":"m 139 417 l 278 417 l 278 0 l 833 0 l 833 139 l 417 139 l 417 556 l 556 556 l 556 694 l 417 694 l 417 972 l 278 972 l 278 556 l 139 556 z "},"ł":{"ha":833,"x_min":0,"x_max":0,"o":"m 278 833 l 417 833 l 417 556 l 278 556 l 278 417 l 417 417 l 417 139 l 278 139 l 278 0 l 694 0 l 694 139 l 556 139 l 556 556 l 694 556 l 694 694 l 556 694 l 556 972 l 278 972 z "},"Ń":{"ha":833,"x_min":0,"x_max":0,"o":"m 139 694 l 139 0 l 278 0 l 278 417 l 318 417 l 596 139 l 694 139 l 694 0 l 833 0 l 833 694 l 694 694 l 694 278 l 654 278 l 376 556 l 278 556 l 278 694 z m 417 694 l 515 694 l 694 874 l 694 972 l 596 972 l 417 793 z "},"ń":{"ha":833,"x_min":0,"x_max":0,"o":"m 139 694 l 139 0 l 278 0 l 278 556 l 596 556 l 694 457 l 694 0 l 833 0 l 833 515 l 654 694 l 556 694 l 556 735 l 694 874 l 694 972 l 596 972 l 417 793 l 417 694 z "},"Ň":{"ha":833,"x_min":0,"x_max":0,"o":"m 139 694 l 139 0 l 278 0 l 278 417 l 318 417 l 596 139 l 694 139 l 694 0 l 833 0 l 833 694 l 694 694 l 694 278 l 654 278 l 376 556 l 278 556 l 278 694 z m 278 874 l 457 694 l 515 694 l 694 874 l 694 972 l 596 972 l 486 863 l 376 972 l 278 972 z "},"ň":{"ha":833,"x_min":0,"x_max":0,"o":"m 139 694 l 139 0 l 278 0 l 278 556 l 596 556 l 694 457 l 694 0 l 833 0 l 833 515 l 654 694 l 556 694 l 556 735 l 694 874 l 694 972 l 596 972 l 486 863 l 376 972 l 278 972 l 278 874 l 417 735 l 417 694 z "},"ŉ":{"ha":833,"x_min":0,"x_max":0,"o":"m 139 972 l 139 556 l 278 556 l 278 972 z m 417 694 l 417 0 l 556 0 l 556 556 l 596 556 l 694 457 l 694 0 l 833 0 l 833 515 l 654 694 z "},"Ŋ":{"ha":833,"x_min":0,"x_max":0,"o":"m 139 972 l 139 0 l 278 0 l 278 556 l 318 556 l 596 278 l 694 278 l 694 -40 l 596 -139 l 278 -139 l 278 -278 l 654 -278 l 833 -99 l 833 972 l 694 972 l 694 417 l 654 417 l 376 694 l 278 694 l 278 972 z "},"ŋ":{"ha":833,"x_min":0,"x_max":0,"o":"m 139 694 l 139 0 l 278 0 l 278 556 l 596 556 l 694 457 l 694 -40 l 596 -139 l 278 -139 l 278 -278 l 654 -278 l 833 -99 l 833 515 l 654 694 z "},"Ō":{"ha":833,"x_min":0,"x_max":0,"o":"m 139 515 l 139 179 l 318 0 l 654 0 l 833 179 l 833 515 l 654 694 l 318 694 z m 278 833 l 694 833 l 694 972 l 278 972 z m 376 556 l 596 556 l 694 457 l 694 238 l 596 139 l 376 139 l 278 238 l 278 457 z "},"ō":{"ha":833,"x_min":0,"x_max":0,"o":"m 139 376 l 139 179 l 318 0 l 654 0 l 833 179 l 833 376 l 654 556 l 318 556 z m 278 694 l 694 694 l 694 833 l 278 833 z m 376 417 l 596 417 l 694 318 l 694 238 l 596 139 l 376 139 l 278 238 l 278 318 z "},"Œ":{"ha":833,"x_min":0,"x_max":0,"o":"m 139 793 l 139 179 l 318 0 l 833 0 l 833 139 l 556 139 l 556 417 l 694 417 l 694 556 l 556 556 l 556 833 l 833 833 l 833 972 l 318 972 z m 376 833 l 417 833 l 417 139 l 376 139 l 278 238 l 278 735 z "},"œ":{"ha":833,"x_min":0,"x_max":0,"o":"m 139 515 l 139 179 l 318 0 l 376 0 l 486 110 l 596 0 l 833 0 l 833 139 l 654 139 l 556 238 l 556 278 l 833 278 l 833 515 l 654 694 l 596 694 l 486 585 l 376 694 l 318 694 z m 278 457 l 347 526 l 417 457 l 417 238 l 347 168 l 278 238 z m 556 457 l 625 526 l 694 457 l 694 417 l 556 417 z "},"Ŕ":{"ha":833,"x_min":0,"x_max":0,"o":"m 139 694 l 139 0 l 278 0 l 278 278 l 556 278 l 556 179 l 735 0 l 833 0 l 833 99 l 694 238 l 694 318 l 833 457 l 833 515 l 654 694 l 556 694 l 556 735 l 694 874 l 694 972 l 596 972 l 417 793 l 417 694 z m 278 556 l 596 556 l 665 486 l 596 417 l 278 417 z "},"ŕ":{"ha":833,"x_min":0,"x_max":0,"o":"m 278 694 l 278 0 l 417 0 l 417 417 l 515 417 l 654 556 l 833 556 l 833 694 l 694 694 l 694 735 l 833 874 l 833 972 l 735 972 l 556 793 l 556 654 l 457 556 l 417 556 l 417 694 z "},"Ř":{"ha":833,"x_min":0,"x_max":0,"o":"m 139 694 l 139 0 l 278 0 l 278 278 l 556 278 l 556 179 l 735 0 l 833 0 l 833 99 l 694 238 l 694 318 l 833 457 l 833 515 l 654 694 l 556 694 l 556 735 l 694 874 l 694 972 l 596 972 l 486 863 l 376 972 l 278 972 l 278 874 l 417 735 l 417 694 z m 278 556 l 596 556 l 665 486 l 596 417 l 278 417 z "},"ř":{"ha":833,"x_min":0,"x_max":0,"o":"m 278 694 l 278 0 l 417 0 l 417 417 l 515 417 l 654 556 l 833 556 l 833 694 l 694 694 l 694 735 l 833 874 l 833 972 l 735 972 l 625 863 l 515 972 l 417 972 l 417 874 l 556 735 l 556 654 l 457 556 l 417 556 l 417 694 z "},"ś":{"ha":833,"x_min":0,"x_max":0,"o":"m 139 457 l 318 278 l 596 278 l 665 208 l 596 139 l 139 139 l 139 0 l 654 0 l 833 179 l 833 238 l 654 417 l 376 417 l 307 486 l 376 556 l 833 556 l 833 694 l 556 694 l 556 735 l 694 874 l 694 972 l 596 972 l 417 793 l 417 694 l 318 694 l 139 515 z "},"Ş":{"ha":833,"x_min":0,"x_max":0,"o":"m 139 793 l 139 596 l 318 417 l 596 417 l 694 318 l 694 238 l 596 139 l 376 139 l 238 278 l 139 278 l 139 179 l 318 0 l 417 0 l 417 -40 l 278 -179 l 278 -278 l 376 -278 l 556 -99 l 556 0 l 654 0 l 833 179 l 833 376 l 654 556 l 376 556 l 278 654 l 278 735 l 376 833 l 596 833 l 735 694 l 833 694 l 833 793 l 654 972 l 318 972 z "},"ş":{"ha":833,"x_min":0,"x_max":0,"o":"m 139 457 l 318 278 l 596 278 l 665 208 l 596 139 l 139 139 l 139 0 l 417 0 l 417 -40 l 278 -179 l 278 -278 l 376 -278 l 556 -99 l 556 0 l 654 0 l 833 179 l 833 238 l 654 417 l 376 417 l 307 486 l 376 556 l 833 556 l 833 694 l 318 694 l 139 515 z "},"š":{"ha":833,"x_min":0,"x_max":0,"o":"m 139 457 l 318 278 l 596 278 l 665 208 l 596 139 l 139 139 l 139 0 l 654 0 l 833 179 l 833 238 l 654 417 l 376 417 l 307 486 l 376 556 l 833 556 l 833 694 l 556 694 l 556 735 l 694 874 l 694 972 l 596 972 l 486 863 l 376 972 l 278 972 l 278 874 l 417 735 l 417 694 l 318 694 l 139 515 z "},"Ţ":{"ha":833,"x_min":0,"x_max":0,"o":"m 139 833 l 417 833 l 417 40 l 526 -69 l 417 -179 l 417 -278 l 515 -278 l 694 -99 l 694 -40 l 556 99 l 556 833 l 833 833 l 833 972 l 139 972 z "},"ţ":{"ha":833,"x_min":0,"x_max":0,"o":"m 278 556 l 417 556 l 417 179 l 556 40 l 556 -40 l 417 -179 l 417 -278 l 515 -278 l 694 -99 l 694 40 l 833 179 l 833 278 l 735 278 l 625 168 l 556 238 l 556 556 l 694 556 l 694 694 l 556 694 l 556 972 l 417 972 l 417 694 l 278 694 z "},"Ť":{"ha":833,"x_min":0,"x_max":0,"o":"m 139 556 l 417 556 l 417 0 l 556 0 l 556 556 l 833 556 l 833 694 l 556 694 l 556 735 l 694 874 l 694 972 l 596 972 l 486 863 l 376 972 l 278 972 l 278 874 l 417 735 l 417 694 l 139 694 z "},"ť":{"ha":833,"x_min":0,"x_max":0,"o":"m 139 556 l 278 556 l 278 179 l 457 0 l 556 0 l 556 99 l 417 238 l 417 556 l 556 556 l 556 694 l 417 694 l 417 972 l 278 972 l 278 694 l 139 694 z m 694 972 l 694 694 l 833 694 l 833 972 z "},"Ū":{"ha":833,"x_min":0,"x_max":0,"o":"m 139 694 l 139 179 l 318 0 l 654 0 l 833 179 l 833 694 l 694 694 l 694 238 l 596 139 l 376 139 l 278 238 l 278 694 z m 278 833 l 694 833 l 694 972 l 278 972 z "},"ū":{"ha":833,"x_min":0,"x_max":0,"o":"m 139 556 l 139 179 l 318 0 l 833 0 l 833 556 l 694 556 l 694 139 l 376 139 l 278 238 l 278 556 z m 278 694 l 694 694 l 694 833 l 278 833 z "},"Ů":{"ha":833,"x_min":0,"x_max":0,"o":"m 139 694 l 139 179 l 318 0 l 654 0 l 833 179 l 833 694 l 694 694 l 694 238 l 596 139 l 376 139 l 278 238 l 278 694 z m 417 833 l 556 833 l 556 972 l 417 972 z "},"ů":{"ha":833,"x_min":0,"x_max":0,"o":"m 139 694 l 139 179 l 318 0 l 833 0 l 833 694 l 694 694 l 694 139 l 376 139 l 278 238 l 278 694 z m 417 833 l 556 833 l 556 972 l 417 972 z "},"Ų":{"ha":833,"x_min":0,"x_max":0,"o":"m 139 972 l 139 179 l 318 0 l 417 0 l 417 -99 l 596 -278 l 694 -278 l 694 -179 l 556 -40 l 556 0 l 654 0 l 833 179 l 833 972 l 694 972 l 694 238 l 596 139 l 376 139 l 278 238 l 278 972 z "},"ų":{"ha":833,"x_min":0,"x_max":0,"o":"m 139 694 l 139 179 l 318 0 l 556 0 l 556 -99 l 735 -278 l 833 -278 l 833 -179 l 694 -40 l 694 0 l 833 0 l 833 694 l 694 694 l 694 139 l 376 139 l 278 238 l 278 694 z "},"Ŵ":{"ha":833,"x_min":0,"x_max":0,"o":"m 139 556 l 139 179 l 318 0 l 376 0 l 486 110 l 596 0 l 654 0 l 833 179 l 833 556 l 694 556 l 694 238 l 625 168 l 556 238 l 556 417 l 417 417 l 417 238 l 347 168 l 278 238 l 278 556 z m 278 694 l 376 694 l 486 804 l 596 694 l 694 694 l 694 793 l 515 972 l 457 972 l 278 793 z "},"ŵ":{"ha":833,"x_min":0,"x_max":0,"o":"m 139 556 l 139 179 l 318 0 l 376 0 l 486 110 l 596 0 l 654 0 l 833 179 l 833 556 l 694 556 l 694 238 l 625 168 l 515 278 l 457 278 l 347 168 l 278 238 l 278 556 z m 278 694 l 376 694 l 486 804 l 596 694 l 694 694 l 694 793 l 515 972 l 457 972 l 278 793 z "},"Ŷ":{"ha":833,"x_min":0,"x_max":0,"o":"m 139 457 l 417 179 l 417 0 l 556 0 l 556 179 l 833 457 l 833 556 l 735 556 l 486 307 l 238 556 l 139 556 z m 278 694 l 376 694 l 486 804 l 596 694 l 694 694 l 694 793 l 515 972 l 457 972 l 278 793 z "},"ŷ":{"ha":833,"x_min":0,"x_max":0,"o":"m 139 556 l 139 179 l 318 0 l 694 0 l 694 -40 l 596 -139 l 278 -139 l 278 -278 l 654 -278 l 833 -99 l 833 556 l 694 556 l 694 139 l 376 139 l 278 238 l 278 556 z m 278 694 l 376 694 l 486 804 l 596 694 l 694 694 l 694 793 l 515 972 l 457 972 l 278 793 z "},"Ÿ":{"ha":833,"x_min":0,"x_max":0,"o":"m 139 596 l 417 318 l 417 0 l 556 0 l 556 318 l 833 596 l 833 694 l 735 694 l 486 446 l 238 694 l 139 694 z m 278 833 l 417 833 l 417 972 l 278 972 z m 556 833 l 694 833 l 694 972 l 556 972 z "},"Ź":{"ha":833,"x_min":0,"x_max":0,"o":"m 139 556 l 694 556 l 694 515 l 596 417 l 318 417 l 139 238 l 139 0 l 833 0 l 833 139 l 278 139 l 278 179 l 376 278 l 654 278 l 833 457 l 833 694 l 556 694 l 556 735 l 694 874 l 694 972 l 596 972 l 417 793 l 417 694 l 139 694 z "},"ź":{"ha":833,"x_min":0,"x_max":0,"o":"m 139 556 l 556 556 l 556 515 l 278 238 l 278 139 l 139 139 l 139 0 l 833 0 l 833 139 l 417 139 l 417 179 l 694 457 l 694 556 l 833 556 l 833 694 l 556 694 l 556 735 l 694 874 l 694 972 l 596 972 l 417 793 l 417 694 l 139 694 z "},"Ż":{"ha":833,"x_min":0,"x_max":0,"o":"m 139 556 l 694 556 l 694 515 l 596 417 l 318 417 l 139 238 l 139 0 l 833 0 l 833 139 l 278 139 l 278 179 l 376 278 l 654 278 l 833 457 l 833 694 l 139 694 z m 417 833 l 556 833 l 556 972 l 417 972 z "},"ż":{"ha":833,"x_min":0,"x_max":0,"o":"m 139 556 l 556 556 l 556 515 l 278 238 l 278 139 l 139 139 l 139 0 l 833 0 l 833 139 l 417 139 l 417 179 l 694 457 l 694 556 l 833 556 l 833 694 l 139 694 z m 417 833 l 556 833 l 556 972 l 417 972 z "},"Ž":{"ha":833,"x_min":0,"x_max":0,"o":"m 139 556 l 694 556 l 694 515 l 596 417 l 318 417 l 139 238 l 139 0 l 833 0 l 833 139 l 278 139 l 278 179 l 376 278 l 654 278 l 833 457 l 833 694 l 556 694 l 556 735 l 694 874 l 694 972 l 596 972 l 486 863 l 376 972 l 278 972 l 278 874 l 417 735 l 417 694 l 139 694 z "},"ž":{"ha":833,"x_min":0,"x_max":0,"o":"m 139 556 l 556 556 l 556 515 l 278 238 l 278 139 l 139 139 l 139 0 l 833 0 l 833 139 l 417 139 l 417 179 l 694 457 l 694 556 l 833 556 l 833 694 l 556 694 l 556 735 l 694 874 l 694 972 l 596 972 l 486 863 l 376 972 l 278 972 l 278 874 l 417 735 l 417 694 l 139 694 z "},"ſ":{"ha":833,"x_min":0,"x_max":0,"o":"m 417 793 l 417 0 l 556 0 l 556 735 l 694 874 l 694 972 l 596 972 z "},"ƈ":{"ha":833,"x_min":0,"x_max":0,"o":"m 139 515 l 139 179 l 318 0 l 833 0 l 833 139 l 376 139 l 278 238 l 278 457 l 376 556 l 833 556 l 833 694 l 694 694 l 694 833 l 833 833 l 833 972 l 556 972 l 556 694 l 318 694 z "},"Ǝ":{"ha":833,"x_min":0,"x_max":0,"o":"m 139 833 l 694 833 l 694 556 l 278 556 l 278 417 l 694 417 l 694 139 l 139 139 l 139 0 l 833 0 l 833 972 l 139 972 z "},"Ə":{"ha":833,"x_min":0,"x_max":0,"o":"m 139 694 l 238 694 l 376 833 l 596 833 l 694 735 l 694 556 l 139 556 l 139 179 l 318 0 l 654 0 l 833 179 l 833 793 l 654 972 l 318 972 l 139 793 z m 278 417 l 694 417 l 694 238 l 596 139 l 376 139 l 278 238 z "},"ƒ":{"ha":833,"x_min":0,"x_max":0,"o":"m 278 417 l 417 417 l 417 -40 l 278 -179 l 278 -278 l 376 -278 l 556 -99 l 556 417 l 694 417 l 694 556 l 556 556 l 556 735 l 694 874 l 694 972 l 596 972 l 417 793 l 417 556 l 278 556 z "},"ƙ":{"ha":833,"x_min":0,"x_max":0,"o":"m 278 793 l 278 0 l 417 0 l 417 278 l 457 278 l 735 0 l 833 0 l 833 99 l 585 347 l 833 596 l 833 694 l 735 694 l 457 417 l 417 417 l 417 735 l 515 833 l 694 833 l 694 972 l 457 972 z "},"ƛ":{"ha":833,"x_min":0,"x_max":0,"o":"m 139 833 l 318 833 l 417 735 l 417 694 l 278 694 l 278 556 l 417 556 l 417 515 l 278 376 l 278 238 l 139 99 l 139 0 l 238 0 l 417 179 l 417 318 l 486 388 l 556 318 l 556 179 l 735 0 l 833 0 l 833 99 l 694 238 l 694 376 l 556 515 l 556 556 l 694 556 l 694 694 l 556 694 l 556 793 l 376 972 l 139 972 z "},"ƞ":{"ha":833,"x_min":0,"x_max":0,"o":"m 139 694 l 139 0 l 278 0 l 278 556 l 596 556 l 694 457 l 694 -278 l 833 -278 l 833 515 l 654 694 z "},"ƥ":{"ha":833,"x_min":0,"x_max":0,"o":"m 139 793 l 139 -278 l 278 -278 l 278 0 l 654 0 l 833 179 l 833 515 l 654 694 l 278 694 l 278 735 l 376 833 l 556 833 l 556 972 l 318 972 z m 278 556 l 596 556 l 694 457 l 694 238 l 596 139 l 278 139 z "},"Ƨ":{"ha":833,"x_min":0,"x_max":0,"o":"m 139 694 l 238 694 l 376 833 l 596 833 l 694 735 l 694 654 l 596 556 l 318 556 l 139 376 l 139 179 l 318 0 l 654 0 l 833 179 l 833 278 l 735 278 l 596 139 l 376 139 l 278 238 l 278 318 l 376 417 l 654 417 l 833 596 l 833 793 l 654 972 l 318 972 l 139 793 z "},"ƨ":{"ha":833,"x_min":0,"x_max":0,"o":"m 139 179 l 318 0 l 694 0 l 694 139 l 376 139 l 307 208 l 376 278 l 654 278 l 833 457 l 833 515 l 654 694 l 278 694 l 278 556 l 596 556 l 665 486 l 596 417 l 318 417 l 139 238 z "},"ƫ":{"ha":833,"x_min":0,"x_max":0,"o":"m 278 556 l 417 556 l 417 179 l 526 69 l 457 0 l 278 0 l 278 -139 l 515 -139 l 694 40 l 694 99 l 556 238 l 556 556 l 694 556 l 694 694 l 556 694 l 556 972 l 417 972 l 417 694 l 278 694 z "},"ƭ":{"ha":833,"x_min":0,"x_max":0,"o":"m 278 556 l 417 556 l 417 179 l 596 0 l 694 0 l 694 99 l 556 238 l 556 556 l 694 556 l 694 694 l 556 694 l 556 735 l 694 874 l 694 972 l 596 972 l 417 793 l 417 694 l 278 694 z "},"ƻ":{"ha":833,"x_min":0,"x_max":0,"o":"m 139 694 l 238 694 l 376 833 l 596 833 l 694 735 l 694 654 l 625 585 l 515 694 l 417 694 l 417 596 l 526 486 l 457 417 l 318 417 l 139 238 l 139 0 l 833 0 l 833 139 l 278 139 l 278 179 l 376 278 l 515 278 l 625 388 l 735 278 l 833 278 l 833 376 l 724 486 l 833 596 l 833 793 l 654 972 l 318 972 l 139 793 z "},"ǀ":{"ha":833,"x_min":0,"x_max":0,"o":"m 417 972 l 417 -278 l 556 -278 l 556 972 z "},"ǁ":{"ha":833,"x_min":0,"x_max":0,"o":"m 278 972 l 278 -278 l 417 -278 l 417 972 z m 556 972 l 556 -278 l 694 -278 l 694 972 z "},"ǂ":{"ha":833,"x_min":0,"x_max":0,"o":"m 139 417 l 417 417 l 417 278 l 139 278 l 139 139 l 417 139 l 417 -278 l 556 -278 l 556 139 l 833 139 l 833 278 l 556 278 l 556 417 l 833 417 l 833 556 l 556 556 l 556 972 l 417 972 l 417 556 l 139 556 z "},"ǃ":{"ha":833,"x_min":0,"x_max":0,"o":"m 417 972 l 417 278 l 556 278 l 556 972 z m 417 0 l 556 0 l 556 139 l 417 139 z "},"ǝ":{"ha":833,"x_min":0,"x_max":0,"o":"m 139 417 l 139 179 l 318 0 l 654 0 l 833 179 l 833 515 l 654 694 l 278 694 l 278 556 l 596 556 l 694 457 l 694 417 z m 278 278 l 694 278 l 694 238 l 596 139 l 376 139 l 278 238 z "},"Ǣ":{"ha":833,"x_min":0,"x_max":0,"o":"m 139 515 l 139 0 l 278 0 l 278 139 l 417 139 l 417 0 l 833 0 l 833 139 l 556 139 l 556 278 l 694 278 l 694 417 l 556 417 l 556 556 l 833 556 l 833 694 l 318 694 z m 278 833 l 694 833 l 694 972 l 278 972 z m 376 556 l 417 556 l 417 278 l 278 278 l 278 457 z "},"ǣ":{"ha":833,"x_min":0,"x_max":0,"o":"m 139 179 l 318 0 l 694 0 l 694 139 l 556 139 l 556 278 l 833 278 l 833 515 l 654 694 l 596 694 l 486 585 l 376 694 l 278 694 l 278 596 l 417 457 l 417 417 l 318 417 l 139 238 z m 278 833 l 694 833 l 694 972 l 278 972 z m 376 139 l 307 208 l 376 278 l 417 278 l 417 139 z m 556 417 l 556 457 l 625 526 l 694 457 l 694 417 z "},"ǰ":{"ha":833,"x_min":0,"x_max":0,"o":"m 278 874 l 457 694 l 515 694 l 694 874 l 694 972 l 596 972 l 486 863 l 376 972 l 278 972 z m 417 -40 l 278 -179 l 278 -278 l 376 -278 l 556 -99 l 556 556 l 417 556 z "},"Ȳ":{"ha":833,"x_min":0,"x_max":0,"o":"m 139 596 l 417 318 l 417 0 l 556 0 l 556 318 l 833 596 l 833 694 l 735 694 l 486 446 l 238 694 l 139 694 z m 278 833 l 694 833 l 694 972 l 278 972 z "},"ȳ":{"ha":833,"x_min":0,"x_max":0,"o":"m 139 694 l 139 179 l 318 0 l 694 0 l 694 -40 l 596 -139 l 278 -139 l 278 -278 l 654 -278 l 833 -99 l 833 694 l 694 694 l 694 139 l 376 139 l 278 238 l 278 694 z m 278 833 l 694 833 l 694 972 l 278 972 z "},"ȷ":{"ha":833,"x_min":0,"x_max":0,"o":"m 417 -40 l 278 -179 l 278 -278 l 376 -278 l 556 -99 l 556 694 l 417 694 z "},"ȿ":{"ha":833,"x_min":0,"x_max":0,"o":"m 139 457 l 318 278 l 596 278 l 665 208 l 596 139 l 139 139 l 139 0 l 417 0 l 417 -99 l 596 -278 l 833 -278 l 833 -139 l 654 -139 l 556 -40 l 556 0 l 654 0 l 833 179 l 833 238 l 654 417 l 376 417 l 307 486 l 376 556 l 833 556 l 833 694 l 318 694 l 139 515 z "},"ɀ":{"ha":833,"x_min":0,"x_max":0,"o":"m 139 556 l 556 556 l 556 515 l 278 238 l 278 139 l 139 139 l 139 0 l 318 0 l 596 -278 l 833 -278 l 833 -139 l 654 -139 l 417 99 l 417 179 l 694 457 l 694 556 l 833 556 l 833 694 l 139 694 z "},"Ʌ":{"ha":833,"x_min":0,"x_max":0,"o":"m 278 515 l 139 376 l 139 0 l 278 0 l 278 318 l 417 457 l 417 596 l 486 665 l 556 596 l 556 457 l 694 318 l 694 0 l 833 0 l 833 376 l 694 515 l 694 654 l 556 793 l 556 972 l 417 972 l 417 793 l 278 654 z "},"ɐ":{"ha":833,"x_min":0,"x_max":0,"o":"m 139 694 l 139 179 l 318 0 l 694 0 l 694 139 l 376 139 l 278 238 l 278 278 l 654 278 l 833 457 l 833 515 l 654 694 z m 278 556 l 596 556 l 665 486 l 596 417 l 278 417 z "},"ɑ":{"ha":833,"x_min":0,"x_max":0,"o":"m 139 515 l 139 179 l 318 0 l 515 0 l 654 139 l 694 139 l 694 0 l 833 0 l 833 694 l 318 694 z m 376 556 l 694 556 l 694 278 l 596 278 l 457 139 l 376 139 l 278 238 l 278 457 z "},"ɒ":{"ha":833,"x_min":0,"x_max":0,"o":"m 139 694 l 139 0 l 654 0 l 833 179 l 833 515 l 654 694 l 457 694 l 318 556 l 278 556 l 278 694 z m 278 417 l 376 417 l 515 556 l 596 556 l 694 457 l 694 238 l 596 139 l 278 139 z "},"ɓ":{"ha":833,"x_min":0,"x_max":0,"o":"m 139 793 l 139 0 l 654 0 l 833 179 l 833 515 l 654 694 l 278 694 l 278 735 l 376 833 l 556 833 l 556 972 l 318 972 z m 278 556 l 596 556 l 694 457 l 694 238 l 596 139 l 278 139 z "},"ɔ":{"ha":833,"x_min":0,"x_max":0,"o":"m 139 556 l 596 556 l 694 457 l 694 238 l 596 139 l 139 139 l 139 0 l 654 0 l 833 179 l 833 515 l 654 694 l 139 694 z "},"ɕ":{"ha":833,"x_min":0,"x_max":0,"o":"m 139 515 l 139 179 l 318 0 l 417 0 l 417 -139 l 556 -139 l 556 0 l 654 0 l 833 179 l 833 238 l 654 417 l 596 417 l 417 238 l 417 139 l 376 139 l 278 238 l 278 457 l 376 556 l 833 556 l 833 694 l 318 694 z m 556 139 l 556 179 l 625 249 l 665 208 l 596 139 z "},"ɖ":{"ha":833,"x_min":0,"x_max":0,"o":"m 139 515 l 139 179 l 318 0 l 556 0 l 556 -99 l 735 -278 l 833 -278 l 833 -179 l 694 -40 l 694 972 l 556 972 l 556 694 l 318 694 z m 376 556 l 556 556 l 556 139 l 376 139 l 278 238 l 278 457 z "},"ɗ":{"ha":833,"x_min":0,"x_max":0,"o":"m 139 515 l 139 179 l 318 0 l 694 0 l 694 735 l 833 874 l 833 972 l 735 972 l 556 793 l 556 694 l 318 694 z m 376 556 l 556 556 l 556 139 l 376 139 l 278 238 l 278 457 z "},"ɘ":{"ha":833,"x_min":0,"x_max":0,"o":"m 139 515 l 139 278 l 694 278 l 694 238 l 596 139 l 278 139 l 278 0 l 654 0 l 833 179 l 833 515 l 654 694 l 318 694 z m 376 556 l 596 556 l 694 457 l 694 417 l 278 417 l 278 457 z "},"ə":{"ha":833,"x_min":0,"x_max":0,"o":"m 139 417 l 139 179 l 318 0 l 654 0 l 833 179 l 833 515 l 654 694 l 278 694 l 278 556 l 596 556 l 694 457 l 694 417 z m 278 278 l 694 278 l 694 238 l 596 139 l 376 139 l 278 238 z "},"ɚ":{"ha":833,"x_min":0,"x_max":0,"o":"m 139 556 l 318 556 l 417 457 l 417 417 l 139 417 l 139 179 l 318 0 l 376 0 l 515 139 l 654 139 l 833 318 l 833 417 l 735 417 l 596 278 l 556 278 l 556 515 l 376 694 l 139 694 z m 278 278 l 417 278 l 417 238 l 347 168 l 278 238 z "},"ɛ":{"ha":833,"x_min":0,"x_max":0,"o":"m 139 457 l 249 347 l 139 238 l 139 179 l 318 0 l 833 0 l 833 139 l 376 139 l 307 208 l 376 278 l 694 278 l 694 417 l 376 417 l 307 486 l 376 556 l 833 556 l 833 694 l 318 694 l 139 515 z "},"ɜ":{"ha":833,"x_min":0,"x_max":0,"o":"m 139 556 l 596 556 l 665 486 l 596 417 l 278 417 l 278 278 l 596 278 l 665 208 l 596 139 l 139 139 l 139 0 l 654 0 l 833 179 l 833 238 l 724 347 l 833 457 l 833 515 l 654 694 l 139 694 z "},"ɝ":{"ha":833,"x_min":0,"x_max":0,"o":"m 139 556 l 318 556 l 388 486 l 318 417 l 139 417 l 139 278 l 318 278 l 388 208 l 318 139 l 139 139 l 139 0 l 376 0 l 515 139 l 654 139 l 833 318 l 833 417 l 735 417 l 596 278 l 515 278 l 446 347 l 556 457 l 556 515 l 376 694 l 139 694 z "},"ɞ":{"ha":833,"x_min":0,"x_max":0,"o":"m 139 515 l 139 179 l 318 0 l 654 0 l 833 179 l 833 238 l 724 347 l 833 457 l 833 515 l 654 694 l 318 694 z m 376 556 l 596 556 l 665 486 l 596 417 l 417 417 l 417 278 l 596 278 l 665 208 l 596 139 l 376 139 l 278 238 l 278 457 z "},"ɟ":{"ha":833,"x_min":0,"x_max":0,"o":"m 278 139 l 417 139 l 417 -40 l 278 -179 l 278 -278 l 376 -278 l 556 -99 l 556 139 l 694 139 l 694 278 l 556 278 l 556 694 l 417 694 l 417 278 l 278 278 z "},"ɠ":{"ha":833,"x_min":0,"x_max":0,"o":"m 139 515 l 139 179 l 318 0 l 556 0 l 556 -40 l 457 -139 l 278 -139 l 278 -278 l 515 -278 l 694 -99 l 694 735 l 833 874 l 833 972 l 735 972 l 556 793 l 556 694 l 318 694 z m 376 556 l 556 556 l 556 139 l 376 139 l 278 238 l 278 457 z "},"ɡ":{"ha":833,"x_min":0,"x_max":0,"o":"m 139 515 l 139 179 l 318 0 l 694 0 l 694 -40 l 596 -139 l 278 -139 l 278 -278 l 654 -278 l 833 -99 l 833 694 l 318 694 z m 376 556 l 694 556 l 694 139 l 376 139 l 278 238 l 278 457 z "},"ɢ":{"ha":833,"x_min":0,"x_max":0,"o":"m 139 515 l 139 179 l 318 0 l 833 0 l 833 417 l 556 417 l 556 278 l 694 278 l 694 139 l 376 139 l 278 238 l 278 457 l 376 556 l 833 556 l 833 694 l 318 694 z "},"ɣ":{"ha":833,"x_min":0,"x_max":0,"o":"m 139 596 l 278 457 l 278 318 l 388 208 l 278 99 l 278 -99 l 457 -278 l 515 -278 l 694 -99 l 694 99 l 585 208 l 694 318 l 694 457 l 833 596 l 833 694 l 735 694 l 556 515 l 556 376 l 486 307 l 417 376 l 417 515 l 238 694 l 139 694 z m 417 40 l 486 110 l 556 40 l 556 -40 l 486 -110 l 417 -40 z "},"ɤ":{"ha":833,"x_min":0,"x_max":0,"o":"m 139 556 l 318 556 l 388 486 l 278 376 l 278 179 l 457 0 l 515 0 l 694 179 l 694 376 l 585 486 l 654 556 l 833 556 l 833 694 l 596 694 l 486 585 l 376 694 l 139 694 z m 417 318 l 486 388 l 556 318 l 556 238 l 486 168 l 417 238 z "},"ɥ":{"ha":833,"x_min":0,"x_max":0,"o":"m 139 694 l 139 179 l 318 0 l 694 0 l 694 -278 l 833 -278 l 833 694 l 694 694 l 694 139 l 376 139 l 278 238 l 278 694 z "},"ɦ":{"ha":833,"x_min":0,"x_max":0,"o":"m 139 793 l 139 0 l 278 0 l 278 556 l 596 556 l 694 457 l 694 0 l 833 0 l 833 515 l 654 694 l 278 694 l 278 735 l 376 833 l 556 833 l 556 972 l 318 972 z "},"ɧ":{"ha":833,"x_min":0,"x_max":0,"o":"m 139 793 l 139 0 l 278 0 l 278 556 l 596 556 l 694 457 l 694 -40 l 596 -139 l 417 -139 l 417 -278 l 654 -278 l 833 -99 l 833 515 l 654 694 l 278 694 l 278 735 l 376 833 l 556 833 l 556 972 l 318 972 z "},"ɨ":{"ha":833,"x_min":0,"x_max":0,"o":"m 278 556 l 417 556 l 417 417 l 278 417 l 278 278 l 417 278 l 417 139 l 278 139 l 278 0 l 694 0 l 694 139 l 556 139 l 556 278 l 694 278 l 694 417 l 556 417 l 556 694 l 278 694 z m 417 833 l 556 833 l 556 972 l 417 972 z "},"ɩ":{"ha":833,"x_min":0,"x_max":0,"o":"m 278 556 l 417 556 l 417 179 l 596 0 l 694 0 l 694 99 l 556 238 l 556 694 l 278 694 z "},"ɪ":{"ha":833,"x_min":0,"x_max":0,"o":"m 278 556 l 417 556 l 417 139 l 278 139 l 278 0 l 694 0 l 694 139 l 556 139 l 556 556 l 694 556 l 694 694 l 278 694 z "},"ɫ":{"ha":833,"x_min":0,"x_max":0,"o":"m 139 417 l 238 417 l 376 556 l 417 556 l 417 139 l 278 139 l 278 0 l 694 0 l 694 139 l 556 139 l 556 417 l 654 417 l 833 596 l 833 694 l 735 694 l 596 556 l 556 556 l 556 972 l 278 972 l 278 833 l 417 833 l 417 694 l 318 694 l 139 515 z "},"ɬ":{"ha":833,"x_min":0,"x_max":0,"o":"m 139 457 l 318 278 l 417 278 l 417 139 l 278 139 l 278 0 l 694 0 l 694 139 l 556 139 l 556 278 l 654 278 l 833 457 l 833 556 l 735 556 l 596 417 l 556 417 l 556 972 l 278 972 l 278 833 l 417 833 l 417 694 l 318 694 l 139 515 z m 376 417 l 307 486 l 376 556 l 417 556 l 417 417 z "},"ɭ":{"ha":833,"x_min":0,"x_max":0,"o":"m 278 833 l 417 833 l 417 -99 l 596 -278 l 694 -278 l 694 -179 l 556 -40 l 556 972 l 278 972 z "},"ɮ":{"ha":833,"x_min":0,"x_max":0,"o":"m 139 833 l 278 833 l 278 139 l 139 139 l 139 0 l 556 0 l 556 139 l 417 139 l 417 556 l 694 556 l 694 515 l 556 376 l 556 318 l 694 179 l 694 -40 l 596 -139 l 417 -139 l 417 -278 l 654 -278 l 833 -99 l 833 238 l 724 347 l 833 457 l 833 694 l 417 694 l 417 972 l 139 972 z "},"ɯ":{"ha":833,"x_min":0,"x_max":0,"o":"m 139 694 l 139 179 l 318 0 l 376 0 l 486 110 l 596 0 l 833 0 l 833 694 l 694 694 l 694 139 l 654 139 l 556 238 l 556 694 l 417 694 l 417 238 l 347 168 l 278 238 l 278 694 z "},"ɰ":{"ha":833,"x_min":0,"x_max":0,"o":"m 139 694 l 139 179 l 318 0 l 376 0 l 486 110 l 596 0 l 694 0 l 694 -278 l 833 -278 l 833 694 l 694 694 l 694 139 l 654 139 l 556 238 l 556 694 l 417 694 l 417 238 l 347 168 l 278 238 l 278 694 z "},"ɱ":{"ha":833,"x_min":0,"x_max":0,"o":"m 139 694 l 139 0 l 278 0 l 278 556 l 318 556 l 417 457 l 417 0 l 556 0 l 556 457 l 625 526 l 694 457 l 694 -40 l 556 -179 l 556 -278 l 654 -278 l 833 -99 l 833 515 l 654 694 l 596 694 l 486 585 l 376 694 z "},"ɲ":{"ha":833,"x_min":0,"x_max":0,"o":"m 278 -40 l 139 -179 l 139 -278 l 238 -278 l 417 -99 l 417 556 l 596 556 l 694 457 l 694 0 l 833 0 l 833 515 l 654 694 l 278 694 z "},"ɳ":{"ha":833,"x_min":0,"x_max":0,"o":"m 139 694 l 139 0 l 278 0 l 278 556 l 457 556 l 556 457 l 556 -99 l 735 -278 l 833 -278 l 833 -179 l 694 -40 l 694 515 l 515 694 z "},"ɴ":{"ha":833,"x_min":0,"x_max":0,"o":"m 139 694 l 139 0 l 278 0 l 278 417 l 318 417 l 596 139 l 694 139 l 694 0 l 833 0 l 833 694 l 694 694 l 694 278 l 654 278 l 376 556 l 278 556 l 278 694 z "},"ɵ":{"ha":833,"x_min":0,"x_max":0,"o":"m 139 515 l 139 179 l 318 0 l 654 0 l 833 179 l 833 515 l 654 694 l 318 694 z m 376 556 l 596 556 l 694 457 l 694 417 l 278 417 l 278 457 z m 278 278 l 694 278 l 694 238 l 596 139 l 376 139 l 278 238 z "},"ɶ":{"ha":833,"x_min":0,"x_max":0,"o":"m 139 515 l 139 179 l 318 0 l 833 0 l 833 139 l 556 139 l 556 278 l 833 278 l 833 417 l 556 417 l 556 556 l 833 556 l 833 694 l 318 694 z m 376 556 l 417 556 l 417 139 l 376 139 l 278 238 l 278 457 z "},"ɷ":{"ha":833,"x_min":0,"x_max":0,"o":"m 139 515 l 139 179 l 318 0 l 376 0 l 486 110 l 596 0 l 654 0 l 833 179 l 833 515 l 654 694 l 318 694 z m 376 556 l 596 556 l 694 457 l 694 238 l 625 168 l 556 238 l 556 417 l 417 417 l 417 238 l 347 168 l 278 238 l 278 457 z "},"ɸ":{"ha":833,"x_min":0,"x_max":0,"o":"m 139 515 l 139 179 l 318 0 l 417 0 l 417 -278 l 556 -278 l 556 0 l 654 0 l 833 179 l 833 515 l 654 694 l 556 694 l 556 972 l 417 972 l 417 694 l 318 694 z m 376 556 l 417 556 l 417 139 l 376 139 l 278 238 l 278 457 z m 556 556 l 596 556 l 694 457 l 694 238 l 596 139 l 556 139 z "},"ɹ":{"ha":833,"x_min":0,"x_max":0,"o":"m 139 0 l 376 0 l 515 139 l 556 139 l 556 0 l 694 0 l 694 694 l 556 694 l 556 278 l 457 278 l 318 139 l 139 139 z "},"ɺ":{"ha":833,"x_min":0,"x_max":0,"o":"m 139 0 l 376 0 l 515 139 l 556 139 l 556 0 l 694 0 l 694 972 l 556 972 l 556 278 l 457 278 l 318 139 l 139 139 z "},"ɻ":{"ha":833,"x_min":0,"x_max":0,"o":"m 139 0 l 376 0 l 515 139 l 556 139 l 556 -99 l 735 -278 l 833 -278 l 833 -179 l 694 -40 l 694 694 l 556 694 l 556 278 l 457 278 l 318 139 l 139 139 z "},"ɼ":{"ha":833,"x_min":0,"x_max":0,"o":"m 278 694 l 278 -278 l 417 -278 l 417 417 l 515 417 l 654 556 l 833 556 l 833 694 l 596 694 l 457 556 l 417 556 l 417 694 z "},"ɽ":{"ha":833,"x_min":0,"x_max":0,"o":"m 278 694 l 278 -99 l 457 -278 l 556 -278 l 556 -179 l 417 -40 l 417 417 l 515 417 l 654 556 l 833 556 l 833 694 l 596 694 l 457 556 l 417 556 l 417 694 z "},"ɾ":{"ha":833,"x_min":0,"x_max":0,"o":"m 278 515 l 278 0 l 417 0 l 417 457 l 515 556 l 596 556 l 735 417 l 833 417 l 833 515 l 654 694 l 457 694 z "},"ʀ":{"ha":833,"x_min":0,"x_max":0,"o":"m 139 694 l 139 0 l 278 0 l 278 278 l 556 278 l 556 179 l 735 0 l 833 0 l 833 99 l 694 238 l 694 318 l 833 457 l 833 515 l 654 694 z m 278 556 l 596 556 l 665 486 l 596 417 l 278 417 z "},"ʁ":{"ha":833,"x_min":0,"x_max":0,"o":"m 139 694 l 139 0 l 654 0 l 833 179 l 833 238 l 694 376 l 694 457 l 833 596 l 833 694 l 735 694 l 556 515 l 556 417 l 278 417 l 278 694 z m 278 278 l 596 278 l 665 208 l 596 139 l 278 139 z "},"ʂ":{"ha":833,"x_min":0,"x_max":0,"o":"m 139 457 l 318 278 l 596 278 l 665 208 l 596 139 l 139 139 l 139 -99 l 318 -278 l 417 -278 l 417 -179 l 278 -40 l 278 0 l 654 0 l 833 179 l 833 238 l 654 417 l 376 417 l 307 486 l 376 556 l 833 556 l 833 694 l 318 694 l 139 515 z "},"ʃ":{"ha":833,"x_min":0,"x_max":0,"o":"m 417 -40 l 278 -179 l 278 -278 l 376 -278 l 556 -99 l 556 735 l 694 874 l 694 972 l 596 972 l 417 793 z "},"ʄ":{"ha":833,"x_min":0,"x_max":0,"o":"m 278 139 l 417 139 l 417 -40 l 278 -179 l 278 -278 l 376 -278 l 556 -99 l 556 139 l 694 139 l 694 278 l 556 278 l 556 735 l 694 874 l 694 972 l 596 972 l 417 793 l 417 278 l 278 278 z "},"ʆ":{"ha":833,"x_min":0,"x_max":0,"o":"m 139 99 l 139 -99 l 318 -278 l 376 -278 l 556 -99 l 556 139 l 694 139 l 694 278 l 556 278 l 556 735 l 694 874 l 694 972 l 596 972 l 417 793 l 417 278 l 318 278 z m 376 139 l 417 139 l 417 -40 l 347 -110 l 278 -40 l 278 40 z "},"ʇ":{"ha":833,"x_min":0,"x_max":0,"o":"m 278 596 l 417 457 l 417 139 l 278 139 l 278 0 l 417 0 l 417 -278 l 556 -278 l 556 0 l 694 0 l 694 139 l 556 139 l 556 515 l 376 694 l 278 694 z "},"ʈ":{"ha":833,"x_min":0,"x_max":0,"o":"m 278 556 l 417 556 l 417 -99 l 596 -278 l 694 -278 l 694 -179 l 556 -40 l 556 556 l 694 556 l 694 694 l 556 694 l 556 972 l 417 972 l 417 694 l 278 694 z "},"ʉ":{"ha":833,"x_min":0,"x_max":0,"o":"m 139 417 l 278 417 l 278 179 l 457 0 l 694 0 l 694 417 l 833 417 l 833 556 l 694 556 l 694 694 l 556 694 l 556 556 l 417 556 l 417 694 l 278 694 l 278 556 l 139 556 z m 417 417 l 556 417 l 556 139 l 515 139 l 417 238 z "},"ʊ":{"ha":833,"x_min":0,"x_max":0,"o":"m 139 556 l 278 556 l 278 515 l 139 376 l 139 179 l 318 0 l 654 0 l 833 179 l 833 376 l 694 515 l 694 556 l 833 556 l 833 694 l 556 694 l 556 457 l 694 318 l 694 238 l 596 139 l 376 139 l 278 238 l 278 318 l 417 457 l 417 694 l 139 694 z "},"ʋ":{"ha":833,"x_min":0,"x_max":0,"o":"m 139 556 l 278 556 l 278 0 l 515 0 l 833 318 l 833 515 l 654 694 l 556 694 l 556 596 l 694 457 l 694 376 l 457 139 l 417 139 l 417 694 l 139 694 z "},"ʌ":{"ha":833,"x_min":0,"x_max":0,"o":"m 278 376 l 139 238 l 139 0 l 278 0 l 278 179 l 417 318 l 417 457 l 486 526 l 556 457 l 556 318 l 694 179 l 694 0 l 833 0 l 833 238 l 694 376 l 694 515 l 515 694 l 457 694 l 278 515 z "},"ʍ":{"ha":833,"x_min":0,"x_max":0,"o":"m 139 515 l 139 0 l 278 0 l 278 457 l 347 526 l 417 457 l 417 278 l 556 278 l 556 457 l 625 526 l 694 457 l 694 0 l 833 0 l 833 515 l 654 694 l 596 694 l 486 585 l 376 694 l 318 694 z "},"ʎ":{"ha":833,"x_min":0,"x_max":0,"o":"m 139 793 l 139 0 l 278 0 l 278 556 l 457 556 l 694 318 l 694 0 l 833 0 l 833 376 l 515 694 l 278 694 l 278 735 l 376 833 l 694 833 l 694 972 l 318 972 z "},"ʏ":{"ha":833,"x_min":0,"x_max":0,"o":"m 139 596 l 417 318 l 417 0 l 556 0 l 556 318 l 833 596 l 833 694 l 735 694 l 486 446 l 238 694 l 139 694 z "},"ʐ":{"ha":833,"x_min":0,"x_max":0,"o":"m 139 556 l 417 556 l 417 515 l 139 238 l 139 0 l 556 0 l 556 -99 l 735 -278 l 833 -278 l 833 -179 l 694 -40 l 694 139 l 278 139 l 278 179 l 556 457 l 556 556 l 694 556 l 694 694 l 139 694 z "},"ʑ":{"ha":833,"x_min":0,"x_max":0,"o":"m 139 556 l 556 556 l 556 515 l 278 238 l 278 139 l 139 139 l 139 0 l 417 0 l 417 -99 l 596 -278 l 654 -278 l 833 -99 l 833 -40 l 654 139 l 417 139 l 417 179 l 694 457 l 694 556 l 833 556 l 833 694 l 139 694 z m 556 0 l 596 0 l 665 -69 l 625 -110 l 556 -40 z "},"ʒ":{"ha":833,"x_min":0,"x_max":0,"o":"m 139 556 l 556 556 l 556 515 l 417 376 l 417 278 l 278 278 l 278 139 l 596 139 l 694 40 l 694 -40 l 596 -139 l 376 -139 l 238 0 l 139 0 l 139 -99 l 318 -278 l 654 -278 l 833 -99 l 833 99 l 654 278 l 556 278 l 556 318 l 694 457 l 694 556 l 833 556 l 833 694 l 139 694 z "},"ʓ":{"ha":833,"x_min":0,"x_max":0,"o":"m 139 556 l 556 556 l 556 515 l 417 376 l 417 318 l 694 40 l 694 -40 l 596 -139 l 556 -139 l 556 -40 l 376 139 l 318 139 l 139 -40 l 139 -99 l 318 -278 l 654 -278 l 833 -99 l 833 99 l 585 347 l 694 457 l 694 556 l 833 556 l 833 694 l 139 694 z m 376 -139 l 307 -69 l 347 -29 l 417 -99 l 417 -139 z "},"ʔ":{"ha":833,"x_min":0,"x_max":0,"o":"m 139 694 l 238 694 l 376 833 l 596 833 l 665 764 l 417 515 l 417 0 l 556 0 l 556 457 l 833 735 l 833 793 l 654 972 l 318 972 l 139 793 z "},"ʕ":{"ha":833,"x_min":0,"x_max":0,"o":"m 139 735 l 417 457 l 417 0 l 556 0 l 556 515 l 307 764 l 376 833 l 596 833 l 735 694 l 833 694 l 833 793 l 654 972 l 318 972 l 139 793 z "},"ʖ":{"ha":833,"x_min":0,"x_max":0,"o":"m 139 179 l 318 0 l 654 0 l 833 179 l 833 238 l 556 515 l 556 972 l 417 972 l 417 457 l 665 208 l 596 139 l 376 139 l 238 278 l 139 278 z "},"ʗ":{"ha":833,"x_min":0,"x_max":0,"o":"m 139 793 l 139 -99 l 318 -278 l 654 -278 l 833 -99 l 833 0 l 735 0 l 596 -139 l 376 -139 l 278 -40 l 278 735 l 376 833 l 596 833 l 735 694 l 833 694 l 833 793 l 654 972 l 318 972 z "},"ʘ":{"ha":833,"x_min":0,"x_max":0,"o":"m 139 793 l 139 179 l 318 0 l 654 0 l 833 179 l 833 793 l 654 972 l 318 972 z m 376 833 l 596 833 l 694 735 l 694 238 l 596 139 l 376 139 l 278 238 l 278 735 z m 417 417 l 556 417 l 556 556 l 417 556 z "},"ʙ":{"ha":833,"x_min":0,"x_max":0,"o":"m 139 694 l 139 0 l 654 0 l 833 179 l 833 238 l 724 347 l 833 457 l 833 515 l 654 694 z m 278 556 l 596 556 l 665 486 l 596 417 l 278 417 z m 278 278 l 596 278 l 665 208 l 596 139 l 278 139 z "},"ʚ":{"ha":833,"x_min":0,"x_max":0,"o":"m 139 457 l 249 347 l 139 238 l 139 179 l 318 0 l 654 0 l 833 179 l 833 515 l 654 694 l 318 694 l 139 515 z m 376 417 l 307 486 l 376 556 l 596 556 l 694 457 l 694 238 l 596 139 l 376 139 l 307 208 l 376 278 l 556 278 l 556 417 z "},"ʛ":{"ha":833,"x_min":0,"x_max":0,"o":"m 139 515 l 139 179 l 318 0 l 694 0 l 694 417 l 417 417 l 417 278 l 556 278 l 556 139 l 376 139 l 278 238 l 278 457 l 376 556 l 694 556 l 694 735 l 833 874 l 833 972 l 735 972 l 556 793 l 556 694 l 318 694 z "},"ʜ":{"ha":833,"x_min":0,"x_max":0,"o":"m 139 694 l 139 0 l 278 0 l 278 278 l 694 278 l 694 0 l 833 0 l 833 694 l 694 694 l 694 417 l 278 417 l 278 694 z "},"ʝ":{"ha":833,"x_min":0,"x_max":0,"o":"m 139 99 l 139 -99 l 318 -278 l 376 -278 l 556 -99 l 556 139 l 694 139 l 694 278 l 556 278 l 556 694 l 417 694 l 417 278 l 318 278 z m 376 139 l 417 139 l 417 -40 l 347 -110 l 278 -40 l 278 40 z m 417 833 l 556 833 l 556 972 l 417 972 z "},"ʞ":{"ha":833,"x_min":0,"x_max":0,"o":"m 139 596 l 388 347 l 139 99 l 139 0 l 238 0 l 515 278 l 556 278 l 556 -278 l 694 -278 l 694 694 l 556 694 l 556 417 l 515 417 l 238 694 l 139 694 z "},"ʟ":{"ha":833,"x_min":0,"x_max":0,"o":"m 139 694 l 139 0 l 833 0 l 833 139 l 278 139 l 278 694 z "},"ʠ":{"ha":833,"x_min":0,"x_max":0,"o":"m 139 515 l 139 179 l 318 0 l 694 0 l 694 -278 l 833 -278 l 833 793 l 654 972 l 417 972 l 417 833 l 596 833 l 694 735 l 694 694 l 318 694 z m 376 556 l 694 556 l 694 139 l 376 139 l 278 238 l 278 457 z "},"ʡ":{"ha":833,"x_min":0,"x_max":0,"o":"m 139 694 l 238 694 l 376 833 l 596 833 l 665 764 l 417 515 l 417 417 l 139 417 l 139 278 l 417 278 l 417 0 l 556 0 l 556 278 l 833 278 l 833 417 l 556 417 l 556 457 l 833 735 l 833 793 l 654 972 l 318 972 l 139 793 z "},"ʢ":{"ha":833,"x_min":0,"x_max":0,"o":"m 139 735 l 417 457 l 417 417 l 139 417 l 139 278 l 417 278 l 417 0 l 556 0 l 556 278 l 833 278 l 833 417 l 556 417 l 556 515 l 307 764 l 376 833 l 596 833 l 735 694 l 833 694 l 833 793 l 654 972 l 318 972 l 139 793 z "},"ʣ":{"ha":833,"x_min":0,"x_max":0,"o":"m 139 515 l 139 179 l 318 0 l 833 0 l 833 139 l 694 139 l 694 318 l 833 457 l 833 694 l 556 694 l 556 972 l 417 972 l 417 694 l 318 694 z m 376 556 l 417 556 l 417 139 l 376 139 l 278 238 l 278 457 z m 556 556 l 694 556 l 694 515 l 596 417 l 556 417 z "},"ʤ":{"ha":833,"x_min":0,"x_max":0,"o":"m 139 515 l 139 179 l 318 0 l 556 0 l 556 278 l 596 278 l 694 179 l 694 -40 l 596 -139 l 417 -139 l 417 -278 l 654 -278 l 833 -99 l 833 238 l 724 347 l 833 457 l 833 694 l 556 694 l 556 972 l 417 972 l 417 694 l 318 694 z m 376 556 l 417 556 l 417 139 l 376 139 l 278 238 l 278 457 z m 556 556 l 694 556 l 694 515 l 596 417 l 556 417 z "},"ʥ":{"ha":833,"x_min":0,"x_max":0,"o":"m 139 515 l 139 179 l 318 0 l 417 0 l 417 -99 l 596 -278 l 654 -278 l 833 -99 l 833 139 l 694 139 l 694 318 l 833 457 l 833 694 l 556 694 l 556 972 l 417 972 l 417 694 l 318 694 z m 376 556 l 417 556 l 417 139 l 376 139 l 278 238 l 278 457 z m 556 556 l 694 556 l 694 515 l 596 417 l 556 417 z m 556 0 l 694 0 l 694 -40 l 625 -110 l 556 -40 z "},"ʦ":{"ha":833,"x_min":0,"x_max":0,"o":"m 139 972 l 139 179 l 318 0 l 654 0 l 833 179 l 833 238 l 556 515 l 556 556 l 833 556 l 833 694 l 278 694 l 278 972 z m 278 556 l 417 556 l 417 457 l 665 208 l 596 139 l 376 139 l 278 238 z "},"ʧ":{"ha":833,"x_min":0,"x_max":0,"o":"m 139 556 l 278 556 l 278 179 l 457 0 l 556 0 l 556 -40 l 417 -179 l 417 -278 l 515 -278 l 694 -99 l 694 735 l 833 874 l 833 972 l 735 972 l 556 793 l 556 694 l 417 694 l 417 972 l 278 972 l 278 694 l 139 694 z m 417 556 l 556 556 l 556 139 l 515 139 l 417 238 z "},"ʨ":{"ha":833,"x_min":0,"x_max":0,"o":"m 139 972 l 139 179 l 318 0 l 417 0 l 417 -99 l 596 -278 l 654 -278 l 833 -99 l 833 -40 l 654 139 l 556 139 l 556 457 l 654 556 l 833 556 l 833 694 l 596 694 l 417 515 l 417 139 l 376 139 l 278 238 l 278 694 l 417 694 l 417 833 l 278 833 l 278 972 z m 556 0 l 596 0 l 665 -69 l 625 -110 l 556 -40 z "},"ʩ":{"ha":833,"x_min":0,"x_max":0,"o":"m 139 793 l 139 0 l 278 0 l 278 417 l 417 417 l 417 0 l 556 0 l 556 417 l 596 417 l 694 318 l 694 -40 l 596 -139 l 417 -139 l 417 -278 l 654 -278 l 833 -99 l 833 376 l 654 556 l 278 556 l 278 735 l 417 874 l 417 972 l 318 972 z "},"ʪ":{"ha":833,"x_min":0,"x_max":0,"o":"m 139 833 l 278 833 l 278 139 l 139 139 l 139 0 l 654 0 l 833 179 l 833 238 l 585 486 l 654 556 l 833 556 l 833 694 l 596 694 l 457 556 l 417 556 l 417 972 l 139 972 z m 417 139 l 417 417 l 457 417 l 665 208 l 596 139 z "},"ʫ":{"ha":833,"x_min":0,"x_max":0,"o":"m 139 833 l 278 833 l 278 139 l 139 139 l 139 0 l 833 0 l 833 139 l 556 139 l 556 179 l 833 457 l 833 694 l 417 694 l 417 972 l 139 972 z m 417 556 l 694 556 l 694 515 l 457 278 l 417 278 z "},"ʬ":{"ha":833,"x_min":0,"x_max":0,"o":"m 139 596 l 318 417 l 376 417 l 486 526 l 596 417 l 654 417 l 833 596 l 833 694 l 735 694 l 625 585 l 515 694 l 457 694 l 347 585 l 238 694 l 139 694 z m 139 179 l 318 0 l 376 0 l 486 110 l 596 0 l 654 0 l 833 179 l 833 278 l 735 278 l 625 168 l 515 278 l 457 278 l 347 168 l 238 278 l 139 278 z "},"ʭ":{"ha":833,"x_min":0,"x_max":0,"o":"m 278 694 l 278 417 l 417 417 l 417 556 l 556 556 l 556 417 l 694 417 l 694 694 z m 278 278 l 278 0 l 417 0 l 417 139 l 556 139 l 556 0 l 694 0 l 694 278 z "},"ʰ":{"ha":833,"x_min":0,"x_max":0,"o":"m 139 972 l 139 278 l 278 278 l 278 556 l 318 556 l 417 457 l 417 278 l 556 278 l 556 515 l 376 694 l 278 694 l 278 972 z "},"ʲ":{"ha":833,"x_min":0,"x_max":0,"o":"m 278 376 l 139 238 l 139 139 l 238 139 l 417 318 l 417 694 l 278 694 z m 278 833 l 417 833 l 417 972 l 278 972 z "},"ʹ":{"ha":833,"x_min":0,"x_max":0,"o":"m 278 793 l 139 654 l 139 417 l 278 417 l 278 596 l 417 735 l 417 972 l 278 972 z "},"ʺ":{"ha":833,"x_min":0,"x_max":0,"o":"m 278 793 l 139 654 l 139 417 l 278 417 l 278 596 l 417 735 l 417 972 l 278 972 z m 694 793 l 556 654 l 556 417 l 694 417 l 694 596 l 833 735 l 833 972 l 694 972 z "},"ʼ":{"ha":833,"x_min":0,"x_max":0,"o":"m 417 793 l 278 654 l 278 556 l 376 556 l 556 735 l 556 972 l 417 972 z "},"ˆ":{"ha":833,"x_min":0,"x_max":0,"o":"m 278 694 l 376 694 l 486 804 l 596 694 l 694 694 l 694 793 l 515 972 l 457 972 l 278 793 z "},"ˇ":{"ha":833,"x_min":0,"x_max":0,"o":"m 278 874 l 457 694 l 515 694 l 694 874 l 694 972 l 596 972 l 486 863 l 376 972 l 278 972 z "},"ˈ":{"ha":833,"x_min":0,"x_max":0,"o":"m 417 972 l 417 556 l 556 556 l 556 972 z "},"ˌ":{"ha":833,"x_min":0,"x_max":0,"o":"m 417 139 l 417 -278 l 556 -278 l 556 139 z "},"ː":{"ha":833,"x_min":0,"x_max":0,"o":"m 278 596 l 457 417 l 515 417 l 694 596 l 694 694 l 596 694 l 486 585 l 376 694 l 278 694 z m 278 0 l 376 0 l 486 110 l 596 0 l 694 0 l 694 99 l 515 278 l 457 278 l 278 99 z "},"ˑ":{"ha":833,"x_min":0,"x_max":0,"o":"m 278 596 l 457 417 l 515 417 l 694 596 l 694 694 l 596 694 l 486 585 l 376 694 l 278 694 z "},"˘":{"ha":833,"x_min":0,"x_max":0,"o":"m 139 874 l 318 694 l 654 694 l 833 874 l 833 972 l 735 972 l 596 833 l 376 833 l 238 972 l 139 972 z "},"˙":{"ha":833,"x_min":0,"x_max":0,"o":"m 417 833 l 556 833 l 556 972 l 417 972 z "},"˚":{"ha":833,"x_min":0,"x_max":0,"o":"m 278 735 l 457 556 l 515 556 l 694 735 l 694 793 l 515 972 l 457 972 l 278 793 z m 486 724 l 446 764 l 486 804 l 526 764 z "},"˛":{"ha":833,"x_min":0,"x_max":0,"o":"m 278 -99 l 457 -278 l 556 -278 l 556 -179 l 446 -69 l 556 40 l 556 139 l 457 139 l 278 -40 z "},"˜":{"ha":833,"x_min":0,"x_max":0,"o":"m 278 694 l 376 694 l 486 804 l 596 694 l 654 694 l 833 874 l 833 972 l 735 972 l 625 863 l 515 972 l 457 972 l 278 793 z "},"˝":{"ha":833,"x_min":0,"x_max":0,"o":"m 139 694 l 238 694 l 417 874 l 417 972 l 318 972 l 139 793 z m 556 694 l 654 694 l 833 874 l 833 972 l 735 972 l 556 793 z "},"ˠ":{"ha":833,"x_min":0,"x_max":0,"o":"m 139 874 l 249 764 l 139 654 l 139 457 l 318 278 l 376 278 l 556 457 l 556 654 l 446 764 l 556 874 l 556 972 l 457 972 l 347 863 l 238 972 l 139 972 z m 278 596 l 347 665 l 417 596 l 417 515 l 347 446 l 278 515 z "},"ˡ":{"ha":833,"x_min":0,"x_max":0,"o":"m 139 833 l 278 833 l 278 417 l 139 417 l 139 278 l 556 278 l 556 417 l 417 417 l 417 972 l 139 972 z "},"ˢ":{"ha":833,"x_min":0,"x_max":0,"o":"m 139 278 l 417 278 l 417 556 l 556 556 l 556 694 l 278 694 l 278 417 l 139 417 z "},"ˣ":{"ha":833,"x_min":0,"x_max":0,"o":"m 139 596 l 249 486 l 139 376 l 139 278 l 238 278 l 347 388 l 457 278 l 556 278 l 556 376 l 446 486 l 556 596 l 556 694 l 457 694 l 347 585 l 238 694 l 139 694 z "},"ˤ":{"ha":833,"x_min":0,"x_max":0,"o":"m 139 793 l 139 596 l 278 457 l 278 278 l 417 278 l 417 515 l 278 654 l 278 735 l 347 804 l 457 694 l 556 694 l 556 793 l 376 972 l 318 972 z "},"˥":{"ha":833,"x_min":0,"x_max":0,"o":"m 139 833 l 694 833 l 694 0 l 833 0 l 833 972 l 139 972 z "},"˦":{"ha":833,"x_min":0,"x_max":0,"o":"m 139 694 l 694 694 l 694 0 l 833 0 l 833 972 l 694 972 l 694 833 l 139 833 z "},"˧":{"ha":833,"x_min":0,"x_max":0,"o":"m 139 417 l 694 417 l 694 0 l 833 0 l 833 972 l 694 972 l 694 556 l 139 556 z "},"˨":{"ha":833,"x_min":0,"x_max":0,"o":"m 139 139 l 694 139 l 694 0 l 833 0 l 833 972 l 694 972 l 694 278 l 139 278 z "},"˩":{"ha":833,"x_min":0,"x_max":0,"o":"m 139 0 l 833 0 l 833 972 l 694 972 l 694 139 l 139 139 z "},"Ϳ":{"ha":833,"x_min":0,"x_max":0,"o":"m 139 179 l 318 0 l 654 0 l 833 179 l 833 972 l 694 972 l 694 238 l 596 139 l 376 139 l 238 278 l 139 278 z "},"΄":{"ha":833,"x_min":0,"x_max":0,"o":"m 417 833 l 556 833 l 556 972 l 417 972 z "},"΅":{"ha":833,"x_min":0,"x_max":0,"o":"m 139 694 l 278 694 l 278 833 l 139 833 z m 417 972 l 417 694 l 556 694 l 556 972 z m 694 694 l 833 694 l 833 833 l 694 833 z "},"Ά":{"ha":833,"x_min":0,"x_max":0,"o":"m 139 972 l 139 694 l 278 694 l 278 972 z m 417 793 l 417 0 l 556 0 l 556 278 l 694 278 l 694 0 l 833 0 l 833 793 l 654 972 l 596 972 z m 556 735 l 625 804 l 694 735 l 694 417 l 556 417 z "},"Έ":{"ha":833,"x_min":0,"x_max":0,"o":"m 139 972 l 139 694 l 278 694 l 278 972 z m 417 972 l 417 0 l 833 0 l 833 139 l 556 139 l 556 417 l 694 417 l 694 556 l 556 556 l 556 833 l 833 833 l 833 972 z "},"Ή":{"ha":833,"x_min":0,"x_max":0,"o":"m 139 972 l 139 694 l 278 694 l 278 972 z m 417 972 l 417 0 l 556 0 l 556 417 l 694 417 l 694 0 l 833 0 l 833 972 l 694 972 l 694 556 l 556 556 l 556 972 z "},"Ί":{"ha":833,"x_min":0,"x_max":0,"o":"m 139 972 l 139 694 l 278 694 l 278 972 z m 417 833 l 556 833 l 556 139 l 417 139 l 417 0 l 833 0 l 833 139 l 694 139 l 694 833 l 833 833 l 833 972 l 417 972 z "},"Ό":{"ha":833,"x_min":0,"x_max":0,"o":"m 139 972 l 139 694 l 278 694 l 278 972 z m 417 793 l 417 179 l 596 0 l 654 0 l 833 179 l 833 793 l 654 972 l 596 972 z m 556 735 l 625 804 l 694 735 l 694 238 l 625 168 l 556 238 z "},"Ύ":{"ha":833,"x_min":0,"x_max":0,"o":"m 139 972 l 139 694 l 278 694 l 278 972 z m 417 972 l 417 596 l 556 457 l 556 0 l 694 0 l 694 457 l 833 596 l 833 972 l 694 972 l 694 654 l 625 585 l 556 654 l 556 972 z "},"Ώ":{"ha":833,"x_min":0,"x_max":0,"o":"m 139 972 l 139 694 l 278 694 l 278 972 z m 417 793 l 417 318 l 556 179 l 556 139 l 417 139 l 417 0 l 833 0 l 833 139 l 694 139 l 694 179 l 833 318 l 833 793 l 654 972 l 596 972 z m 556 735 l 625 804 l 694 735 l 694 376 l 625 307 l 556 376 z "},"ΐ":{"ha":833,"x_min":0,"x_max":0,"o":"m 139 694 l 278 694 l 278 833 l 139 833 z m 278 417 l 417 417 l 417 179 l 596 0 l 694 0 l 694 99 l 556 238 l 556 556 l 278 556 z m 417 972 l 417 694 l 556 694 l 556 972 z m 694 694 l 833 694 l 833 833 l 694 833 z "},"Α":{"ha":833,"x_min":0,"x_max":0,"o":"m 139 654 l 139 0 l 278 0 l 278 278 l 694 278 l 694 0 l 833 0 l 833 654 l 515 972 l 457 972 z m 278 596 l 486 804 l 694 596 l 694 417 l 278 417 z "},"Β":{"ha":833,"x_min":0,"x_max":0,"o":"m 139 972 l 139 0 l 654 0 l 833 179 l 833 376 l 724 486 l 833 596 l 833 793 l 654 972 z m 278 833 l 596 833 l 694 735 l 694 654 l 596 556 l 278 556 z m 278 417 l 596 417 l 694 318 l 694 238 l 596 139 l 278 139 z "},"Γ":{"ha":833,"x_min":0,"x_max":0,"o":"m 139 972 l 139 0 l 278 0 l 278 833 l 833 833 l 833 972 z "},"Δ":{"ha":833,"x_min":0,"x_max":0,"o":"m 278 515 l 139 376 l 139 0 l 833 0 l 833 376 l 694 515 l 694 654 l 556 793 l 556 972 l 417 972 l 417 793 l 278 654 z m 417 457 l 417 596 l 486 665 l 556 596 l 556 457 l 694 318 l 694 139 l 278 139 l 278 318 z "},"Ε":{"ha":833,"x_min":0,"x_max":0,"o":"m 139 972 l 139 0 l 833 0 l 833 139 l 278 139 l 278 417 l 694 417 l 694 556 l 278 556 l 278 833 l 833 833 l 833 972 z "},"Ζ":{"ha":833,"x_min":0,"x_max":0,"o":"m 139 833 l 694 833 l 694 793 l 139 238 l 139 0 l 833 0 l 833 139 l 278 139 l 278 179 l 833 735 l 833 972 l 139 972 z "},"Η":{"ha":833,"x_min":0,"x_max":0,"o":"m 139 972 l 139 0 l 278 0 l 278 417 l 694 417 l 694 0 l 833 0 l 833 972 l 694 972 l 694 556 l 278 556 l 278 972 z "},"Θ":{"ha":833,"x_min":0,"x_max":0,"o":"m 139 793 l 139 179 l 318 0 l 654 0 l 833 179 l 833 793 l 654 972 l 318 972 z m 376 833 l 596 833 l 694 735 l 694 556 l 278 556 l 278 735 z m 278 417 l 694 417 l 694 238 l 596 139 l 376 139 l 278 238 z "},"Ι":{"ha":833,"x_min":0,"x_max":0,"o":"m 278 833 l 417 833 l 417 139 l 278 139 l 278 0 l 694 0 l 694 139 l 556 139 l 556 833 l 694 833 l 694 972 l 278 972 z "},"Κ":{"ha":833,"x_min":0,"x_max":0,"o":"m 139 972 l 139 0 l 278 0 l 278 417 l 318 417 l 735 0 l 833 0 l 833 99 l 446 486 l 833 874 l 833 972 l 735 972 l 318 556 l 278 556 l 278 972 z "},"Λ":{"ha":833,"x_min":0,"x_max":0,"o":"m 278 515 l 139 376 l 139 0 l 278 0 l 278 318 l 417 457 l 417 596 l 486 665 l 556 596 l 556 457 l 694 318 l 694 0 l 833 0 l 833 376 l 694 515 l 694 654 l 556 793 l 556 972 l 417 972 l 417 793 l 278 654 z "},"Μ":{"ha":833,"x_min":0,"x_max":0,"o":"m 139 972 l 139 0 l 278 0 l 278 694 l 318 694 l 417 596 l 417 417 l 556 417 l 556 596 l 654 694 l 694 694 l 694 0 l 833 0 l 833 972 l 694 972 l 694 833 l 596 833 l 486 724 l 376 833 l 278 833 l 278 972 z "},"Ν":{"ha":833,"x_min":0,"x_max":0,"o":"m 139 972 l 139 0 l 278 0 l 278 556 l 318 556 l 596 278 l 694 278 l 694 0 l 833 0 l 833 972 l 694 972 l 694 417 l 654 417 l 376 694 l 278 694 l 278 972 z "},"Ξ":{"ha":833,"x_min":0,"x_max":0,"o":"m 139 833 l 833 833 l 833 972 l 139 972 z m 139 0 l 833 0 l 833 139 l 139 139 z m 278 417 l 694 417 l 694 556 l 278 556 z "},"Ο":{"ha":833,"x_min":0,"x_max":0,"o":"m 139 793 l 139 179 l 318 0 l 654 0 l 833 179 l 833 793 l 654 972 l 318 972 z m 376 833 l 596 833 l 694 735 l 694 238 l 596 139 l 376 139 l 278 238 l 278 735 z "},"Π":{"ha":833,"x_min":0,"x_max":0,"o":"m 139 972 l 139 0 l 278 0 l 278 833 l 694 833 l 694 0 l 833 0 l 833 972 z "},"Ρ":{"ha":833,"x_min":0,"x_max":0,"o":"m 139 972 l 139 0 l 278 0 l 278 417 l 654 417 l 833 596 l 833 793 l 654 972 z m 278 833 l 596 833 l 694 735 l 694 654 l 596 556 l 278 556 z "},"Σ":{"ha":833,"x_min":0,"x_max":0,"o":"m 139 972 l 139 735 l 388 486 l 139 238 l 139 0 l 833 0 l 833 139 l 278 139 l 278 179 l 556 457 l 556 515 l 278 793 l 278 833 l 833 833 l 833 972 z "},"Τ":{"ha":833,"x_min":0,"x_max":0,"o":"m 139 833 l 417 833 l 417 0 l 556 0 l 556 833 l 833 833 l 833 972 l 139 972 z "},"Υ":{"ha":833,"x_min":0,"x_max":0,"o":"m 139 972 l 139 735 l 417 457 l 417 0 l 556 0 l 556 457 l 833 735 l 833 972 l 694 972 l 694 793 l 486 585 l 278 793 l 278 972 z "},"Φ":{"ha":833,"x_min":0,"x_max":0,"o":"m 139 654 l 139 318 l 318 139 l 417 139 l 417 0 l 556 0 l 556 139 l 654 139 l 833 318 l 833 654 l 654 833 l 556 833 l 556 972 l 417 972 l 417 833 l 318 833 z m 376 694 l 417 694 l 417 278 l 376 278 l 278 376 l 278 596 z m 556 694 l 596 694 l 694 596 l 694 376 l 596 278 l 556 278 z "},"Χ":{"ha":833,"x_min":0,"x_max":0,"o":"m 139 972 l 139 735 l 388 486 l 139 238 l 139 0 l 278 0 l 278 179 l 486 388 l 694 179 l 694 0 l 833 0 l 833 238 l 585 486 l 833 735 l 833 972 l 694 972 l 694 793 l 486 585 l 278 793 l 278 972 z "},"Ψ":{"ha":833,"x_min":0,"x_max":0,"o":"m 139 972 l 139 318 l 318 139 l 417 139 l 417 0 l 556 0 l 556 139 l 654 139 l 833 318 l 833 972 l 694 972 l 694 376 l 596 278 l 556 278 l 556 972 l 417 972 l 417 278 l 376 278 l 278 376 l 278 972 z "},"Ω":{"ha":833,"x_min":0,"x_max":0,"o":"m 139 793 l 139 318 l 278 179 l 278 139 l 139 139 l 139 0 l 417 0 l 417 238 l 278 376 l 278 735 l 376 833 l 596 833 l 694 735 l 694 376 l 556 238 l 556 0 l 833 0 l 833 139 l 694 139 l 694 179 l 833 318 l 833 793 l 654 972 l 318 972 z "},"Ϊ":{"ha":833,"x_min":0,"x_max":0,"o":"m 278 833 l 417 833 l 417 972 l 278 972 z m 278 556 l 417 556 l 417 139 l 278 139 l 278 0 l 694 0 l 694 139 l 556 139 l 556 556 l 694 556 l 694 694 l 278 694 z m 556 833 l 694 833 l 694 972 l 556 972 z "},"Ϋ":{"ha":833,"x_min":0,"x_max":0,"o":"m 139 596 l 417 318 l 417 0 l 556 0 l 556 318 l 833 596 l 833 694 l 735 694 l 486 446 l 238 694 l 139 694 z m 278 833 l 417 833 l 417 972 l 278 972 z m 556 833 l 694 833 l 694 972 l 556 972 z "},"ά":{"ha":833,"x_min":0,"x_max":0,"o":"m 139 515 l 139 179 l 318 0 l 515 0 l 625 110 l 735 0 l 833 0 l 833 99 l 694 238 l 694 457 l 833 596 l 833 694 l 735 694 l 625 585 l 515 694 l 318 694 z m 376 556 l 457 556 l 556 457 l 556 238 l 457 139 l 376 139 l 278 238 l 278 457 z m 417 833 l 556 833 l 556 972 l 417 972 z "},"έ":{"ha":833,"x_min":0,"x_max":0,"o":"m 139 457 l 249 347 l 139 238 l 139 179 l 318 0 l 833 0 l 833 139 l 376 139 l 307 208 l 376 278 l 694 278 l 694 417 l 376 417 l 307 486 l 376 556 l 833 556 l 833 694 l 318 694 l 139 515 z m 417 833 l 556 833 l 556 972 l 417 972 z "},"ή":{"ha":833,"x_min":0,"x_max":0,"o":"m 139 694 l 139 0 l 278 0 l 278 556 l 596 556 l 694 457 l 694 -278 l 833 -278 l 833 515 l 654 694 z m 417 833 l 556 833 l 556 972 l 417 972 z "},"ί":{"ha":833,"x_min":0,"x_max":0,"o":"m 278 556 l 417 556 l 417 179 l 596 0 l 694 0 l 694 99 l 556 238 l 556 694 l 278 694 z m 417 833 l 556 833 l 556 972 l 417 972 z "},"ΰ":{"ha":833,"x_min":0,"x_max":0,"o":"m 139 694 l 278 694 l 278 833 l 139 833 z m 139 556 l 139 179 l 318 0 l 654 0 l 833 179 l 833 376 l 654 556 l 556 556 l 556 457 l 694 318 l 694 238 l 596 139 l 376 139 l 278 238 l 278 556 z m 417 972 l 417 694 l 556 694 l 556 972 z m 694 694 l 833 694 l 833 833 l 694 833 z "},"α":{"ha":833,"x_min":0,"x_max":0,"o":"m 139 515 l 139 179 l 318 0 l 515 0 l 625 110 l 735 0 l 833 0 l 833 99 l 694 238 l 694 457 l 833 596 l 833 694 l 735 694 l 625 585 l 515 694 l 318 694 z m 376 556 l 457 556 l 556 457 l 556 238 l 457 139 l 376 139 l 278 238 l 278 457 z "},"β":{"ha":833,"x_min":0,"x_max":0,"o":"m 139 793 l 139 -278 l 278 -278 l 278 0 l 654 0 l 833 179 l 833 376 l 724 486 l 833 596 l 833 793 l 654 972 l 318 972 z m 376 833 l 596 833 l 694 735 l 694 654 l 596 556 l 278 556 l 278 735 z m 278 417 l 596 417 l 694 318 l 694 238 l 596 139 l 278 139 z "},"γ":{"ha":833,"x_min":0,"x_max":0,"o":"m 139 694 l 139 457 l 278 318 l 278 179 l 417 40 l 417 -278 l 556 -278 l 556 40 l 694 179 l 694 318 l 833 457 l 833 694 l 694 694 l 694 515 l 556 376 l 556 238 l 486 168 l 417 238 l 417 376 l 278 515 l 278 694 z "},"δ":{"ha":833,"x_min":0,"x_max":0,"o":"m 139 735 l 249 625 l 139 515 l 139 179 l 318 0 l 654 0 l 833 179 l 833 515 l 654 694 l 376 694 l 307 764 l 376 833 l 833 833 l 833 972 l 318 972 l 139 793 z m 376 556 l 596 556 l 694 457 l 694 238 l 596 139 l 376 139 l 278 238 l 278 457 z "},"ε":{"ha":833,"x_min":0,"x_max":0,"o":"m 139 457 l 249 347 l 139 238 l 139 179 l 318 0 l 833 0 l 833 139 l 376 139 l 307 208 l 376 278 l 694 278 l 694 417 l 376 417 l 307 486 l 376 556 l 833 556 l 833 694 l 318 694 l 139 515 z "},"ζ":{"ha":833,"x_min":0,"x_max":0,"o":"m 139 833 l 556 833 l 556 793 l 139 376 l 139 179 l 318 0 l 457 0 l 526 -69 l 417 -179 l 417 -278 l 515 -278 l 694 -99 l 694 -40 l 515 139 l 376 139 l 278 238 l 278 318 l 694 735 l 694 972 l 139 972 z "},"η":{"ha":833,"x_min":0,"x_max":0,"o":"m 139 694 l 139 0 l 278 0 l 278 556 l 596 556 l 694 457 l 694 -278 l 833 -278 l 833 515 l 654 694 z "},"θ":{"ha":833,"x_min":0,"x_max":0,"o":"m 139 793 l 139 179 l 318 0 l 515 0 l 694 179 l 694 793 l 515 972 l 318 972 z m 376 833 l 457 833 l 556 735 l 556 556 l 278 556 l 278 735 z m 278 417 l 556 417 l 556 238 l 457 139 l 376 139 l 278 238 z "},"ι":{"ha":833,"x_min":0,"x_max":0,"o":"m 278 556 l 417 556 l 417 179 l 596 0 l 694 0 l 694 99 l 556 238 l 556 694 l 278 694 z "},"κ":{"ha":833,"x_min":0,"x_max":0,"o":"m 278 694 l 278 0 l 417 0 l 417 278 l 457 278 l 735 0 l 833 0 l 833 99 l 585 347 l 833 596 l 833 694 l 735 694 l 457 417 l 417 417 l 417 694 z "},"λ":{"ha":833,"x_min":0,"x_max":0,"o":"m 139 833 l 318 833 l 417 735 l 417 654 l 278 515 l 278 376 l 139 238 l 139 0 l 278 0 l 278 179 l 417 318 l 417 457 l 486 526 l 556 457 l 556 318 l 694 179 l 694 0 l 833 0 l 833 238 l 694 376 l 694 515 l 556 654 l 556 793 l 376 972 l 139 972 z "},"μ":{"ha":833,"x_min":0,"x_max":0,"o":"m 139 694 l 139 -278 l 278 -278 l 278 0 l 515 0 l 625 110 l 735 0 l 833 0 l 833 99 l 694 238 l 694 694 l 556 694 l 556 238 l 457 139 l 278 139 l 278 694 z "},"ν":{"ha":833,"x_min":0,"x_max":0,"o":"m 139 694 l 139 457 l 278 318 l 278 179 l 457 0 l 515 0 l 833 318 l 833 694 l 694 694 l 694 376 l 486 168 l 417 238 l 417 376 l 278 515 l 278 694 z "},"ξ":{"ha":833,"x_min":0,"x_max":0,"o":"m 139 793 l 139 596 l 249 486 l 139 376 l 139 179 l 318 0 l 596 0 l 665 -69 l 556 -179 l 556 -278 l 654 -278 l 833 -99 l 833 -40 l 654 139 l 376 139 l 278 238 l 278 318 l 376 417 l 694 417 l 694 556 l 376 556 l 278 654 l 278 735 l 376 833 l 694 833 l 694 972 l 318 972 z "},"ο":{"ha":833,"x_min":0,"x_max":0,"o":"m 139 515 l 139 179 l 318 0 l 654 0 l 833 179 l 833 515 l 654 694 l 318 694 z m 376 556 l 596 556 l 694 457 l 694 238 l 596 139 l 376 139 l 278 238 l 278 457 z "},"π":{"ha":833,"x_min":0,"x_max":0,"o":"m 139 556 l 278 556 l 278 0 l 417 0 l 417 556 l 556 556 l 556 179 l 735 0 l 833 0 l 833 99 l 694 238 l 694 556 l 833 556 l 833 694 l 139 694 z "},"ρ":{"ha":833,"x_min":0,"x_max":0,"o":"m 139 515 l 139 -278 l 278 -278 l 278 0 l 654 0 l 833 179 l 833 515 l 654 694 l 318 694 z m 376 556 l 596 556 l 694 457 l 694 238 l 596 139 l 278 139 l 278 457 z "},"ς":{"ha":833,"x_min":0,"x_max":0,"o":"m 139 515 l 139 179 l 318 0 l 596 0 l 665 -69 l 556 -179 l 556 -278 l 654 -278 l 833 -99 l 833 -40 l 654 139 l 376 139 l 278 238 l 278 457 l 376 556 l 833 556 l 833 694 l 318 694 z "},"σ":{"ha":833,"x_min":0,"x_max":0,"o":"m 139 515 l 139 179 l 318 0 l 654 0 l 833 179 l 833 376 l 694 515 l 694 556 l 833 556 l 833 694 l 318 694 z m 376 556 l 556 556 l 556 457 l 694 318 l 694 238 l 596 139 l 376 139 l 278 238 l 278 457 z "},"τ":{"ha":833,"x_min":0,"x_max":0,"o":"m 139 556 l 417 556 l 417 179 l 596 0 l 694 0 l 694 99 l 556 238 l 556 556 l 833 556 l 833 694 l 139 694 z "},"υ":{"ha":833,"x_min":0,"x_max":0,"o":"m 139 694 l 139 179 l 318 0 l 654 0 l 833 179 l 833 515 l 654 694 l 556 694 l 556 596 l 694 457 l 694 238 l 596 139 l 376 139 l 278 238 l 278 694 z "},"φ":{"ha":833,"x_min":0,"x_max":0,"o":"m 139 694 l 139 179 l 318 0 l 417 0 l 417 -278 l 556 -278 l 556 0 l 654 0 l 833 179 l 833 515 l 654 694 l 417 694 l 417 139 l 376 139 l 278 238 l 278 694 z m 556 556 l 596 556 l 694 457 l 694 238 l 596 139 l 556 139 z "},"χ":{"ha":833,"x_min":0,"x_max":0,"o":"m 139 596 l 278 457 l 278 318 l 388 208 l 139 -40 l 139 -278 l 278 -278 l 278 -99 l 486 110 l 556 40 l 556 -99 l 735 -278 l 833 -278 l 833 -179 l 694 -40 l 694 99 l 585 208 l 833 457 l 833 694 l 694 694 l 694 515 l 486 307 l 417 376 l 417 515 l 238 694 l 139 694 z "},"ψ":{"ha":833,"x_min":0,"x_max":0,"o":"m 139 694 l 139 179 l 318 0 l 417 0 l 417 -278 l 556 -278 l 556 0 l 654 0 l 833 179 l 833 694 l 694 694 l 694 238 l 596 139 l 556 139 l 556 694 l 417 694 l 417 139 l 376 139 l 278 238 l 278 694 z "},"ω":{"ha":833,"x_min":0,"x_max":0,"o":"m 139 515 l 139 179 l 318 0 l 376 0 l 486 110 l 596 0 l 654 0 l 833 179 l 833 515 l 654 694 l 556 694 l 556 596 l 694 457 l 694 238 l 625 168 l 556 238 l 556 417 l 417 417 l 417 238 l 347 168 l 278 238 l 278 457 l 417 596 l 417 694 l 318 694 z "},"ϊ":{"ha":833,"x_min":0,"x_max":0,"o":"m 278 833 l 417 833 l 417 972 l 278 972 z m 278 556 l 417 556 l 417 179 l 596 0 l 694 0 l 694 99 l 556 238 l 556 694 l 278 694 z m 556 833 l 694 833 l 694 972 l 556 972 z "},"ϋ":{"ha":833,"x_min":0,"x_max":0,"o":"m 139 694 l 139 179 l 318 0 l 654 0 l 833 179 l 833 515 l 654 694 l 556 694 l 556 596 l 694 457 l 694 238 l 596 139 l 376 139 l 278 238 l 278 694 z m 278 833 l 417 833 l 417 972 l 278 972 z m 556 833 l 694 833 l 694 972 l 556 972 z "},"ό":{"ha":833,"x_min":0,"x_max":0,"o":"m 139 515 l 139 179 l 318 0 l 654 0 l 833 179 l 833 515 l 654 694 l 318 694 z m 376 556 l 596 556 l 694 457 l 694 238 l 596 139 l 376 139 l 278 238 l 278 457 z m 417 833 l 556 833 l 556 972 l 417 972 z "},"ύ":{"ha":833,"x_min":0,"x_max":0,"o":"m 139 694 l 139 179 l 318 0 l 654 0 l 833 179 l 833 515 l 654 694 l 556 694 l 556 596 l 694 457 l 694 238 l 596 139 l 376 139 l 278 238 l 278 694 z m 417 833 l 556 833 l 556 972 l 417 972 z "},"ώ":{"ha":833,"x_min":0,"x_max":0,"o":"m 139 515 l 139 179 l 318 0 l 376 0 l 486 110 l 596 0 l 654 0 l 833 179 l 833 515 l 654 694 l 556 694 l 556 596 l 694 457 l 694 238 l 625 168 l 556 238 l 556 417 l 417 417 l 417 238 l 347 168 l 278 238 l 278 457 l 417 596 l 417 694 l 318 694 z m 417 833 l 556 833 l 556 972 l 417 972 z "},"ϕ":{"ha":833,"x_min":0,"x_max":0,"o":"m 139 515 l 139 179 l 318 0 l 417 0 l 417 -278 l 556 -278 l 556 0 l 654 0 l 833 179 l 833 515 l 654 694 l 556 694 l 556 972 l 417 972 l 417 694 l 318 694 z m 376 556 l 417 556 l 417 139 l 376 139 l 278 238 l 278 457 z m 556 556 l 596 556 l 694 457 l 694 238 l 596 139 l 556 139 z "},"ϳ":{"ha":833,"x_min":0,"x_max":0,"o":"m 417 -40 l 278 -179 l 278 -278 l 376 -278 l 556 -99 l 556 694 l 417 694 z m 417 833 l 556 833 l 556 972 l 417 972 z "},"Ѐ":{"ha":833,"x_min":0,"x_max":0,"o":"m 139 694 l 139 0 l 833 0 l 833 139 l 278 139 l 278 278 l 694 278 l 694 417 l 278 417 l 278 556 l 833 556 l 833 694 l 556 694 l 556 793 l 376 972 l 278 972 l 278 874 l 417 735 l 417 694 z "},"Ё":{"ha":833,"x_min":0,"x_max":0,"o":"m 139 694 l 139 0 l 833 0 l 833 139 l 278 139 l 278 278 l 694 278 l 694 417 l 278 417 l 278 556 l 833 556 l 833 694 z m 278 833 l 417 833 l 417 972 l 278 972 z m 556 833 l 694 833 l 694 972 l 556 972 z "},"Ђ":{"ha":833,"x_min":0,"x_max":0,"o":"m 139 833 l 278 833 l 278 0 l 417 0 l 417 417 l 596 417 l 694 318 l 694 -40 l 556 -179 l 556 -278 l 654 -278 l 833 -99 l 833 376 l 654 556 l 417 556 l 417 833 l 694 833 l 694 972 l 139 972 z "},"Є":{"ha":833,"x_min":0,"x_max":0,"o":"m 139 654 l 139 318 l 457 0 l 654 0 l 833 179 l 833 278 l 735 278 l 596 139 l 515 139 l 278 376 l 278 417 l 556 417 l 556 556 l 278 556 l 278 596 l 515 833 l 596 833 l 735 694 l 833 694 l 833 793 l 654 972 l 457 972 z "},"Ѕ":{"ha":833,"x_min":0,"x_max":0,"o":"m 139 793 l 139 596 l 318 417 l 596 417 l 694 318 l 694 238 l 596 139 l 376 139 l 238 278 l 139 278 l 139 179 l 318 0 l 654 0 l 833 179 l 833 376 l 654 556 l 376 556 l 278 654 l 278 735 l 376 833 l 596 833 l 735 694 l 833 694 l 833 793 l 654 972 l 318 972 z "},"І":{"ha":833,"x_min":0,"x_max":0,"o":"m 278 833 l 417 833 l 417 139 l 278 139 l 278 0 l 694 0 l 694 139 l 556 139 l 556 833 l 694 833 l 694 972 l 278 972 z "},"Ї":{"ha":833,"x_min":0,"x_max":0,"o":"m 278 833 l 417 833 l 417 972 l 278 972 z m 278 556 l 417 556 l 417 139 l 278 139 l 278 0 l 694 0 l 694 139 l 556 139 l 556 556 l 694 556 l 694 694 l 278 694 z m 556 833 l 694 833 l 694 972 l 556 972 z "},"Ј":{"ha":833,"x_min":0,"x_max":0,"o":"m 139 179 l 318 0 l 654 0 l 833 179 l 833 972 l 694 972 l 694 238 l 596 139 l 376 139 l 238 278 l 139 278 z "},"Љ":{"ha":833,"x_min":0,"x_max":0,"o":"m 139 793 l 139 0 l 278 0 l 278 735 l 376 833 l 417 833 l 417 0 l 833 0 l 833 556 l 556 556 l 556 972 l 318 972 z m 556 417 l 694 417 l 694 139 l 556 139 z "},"Њ":{"ha":833,"x_min":0,"x_max":0,"o":"m 139 972 l 139 0 l 278 0 l 278 417 l 417 417 l 417 0 l 833 0 l 833 556 l 556 556 l 556 972 l 417 972 l 417 556 l 278 556 l 278 972 z m 556 417 l 694 417 l 694 139 l 556 139 z "},"Ћ":{"ha":833,"x_min":0,"x_max":0,"o":"m 139 833 l 278 833 l 278 0 l 417 0 l 417 417 l 596 417 l 694 318 l 694 0 l 833 0 l 833 376 l 654 556 l 417 556 l 417 833 l 694 833 l 694 972 l 139 972 z "},"Ў":{"ha":833,"x_min":0,"x_max":0,"o":"m 139 972 l 139 417 l 694 417 l 694 139 l 139 139 l 139 0 l 833 0 l 833 972 l 694 972 l 694 556 l 278 556 l 278 972 z m 417 833 l 556 833 l 556 972 l 417 972 z "},"Џ":{"ha":833,"x_min":0,"x_max":0,"o":"m 139 972 l 139 0 l 417 0 l 417 -139 l 556 -139 l 556 0 l 833 0 l 833 972 l 694 972 l 694 139 l 278 139 l 278 972 z "},"А":{"ha":833,"x_min":0,"x_max":0,"o":"m 139 793 l 139 0 l 278 0 l 278 278 l 694 278 l 694 0 l 833 0 l 833 793 l 654 972 l 318 972 z m 376 833 l 596 833 l 694 735 l 694 417 l 278 417 l 278 735 z "},"Б":{"ha":833,"x_min":0,"x_max":0,"o":"m 139 972 l 139 0 l 833 0 l 833 556 l 278 556 l 278 833 l 833 833 l 833 972 z m 278 417 l 694 417 l 694 139 l 278 139 z "},"В":{"ha":833,"x_min":0,"x_max":0,"o":"m 139 972 l 139 0 l 654 0 l 833 179 l 833 376 l 724 486 l 833 596 l 833 793 l 654 972 z m 278 833 l 596 833 l 694 735 l 694 654 l 596 556 l 278 556 z m 278 417 l 596 417 l 694 318 l 694 238 l 596 139 l 278 139 z "},"Г":{"ha":833,"x_min":0,"x_max":0,"o":"m 139 972 l 139 0 l 278 0 l 278 833 l 833 833 l 833 972 z "},"Д":{"ha":833,"x_min":0,"x_max":0,"o":"m 139 139 l 139 -139 l 278 -139 l 278 0 l 694 0 l 694 -139 l 833 -139 l 833 139 l 694 139 l 694 972 l 457 972 l 278 793 l 278 139 z m 417 139 l 417 735 l 515 833 l 556 833 l 556 139 z "},"Е":{"ha":833,"x_min":0,"x_max":0,"o":"m 139 972 l 139 0 l 833 0 l 833 139 l 278 139 l 278 417 l 694 417 l 694 556 l 278 556 l 278 833 l 833 833 l 833 972 z "},"Ж":{"ha":833,"x_min":0,"x_max":0,"o":"m 139 972 l 139 596 l 249 486 l 139 376 l 139 0 l 278 0 l 278 318 l 376 417 l 417 417 l 417 0 l 556 0 l 556 417 l 596 417 l 694 318 l 694 0 l 833 0 l 833 376 l 724 486 l 833 596 l 833 972 l 694 972 l 694 654 l 596 556 l 556 556 l 556 972 l 417 972 l 417 556 l 376 556 l 278 654 l 278 972 z "},"З":{"ha":833,"x_min":0,"x_max":0,"o":"m 139 694 l 238 694 l 376 833 l 596 833 l 694 735 l 694 654 l 596 556 l 417 556 l 417 417 l 596 417 l 694 318 l 694 238 l 596 139 l 376 139 l 238 278 l 139 278 l 139 179 l 318 0 l 654 0 l 833 179 l 833 376 l 724 486 l 833 596 l 833 793 l 654 972 l 318 972 l 139 793 z "},"И":{"ha":833,"x_min":0,"x_max":0,"o":"m 139 972 l 139 0 l 278 0 l 278 278 l 376 278 l 654 556 l 694 556 l 694 0 l 833 0 l 833 972 l 694 972 l 694 694 l 596 694 l 318 417 l 278 417 l 278 972 z "},"Й":{"ha":833,"x_min":0,"x_max":0,"o":"m 139 972 l 139 0 l 278 0 l 278 278 l 376 278 l 654 556 l 694 556 l 694 0 l 833 0 l 833 972 l 694 972 l 694 694 l 596 694 l 318 417 l 278 417 l 278 972 z m 417 833 l 556 833 l 556 972 l 417 972 z "},"К":{"ha":833,"x_min":0,"x_max":0,"o":"m 139 972 l 139 0 l 278 0 l 278 417 l 318 417 l 735 0 l 833 0 l 833 99 l 446 486 l 833 874 l 833 972 l 735 972 l 318 556 l 278 556 l 278 972 z "},"Л":{"ha":833,"x_min":0,"x_max":0,"o":"m 139 0 l 417 0 l 417 735 l 515 833 l 694 833 l 694 0 l 833 0 l 833 972 l 457 972 l 278 793 l 278 139 l 139 139 z "},"М":{"ha":833,"x_min":0,"x_max":0,"o":"m 139 972 l 139 0 l 278 0 l 278 694 l 318 694 l 417 596 l 417 417 l 556 417 l 556 596 l 654 694 l 694 694 l 694 0 l 833 0 l 833 972 l 694 972 l 694 833 l 596 833 l 486 724 l 376 833 l 278 833 l 278 972 z "},"Н":{"ha":833,"x_min":0,"x_max":0,"o":"m 139 972 l 139 0 l 278 0 l 278 417 l 694 417 l 694 0 l 833 0 l 833 972 l 694 972 l 694 556 l 278 556 l 278 972 z "},"О":{"ha":833,"x_min":0,"x_max":0,"o":"m 139 793 l 139 179 l 318 0 l 654 0 l 833 179 l 833 793 l 654 972 l 318 972 z m 376 833 l 596 833 l 694 735 l 694 238 l 596 139 l 376 139 l 278 238 l 278 735 z "},"П":{"ha":833,"x_min":0,"x_max":0,"o":"m 139 972 l 139 0 l 278 0 l 278 833 l 694 833 l 694 0 l 833 0 l 833 972 z "},"Р":{"ha":833,"x_min":0,"x_max":0,"o":"m 139 972 l 139 0 l 278 0 l 278 417 l 654 417 l 833 596 l 833 793 l 654 972 z m 278 833 l 596 833 l 694 735 l 694 654 l 596 556 l 278 556 z "},"С":{"ha":833,"x_min":0,"x_max":0,"o":"m 139 793 l 139 179 l 318 0 l 654 0 l 833 179 l 833 278 l 735 278 l 596 139 l 376 139 l 278 238 l 278 735 l 376 833 l 596 833 l 735 694 l 833 694 l 833 793 l 654 972 l 318 972 z "},"Т":{"ha":833,"x_min":0,"x_max":0,"o":"m 139 833 l 417 833 l 417 0 l 556 0 l 556 833 l 833 833 l 833 972 l 139 972 z "},"У":{"ha":833,"x_min":0,"x_max":0,"o":"m 139 972 l 139 417 l 694 417 l 694 139 l 139 139 l 139 0 l 833 0 l 833 972 l 694 972 l 694 556 l 278 556 l 278 972 z "},"Ф":{"ha":833,"x_min":0,"x_max":0,"o":"m 139 833 l 139 139 l 417 139 l 417 0 l 556 0 l 556 139 l 833 139 l 833 833 l 556 833 l 556 972 l 417 972 l 417 833 z m 278 694 l 417 694 l 417 278 l 278 278 z m 556 694 l 694 694 l 694 278 l 556 278 z "},"Х":{"ha":833,"x_min":0,"x_max":0,"o":"m 139 972 l 139 735 l 388 486 l 139 238 l 139 0 l 278 0 l 278 179 l 486 388 l 694 179 l 694 0 l 833 0 l 833 238 l 585 486 l 833 735 l 833 972 l 694 972 l 694 793 l 486 585 l 278 793 l 278 972 z "},"Ц":{"ha":833,"x_min":0,"x_max":0,"o":"m 139 972 l 139 0 l 694 0 l 694 -139 l 833 -139 l 833 139 l 694 139 l 694 972 l 556 972 l 556 139 l 278 139 l 278 972 z "},"Ч":{"ha":833,"x_min":0,"x_max":0,"o":"m 139 972 l 139 417 l 694 417 l 694 0 l 833 0 l 833 972 l 694 972 l 694 556 l 278 556 l 278 972 z "},"Ш":{"ha":833,"x_min":0,"x_max":0,"o":"m 139 972 l 139 0 l 833 0 l 833 972 l 694 972 l 694 139 l 556 139 l 556 972 l 417 972 l 417 139 l 278 139 l 278 972 z "},"Щ":{"ha":833,"x_min":0,"x_max":0,"o":"m 139 972 l 139 0 l 694 0 l 694 -139 l 833 -139 l 833 972 l 694 972 l 694 139 l 556 139 l 556 972 l 417 972 l 417 139 l 278 139 l 278 972 z "},"Ъ":{"ha":833,"x_min":0,"x_max":0,"o":"m 139 833 l 278 833 l 278 0 l 833 0 l 833 556 l 417 556 l 417 972 l 139 972 z m 417 417 l 694 417 l 694 139 l 417 139 z "},"Ы":{"ha":833,"x_min":0,"x_max":0,"o":"m 139 972 l 139 0 l 556 0 l 556 556 l 278 556 l 278 972 z m 278 417 l 417 417 l 417 139 l 278 139 z m 694 972 l 694 0 l 833 0 l 833 972 z "},"Ь":{"ha":833,"x_min":0,"x_max":0,"o":"m 139 972 l 139 0 l 833 0 l 833 556 l 278 556 l 278 972 z m 278 417 l 694 417 l 694 139 l 278 139 z "},"Э":{"ha":833,"x_min":0,"x_max":0,"o":"m 139 694 l 238 694 l 376 833 l 457 833 l 694 596 l 694 556 l 417 556 l 417 417 l 694 417 l 694 376 l 457 139 l 376 139 l 238 278 l 139 278 l 139 179 l 318 0 l 515 0 l 833 318 l 833 654 l 515 972 l 318 972 l 139 793 z "},"Ю":{"ha":833,"x_min":0,"x_max":0,"o":"m 139 972 l 139 0 l 278 0 l 278 417 l 417 417 l 417 179 l 596 0 l 654 0 l 833 179 l 833 793 l 654 972 l 596 972 l 417 793 l 417 556 l 278 556 l 278 972 z m 556 735 l 625 804 l 694 735 l 694 238 l 625 168 l 556 238 z "},"Я":{"ha":833,"x_min":0,"x_max":0,"o":"m 139 793 l 139 596 l 318 417 l 417 417 l 417 376 l 139 99 l 139 0 l 238 0 l 556 318 l 556 417 l 694 417 l 694 0 l 833 0 l 833 972 l 318 972 z m 376 833 l 694 833 l 694 556 l 376 556 l 278 654 l 278 735 z "},"а":{"ha":833,"x_min":0,"x_max":0,"o":"m 139 179 l 318 0 l 833 0 l 833 515 l 654 694 l 278 694 l 278 556 l 596 556 l 694 457 l 694 417 l 318 417 l 139 238 z m 376 139 l 307 208 l 376 278 l 694 278 l 694 139 z "},"б":{"ha":833,"x_min":0,"x_max":0,"o":"m 139 793 l 139 0 l 654 0 l 833 179 l 833 515 l 654 694 l 278 694 l 278 735 l 376 833 l 694 833 l 694 972 l 318 972 z m 278 556 l 596 556 l 694 457 l 694 238 l 596 139 l 278 139 z "},"в":{"ha":833,"x_min":0,"x_max":0,"o":"m 139 694 l 139 0 l 654 0 l 833 179 l 833 238 l 724 347 l 833 457 l 833 515 l 654 694 z m 278 556 l 596 556 l 665 486 l 596 417 l 278 417 z m 278 278 l 596 278 l 665 208 l 596 139 l 278 139 z "},"г":{"ha":833,"x_min":0,"x_max":0,"o":"m 139 694 l 139 0 l 278 0 l 278 556 l 833 556 l 833 694 z "},"д":{"ha":833,"x_min":0,"x_max":0,"o":"m 139 139 l 139 -139 l 278 -139 l 278 0 l 694 0 l 694 -139 l 833 -139 l 833 139 l 694 139 l 694 694 l 457 694 l 278 515 l 278 139 z m 417 139 l 417 457 l 515 556 l 556 556 l 556 139 z "},"е":{"ha":833,"x_min":0,"x_max":0,"o":"m 139 515 l 139 179 l 318 0 l 694 0 l 694 139 l 376 139 l 278 238 l 278 278 l 833 278 l 833 515 l 654 694 l 318 694 z m 376 556 l 596 556 l 694 457 l 694 417 l 278 417 l 278 457 z "},"ж":{"ha":833,"x_min":0,"x_max":0,"o":"m 139 694 l 139 457 l 249 347 l 139 238 l 139 0 l 278 0 l 278 179 l 376 278 l 417 278 l 417 0 l 556 0 l 556 278 l 596 278 l 694 179 l 694 0 l 833 0 l 833 238 l 724 347 l 833 457 l 833 694 l 694 694 l 694 515 l 596 417 l 556 417 l 556 694 l 417 694 l 417 417 l 376 417 l 278 515 l 278 694 z "},"з":{"ha":833,"x_min":0,"x_max":0,"o":"m 139 417 l 238 417 l 376 556 l 596 556 l 665 486 l 596 417 l 417 417 l 417 278 l 596 278 l 665 208 l 596 139 l 376 139 l 238 278 l 139 278 l 139 179 l 318 0 l 654 0 l 833 179 l 833 238 l 724 347 l 833 457 l 833 515 l 654 694 l 318 694 l 139 515 z "},"и":{"ha":833,"x_min":0,"x_max":0,"o":"m 139 694 l 139 0 l 278 0 l 278 139 l 376 139 l 654 417 l 694 417 l 694 0 l 833 0 l 833 694 l 694 694 l 694 556 l 596 556 l 318 278 l 278 278 l 278 694 z "},"й":{"ha":833,"x_min":0,"x_max":0,"o":"m 139 694 l 139 0 l 278 0 l 278 139 l 376 139 l 654 417 l 694 417 l 694 0 l 833 0 l 833 694 l 694 694 l 694 556 l 596 556 l 318 278 l 278 278 l 278 694 z m 417 694 l 556 694 l 556 833 l 417 833 z "},"к":{"ha":833,"x_min":0,"x_max":0,"o":"m 139 694 l 139 0 l 278 0 l 278 278 l 457 278 l 735 0 l 833 0 l 833 99 l 585 347 l 833 596 l 833 694 l 735 694 l 457 417 l 278 417 l 278 694 z "},"л":{"ha":833,"x_min":0,"x_max":0,"o":"m 139 0 l 417 0 l 417 457 l 515 556 l 694 556 l 694 0 l 833 0 l 833 694 l 457 694 l 278 515 l 278 139 l 139 139 z "},"м":{"ha":833,"x_min":0,"x_max":0,"o":"m 139 694 l 139 0 l 278 0 l 278 417 l 318 417 l 457 278 l 515 278 l 654 417 l 694 417 l 694 0 l 833 0 l 833 694 l 694 694 l 694 556 l 596 556 l 486 446 l 376 556 l 278 556 l 278 694 z "},"н":{"ha":833,"x_min":0,"x_max":0,"o":"m 139 694 l 139 0 l 278 0 l 278 278 l 694 278 l 694 0 l 833 0 l 833 694 l 694 694 l 694 417 l 278 417 l 278 694 z "},"о":{"ha":833,"x_min":0,"x_max":0,"o":"m 139 515 l 139 179 l 318 0 l 654 0 l 833 179 l 833 515 l 654 694 l 318 694 z m 376 556 l 596 556 l 694 457 l 694 238 l 596 139 l 376 139 l 278 238 l 278 457 z "},"п":{"ha":833,"x_min":0,"x_max":0,"o":"m 139 694 l 139 0 l 278 0 l 278 556 l 694 556 l 694 0 l 833 0 l 833 694 z "},"р":{"ha":833,"x_min":0,"x_max":0,"o":"m 139 694 l 139 -278 l 278 -278 l 278 0 l 654 0 l 833 179 l 833 515 l 654 694 z m 278 556 l 596 556 l 694 457 l 694 238 l 596 139 l 278 139 z "},"с":{"ha":833,"x_min":0,"x_max":0,"o":"m 139 515 l 139 179 l 318 0 l 654 0 l 833 179 l 833 278 l 735 278 l 596 139 l 376 139 l 278 238 l 278 457 l 376 556 l 596 556 l 735 417 l 833 417 l 833 515 l 654 694 l 318 694 z "},"т":{"ha":833,"x_min":0,"x_max":0,"o":"m 139 556 l 417 556 l 417 0 l 556 0 l 556 556 l 833 556 l 833 694 l 139 694 z "},"у":{"ha":833,"x_min":0,"x_max":0,"o":"m 139 694 l 139 179 l 318 0 l 694 0 l 694 -40 l 596 -139 l 278 -139 l 278 -278 l 654 -278 l 833 -99 l 833 694 l 694 694 l 694 139 l 376 139 l 278 238 l 278 694 z "},"ф":{"ha":833,"x_min":0,"x_max":0,"o":"m 139 515 l 139 179 l 318 0 l 417 0 l 417 -139 l 556 -139 l 556 0 l 654 0 l 833 179 l 833 515 l 654 694 l 556 694 l 556 833 l 417 833 l 417 694 l 318 694 z m 376 556 l 417 556 l 417 139 l 376 139 l 278 238 l 278 457 z m 556 556 l 596 556 l 694 457 l 694 238 l 596 139 l 556 139 z "},"х":{"ha":833,"x_min":0,"x_max":0,"o":"m 139 596 l 388 347 l 139 99 l 139 0 l 238 0 l 486 249 l 735 0 l 833 0 l 833 99 l 585 347 l 833 596 l 833 694 l 735 694 l 486 446 l 238 694 l 139 694 z "},"ц":{"ha":833,"x_min":0,"x_max":0,"o":"m 139 694 l 139 0 l 694 0 l 694 -139 l 833 -139 l 833 139 l 694 139 l 694 694 l 556 694 l 556 139 l 278 139 l 278 694 z "},"ч":{"ha":833,"x_min":0,"x_max":0,"o":"m 139 694 l 139 318 l 318 139 l 694 139 l 694 0 l 833 0 l 833 694 l 694 694 l 694 278 l 376 278 l 278 376 l 278 694 z "},"ш":{"ha":833,"x_min":0,"x_max":0,"o":"m 139 694 l 139 0 l 833 0 l 833 694 l 694 694 l 694 139 l 556 139 l 556 694 l 417 694 l 417 139 l 278 139 l 278 694 z "},"щ":{"ha":833,"x_min":0,"x_max":0,"o":"m 139 694 l 139 0 l 694 0 l 694 -139 l 833 -139 l 833 694 l 694 694 l 694 139 l 556 139 l 556 694 l 417 694 l 417 139 l 278 139 l 278 694 z "},"ъ":{"ha":833,"x_min":0,"x_max":0,"o":"m 139 556 l 278 556 l 278 0 l 654 0 l 833 179 l 833 238 l 654 417 l 417 417 l 417 694 l 139 694 z m 417 278 l 596 278 l 665 208 l 596 139 l 417 139 z "},"ы":{"ha":833,"x_min":0,"x_max":0,"o":"m 139 694 l 139 0 l 556 0 l 556 417 l 278 417 l 278 694 z m 278 278 l 417 278 l 417 139 l 278 139 z m 694 694 l 694 0 l 833 0 l 833 694 z "},"ь":{"ha":833,"x_min":0,"x_max":0,"o":"m 139 694 l 139 0 l 654 0 l 833 179 l 833 238 l 654 417 l 278 417 l 278 694 z m 278 278 l 596 278 l 665 208 l 596 139 l 278 139 z "},"э":{"ha":833,"x_min":0,"x_max":0,"o":"m 139 417 l 238 417 l 376 556 l 457 556 l 556 457 l 556 417 l 417 417 l 417 278 l 556 278 l 556 238 l 457 139 l 376 139 l 238 278 l 139 278 l 139 179 l 318 0 l 515 0 l 694 179 l 694 515 l 515 694 l 318 694 l 139 515 z "},"ю":{"ha":833,"x_min":0,"x_max":0,"o":"m 139 694 l 139 0 l 278 0 l 278 278 l 417 278 l 417 179 l 596 0 l 654 0 l 833 179 l 833 515 l 654 694 l 596 694 l 417 515 l 417 417 l 278 417 l 278 694 z m 556 457 l 625 526 l 694 457 l 694 238 l 625 168 l 556 238 z "},"я":{"ha":833,"x_min":0,"x_max":0,"o":"m 139 457 l 318 278 l 417 278 l 417 238 l 318 139 l 139 139 l 139 0 l 376 0 l 556 179 l 556 278 l 694 278 l 694 0 l 833 0 l 833 694 l 318 694 l 139 515 z m 376 417 l 307 486 l 376 556 l 694 556 l 694 417 z "},"ѐ":{"ha":833,"x_min":0,"x_max":0,"o":"m 139 515 l 139 179 l 318 0 l 694 0 l 694 139 l 376 139 l 278 238 l 278 278 l 833 278 l 833 515 l 654 694 l 556 694 l 556 793 l 376 972 l 278 972 l 278 874 l 417 735 l 417 694 l 318 694 z m 376 556 l 596 556 l 694 457 l 694 417 l 278 417 l 278 457 z "},"ё":{"ha":833,"x_min":0,"x_max":0,"o":"m 139 515 l 139 179 l 318 0 l 694 0 l 694 139 l 376 139 l 278 238 l 278 278 l 833 278 l 833 515 l 654 694 l 318 694 z m 278 833 l 417 833 l 417 972 l 278 972 z m 376 556 l 596 556 l 694 457 l 694 417 l 278 417 l 278 457 z m 556 833 l 694 833 l 694 972 l 556 972 z "},"ђ":{"ha":833,"x_min":0,"x_max":0,"o":"m 139 694 l 278 694 l 278 0 l 417 0 l 417 417 l 596 417 l 694 318 l 694 -40 l 556 -179 l 556 -278 l 654 -278 l 833 -99 l 833 376 l 654 556 l 417 556 l 417 694 l 694 694 l 694 833 l 417 833 l 417 972 l 278 972 l 278 833 l 139 833 z "},"є":{"ha":833,"x_min":0,"x_max":0,"o":"m 139 515 l 139 179 l 318 0 l 515 0 l 694 179 l 694 278 l 596 278 l 457 139 l 376 139 l 278 238 l 278 278 l 417 278 l 417 417 l 278 417 l 278 457 l 376 556 l 457 556 l 596 417 l 694 417 l 694 515 l 515 694 l 318 694 z "},"ѕ":{"ha":833,"x_min":0,"x_max":0,"o":"m 139 457 l 318 278 l 596 278 l 665 208 l 596 139 l 139 139 l 139 0 l 654 0 l 833 179 l 833 238 l 654 417 l 376 417 l 307 486 l 376 556 l 833 556 l 833 694 l 318 694 l 139 515 z "},"і":{"ha":833,"x_min":0,"x_max":0,"o":"m 278 556 l 417 556 l 417 139 l 278 139 l 278 0 l 694 0 l 694 139 l 556 139 l 556 694 l 278 694 z m 417 833 l 556 833 l 556 972 l 417 972 z "},"ї":{"ha":833,"x_min":0,"x_max":0,"o":"m 278 833 l 417 833 l 417 972 l 278 972 z m 278 556 l 417 556 l 417 139 l 278 139 l 278 0 l 694 0 l 694 139 l 556 139 l 556 694 l 278 694 z m 556 833 l 694 833 l 694 972 l 556 972 z "},"ј":{"ha":833,"x_min":0,"x_max":0,"o":"m 417 -40 l 278 -179 l 278 -278 l 376 -278 l 556 -99 l 556 694 l 417 694 z m 417 833 l 556 833 l 556 972 l 417 972 z "},"љ":{"ha":833,"x_min":0,"x_max":0,"o":"m 139 515 l 139 0 l 278 0 l 278 457 l 376 556 l 417 556 l 417 0 l 654 0 l 833 179 l 833 238 l 654 417 l 556 417 l 556 694 l 318 694 z m 556 278 l 596 278 l 665 208 l 596 139 l 556 139 z "},"њ":{"ha":833,"x_min":0,"x_max":0,"o":"m 139 694 l 139 0 l 278 0 l 278 278 l 417 278 l 417 0 l 654 0 l 833 179 l 833 238 l 654 417 l 556 417 l 556 694 l 417 694 l 417 417 l 278 417 l 278 694 z m 556 278 l 596 278 l 665 208 l 596 139 l 556 139 z "},"ћ":{"ha":833,"x_min":0,"x_max":0,"o":"m 139 694 l 278 694 l 278 0 l 417 0 l 417 417 l 596 417 l 694 318 l 694 0 l 833 0 l 833 376 l 654 556 l 417 556 l 417 694 l 694 694 l 694 833 l 417 833 l 417 972 l 278 972 l 278 833 l 139 833 z "},"ў":{"ha":833,"x_min":0,"x_max":0,"o":"m 139 694 l 139 179 l 318 0 l 694 0 l 694 -40 l 596 -139 l 278 -139 l 278 -278 l 654 -278 l 833 -99 l 833 694 l 694 694 l 694 139 l 376 139 l 278 238 l 278 694 z m 417 694 l 556 694 l 556 833 l 417 833 z "},"џ":{"ha":833,"x_min":0,"x_max":0,"o":"m 139 694 l 139 0 l 417 0 l 417 -139 l 556 -139 l 556 0 l 833 0 l 833 694 l 694 694 l 694 139 l 278 139 l 278 694 z "},"Ґ":{"ha":833,"x_min":0,"x_max":0,"o":"m 139 833 l 139 0 l 278 0 l 278 694 l 833 694 l 833 972 l 694 972 l 694 833 z "},"ґ":{"ha":833,"x_min":0,"x_max":0,"o":"m 139 694 l 139 0 l 278 0 l 278 556 l 833 556 l 833 833 l 694 833 l 694 694 z "},"Ғ":{"ha":833,"x_min":0,"x_max":0,"o":"m 139 417 l 278 417 l 278 0 l 417 0 l 417 417 l 694 417 l 694 556 l 417 556 l 417 833 l 833 833 l 833 972 l 278 972 l 278 556 l 139 556 z "},"ғ":{"ha":833,"x_min":0,"x_max":0,"o":"m 139 278 l 278 278 l 278 0 l 417 0 l 417 278 l 694 278 l 694 417 l 417 417 l 417 556 l 833 556 l 833 694 l 278 694 l 278 417 l 139 417 z "},"א":{"ha":833,"x_min":0,"x_max":0,"o":"m 139 735 l 249 625 l 139 515 l 139 0 l 278 0 l 278 457 l 347 526 l 694 179 l 694 0 l 833 0 l 833 238 l 724 347 l 833 457 l 833 833 l 694 833 l 694 515 l 625 446 l 238 833 l 139 833 z "},"ב":{"ha":833,"x_min":0,"x_max":0,"o":"m 139 0 l 833 0 l 833 139 l 694 139 l 694 833 l 278 833 l 278 694 l 556 694 l 556 139 l 139 139 z "},"ג":{"ha":833,"x_min":0,"x_max":0,"o":"m 278 0 l 376 0 l 654 278 l 694 278 l 694 0 l 833 0 l 833 833 l 556 833 l 556 694 l 694 694 l 694 417 l 596 417 l 278 99 z "},"ד":{"ha":833,"x_min":0,"x_max":0,"o":"m 139 694 l 556 694 l 556 0 l 694 0 l 694 694 l 833 694 l 833 833 l 139 833 z "},"ה":{"ha":833,"x_min":0,"x_max":0,"o":"m 139 694 l 694 694 l 694 0 l 833 0 l 833 833 l 139 833 z m 139 417 l 139 0 l 278 0 l 278 417 z "},"ו":{"ha":833,"x_min":0,"x_max":0,"o":"m 278 694 l 417 694 l 417 0 l 556 0 l 556 833 l 278 833 z "},"ז":{"ha":833,"x_min":0,"x_max":0,"o":"m 278 694 l 417 694 l 417 654 l 278 515 l 278 457 l 417 318 l 417 0 l 556 0 l 556 376 l 446 486 l 556 596 l 556 694 l 694 694 l 694 833 l 278 833 z "},"ח":{"ha":833,"x_min":0,"x_max":0,"o":"m 139 833 l 139 0 l 278 0 l 278 694 l 694 694 l 694 0 l 833 0 l 833 833 z "},"ט":{"ha":833,"x_min":0,"x_max":0,"o":"m 139 833 l 139 0 l 833 0 l 833 833 l 694 833 l 694 694 l 596 694 l 417 515 l 417 417 l 515 417 l 654 556 l 694 556 l 694 139 l 278 139 l 278 833 z "},"י":{"ha":833,"x_min":0,"x_max":0,"o":"m 278 694 l 417 694 l 417 556 l 556 556 l 556 833 l 278 833 z "},"ך":{"ha":833,"x_min":0,"x_max":0,"o":"m 139 694 l 694 694 l 694 -139 l 833 -139 l 833 833 l 139 833 z "},"כ":{"ha":833,"x_min":0,"x_max":0,"o":"m 139 694 l 694 694 l 694 139 l 139 139 l 139 0 l 833 0 l 833 833 l 139 833 z "},"ל":{"ha":833,"x_min":0,"x_max":0,"o":"m 139 972 l 139 694 l 694 694 l 694 376 l 457 139 l 278 139 l 278 0 l 515 0 l 833 318 l 833 833 l 278 833 l 278 972 z "},"ם":{"ha":833,"x_min":0,"x_max":0,"o":"m 139 833 l 139 0 l 833 0 l 833 833 z m 278 694 l 694 694 l 694 139 l 278 139 z "},"מ":{"ha":833,"x_min":0,"x_max":0,"o":"m 139 735 l 249 625 l 139 515 l 139 0 l 278 0 l 278 457 l 515 694 l 596 694 l 694 596 l 694 139 l 417 139 l 417 0 l 833 0 l 833 654 l 654 833 l 457 833 l 347 724 l 238 833 l 139 833 z "},"ן":{"ha":833,"x_min":0,"x_max":0,"o":"m 278 694 l 417 694 l 417 -278 l 556 -278 l 556 833 l 278 833 z "},"נ":{"ha":833,"x_min":0,"x_max":0,"o":"m 278 0 l 694 0 l 694 833 l 417 833 l 417 694 l 556 694 l 556 139 l 278 139 z "},"ס":{"ha":833,"x_min":0,"x_max":0,"o":"m 139 694 l 278 694 l 278 654 l 139 515 l 139 179 l 318 0 l 654 0 l 833 179 l 833 833 l 139 833 z m 417 694 l 694 694 l 694 238 l 596 139 l 376 139 l 278 238 l 278 457 l 417 596 z "},"ע":{"ha":833,"x_min":0,"x_max":0,"o":"m 139 0 l 515 0 l 833 318 l 833 833 l 694 833 l 694 376 l 457 139 l 417 139 l 417 833 l 278 833 l 278 139 l 139 139 z "},"ף":{"ha":833,"x_min":0,"x_max":0,"o":"m 139 694 l 278 694 l 278 417 l 556 417 l 556 556 l 417 556 l 417 694 l 694 694 l 694 -139 l 833 -139 l 833 833 l 139 833 z "},"פ":{"ha":833,"x_min":0,"x_max":0,"o":"m 139 694 l 278 694 l 278 417 l 556 417 l 556 556 l 417 556 l 417 694 l 694 694 l 694 139 l 139 139 l 139 0 l 833 0 l 833 833 l 139 833 z "},"ץ":{"ha":833,"x_min":0,"x_max":0,"o":"m 139 694 l 278 694 l 278 -139 l 417 -139 l 417 417 l 515 417 l 833 735 l 833 833 l 735 833 l 457 556 l 417 556 l 417 833 l 139 833 z "},"צ":{"ha":833,"x_min":0,"x_max":0,"o":"m 139 833 l 139 596 l 556 179 l 556 139 l 139 139 l 139 0 l 833 0 l 833 139 l 694 139 l 694 238 l 585 347 l 833 596 l 833 833 l 694 833 l 694 654 l 486 446 l 278 654 l 278 833 z "},"ק":{"ha":833,"x_min":0,"x_max":0,"o":"m 139 694 l 694 694 l 694 376 l 556 238 l 556 139 l 654 139 l 833 318 l 833 833 l 139 833 z m 278 556 l 278 -139 l 417 -139 l 417 556 z "},"ר":{"ha":833,"x_min":0,"x_max":0,"o":"m 139 694 l 694 694 l 694 0 l 833 0 l 833 833 l 139 833 z "},"ש":{"ha":833,"x_min":0,"x_max":0,"o":"m 139 833 l 139 0 l 654 0 l 833 179 l 833 833 l 694 833 l 694 238 l 596 139 l 278 139 l 278 278 l 376 278 l 556 457 l 556 833 l 417 833 l 417 515 l 318 417 l 278 417 l 278 833 z "},"ת":{"ha":833,"x_min":0,"x_max":0,"o":"m 139 0 l 417 0 l 417 694 l 694 694 l 694 0 l 833 0 l 833 833 l 278 833 l 278 139 l 139 139 z "},"ᴀ":{"ha":833,"x_min":0,"x_max":0,"o":"m 139 515 l 139 0 l 278 0 l 278 278 l 694 278 l 694 0 l 833 0 l 833 515 l 654 694 l 318 694 z m 376 556 l 596 556 l 694 457 l 694 417 l 278 417 l 278 457 z "},"ᴁ":{"ha":833,"x_min":0,"x_max":0,"o":"m 139 515 l 139 0 l 278 0 l 278 139 l 417 139 l 417 0 l 833 0 l 833 139 l 556 139 l 556 278 l 694 278 l 694 417 l 556 417 l 556 556 l 833 556 l 833 694 l 318 694 z m 376 556 l 417 556 l 417 278 l 278 278 l 278 457 z "},"ᴂ":{"ha":833,"x_min":0,"x_max":0,"o":"m 139 417 l 139 179 l 318 0 l 376 0 l 486 110 l 596 0 l 694 0 l 694 99 l 556 238 l 556 278 l 654 278 l 833 457 l 833 515 l 654 694 l 278 694 l 278 556 l 417 556 l 417 417 z m 278 278 l 417 278 l 417 238 l 347 168 l 278 238 z m 556 556 l 596 556 l 665 486 l 596 417 l 556 417 z "},"ᴄ":{"ha":833,"x_min":0,"x_max":0,"o":"m 139 515 l 139 179 l 318 0 l 654 0 l 833 179 l 833 278 l 735 278 l 596 139 l 376 139 l 278 238 l 278 457 l 376 556 l 596 556 l 735 417 l 833 417 l 833 515 l 654 694 l 318 694 z "},"ᴅ":{"ha":833,"x_min":0,"x_max":0,"o":"m 139 694 l 139 0 l 654 0 l 833 179 l 833 515 l 654 694 z m 278 556 l 596 556 l 694 457 l 694 238 l 596 139 l 278 139 z "},"ᴆ":{"ha":833,"x_min":0,"x_max":0,"o":"m 139 278 l 278 278 l 278 0 l 654 0 l 833 179 l 833 515 l 654 694 l 278 694 l 278 417 l 139 417 z m 417 556 l 596 556 l 694 457 l 694 238 l 596 139 l 417 139 l 417 278 l 556 278 l 556 417 l 417 417 z "},"ᴇ":{"ha":833,"x_min":0,"x_max":0,"o":"m 139 694 l 139 0 l 833 0 l 833 139 l 278 139 l 278 278 l 694 278 l 694 417 l 278 417 l 278 556 l 833 556 l 833 694 z "},"ᴉ":{"ha":833,"x_min":0,"x_max":0,"o":"m 278 556 l 417 556 l 417 0 l 694 0 l 694 139 l 556 139 l 556 556 l 694 556 l 694 694 l 278 694 z m 417 -278 l 556 -278 l 556 -139 l 417 -139 z "},"ᴊ":{"ha":833,"x_min":0,"x_max":0,"o":"m 139 179 l 318 0 l 654 0 l 833 179 l 833 694 l 694 694 l 694 238 l 596 139 l 376 139 l 238 278 l 139 278 z "},"ᴋ":{"ha":833,"x_min":0,"x_max":0,"o":"m 139 694 l 139 0 l 278 0 l 278 278 l 457 278 l 735 0 l 833 0 l 833 99 l 585 347 l 833 596 l 833 694 l 735 694 l 457 417 l 278 417 l 278 694 z "},"ᴍ":{"ha":833,"x_min":0,"x_max":0,"o":"m 139 694 l 139 0 l 278 0 l 278 417 l 318 417 l 457 278 l 515 278 l 654 417 l 694 417 l 694 0 l 833 0 l 833 694 l 694 694 l 694 556 l 596 556 l 486 446 l 376 556 l 278 556 l 278 694 z "},"ᴎ":{"ha":833,"x_min":0,"x_max":0,"o":"m 139 694 l 139 0 l 278 0 l 278 139 l 376 139 l 654 417 l 694 417 l 694 0 l 833 0 l 833 694 l 694 694 l 694 556 l 596 556 l 318 278 l 278 278 l 278 694 z "},"ᴏ":{"ha":833,"x_min":0,"x_max":0,"o":"m 139 515 l 139 179 l 318 0 l 654 0 l 833 179 l 833 515 l 654 694 l 318 694 z m 376 556 l 596 556 l 694 457 l 694 238 l 596 139 l 376 139 l 278 238 l 278 457 z "},"ᴔ":{"ha":833,"x_min":0,"x_max":0,"o":"m 139 556 l 318 556 l 417 457 l 417 417 l 139 417 l 139 179 l 318 0 l 376 0 l 486 110 l 596 0 l 654 0 l 833 179 l 833 515 l 654 694 l 596 694 l 486 585 l 376 694 l 139 694 z m 278 278 l 417 278 l 417 238 l 347 168 l 278 238 z m 556 457 l 625 526 l 694 457 l 694 238 l 625 168 l 556 238 z "},"ᴘ":{"ha":833,"x_min":0,"x_max":0,"o":"m 139 694 l 139 0 l 278 0 l 278 278 l 654 278 l 833 457 l 833 515 l 654 694 z m 278 556 l 596 556 l 665 486 l 596 417 l 278 417 z "},"ᴙ":{"ha":833,"x_min":0,"x_max":0,"o":"m 139 457 l 278 318 l 278 238 l 139 99 l 139 0 l 238 0 l 417 179 l 417 278 l 694 278 l 694 0 l 833 0 l 833 694 l 318 694 l 139 515 z m 376 417 l 307 486 l 376 556 l 694 556 l 694 417 z "},"ᴚ":{"ha":833,"x_min":0,"x_max":0,"o":"m 139 596 l 278 457 l 278 376 l 139 238 l 139 179 l 318 0 l 833 0 l 833 694 l 694 694 l 694 417 l 417 417 l 417 515 l 238 694 l 139 694 z m 376 139 l 307 208 l 376 278 l 694 278 l 694 139 z "},"ᴛ":{"ha":833,"x_min":0,"x_max":0,"o":"m 139 556 l 417 556 l 417 0 l 556 0 l 556 556 l 833 556 l 833 694 l 139 694 z "},"ᴜ":{"ha":833,"x_min":0,"x_max":0,"o":"m 139 694 l 139 179 l 318 0 l 654 0 l 833 179 l 833 694 l 694 694 l 694 238 l 596 139 l 376 139 l 278 238 l 278 694 z "},"ᴝ":{"ha":833,"x_min":0,"x_max":0,"o":"m 139 556 l 694 556 l 694 238 l 596 139 l 139 139 l 139 0 l 654 0 l 833 179 l 833 694 l 139 694 z "},"ᴟ":{"ha":833,"x_min":0,"x_max":0,"o":"m 139 556 l 694 556 l 694 515 l 596 417 l 139 417 l 139 278 l 596 278 l 665 208 l 596 139 l 139 139 l 139 0 l 654 0 l 833 179 l 833 238 l 724 347 l 833 457 l 833 694 l 139 694 z "},"ᴠ":{"ha":833,"x_min":0,"x_max":0,"o":"m 139 694 l 139 457 l 278 318 l 278 179 l 457 0 l 515 0 l 694 179 l 694 318 l 833 457 l 833 694 l 694 694 l 694 515 l 556 376 l 556 238 l 486 168 l 417 238 l 417 376 l 278 515 l 278 694 z "},"ᴡ":{"ha":833,"x_min":0,"x_max":0,"o":"m 139 694 l 139 179 l 318 0 l 376 0 l 486 110 l 596 0 l 654 0 l 833 179 l 833 694 l 694 694 l 694 238 l 625 168 l 556 238 l 556 417 l 417 417 l 417 238 l 347 168 l 278 238 l 278 694 z "},"ᴢ":{"ha":833,"x_min":0,"x_max":0,"o":"m 139 556 l 694 556 l 694 515 l 596 417 l 318 417 l 139 238 l 139 0 l 833 0 l 833 139 l 278 139 l 278 179 l 376 278 l 654 278 l 833 457 l 833 694 l 139 694 z "},"ᵊ":{"ha":833,"x_min":0,"x_max":0,"o":"m 139 833 l 318 833 l 417 735 l 417 694 l 139 694 l 139 457 l 318 278 l 376 278 l 556 457 l 556 793 l 376 972 l 139 972 z m 278 556 l 417 556 l 417 515 l 347 446 l 278 515 z "},"ᵢ":{"ha":833,"x_min":0,"x_max":0,"o":"m 278 0 l 417 0 l 417 -139 l 278 -139 l 278 -278 l 694 -278 l 694 -139 l 556 -139 l 556 139 l 278 139 z m 417 278 l 556 278 l 556 417 l 417 417 z "},"ᶿ":{"ha":833,"x_min":0,"x_max":0,"o":"m 139 793 l 139 457 l 318 278 l 376 278 l 556 457 l 556 793 l 376 972 l 318 972 z m 278 735 l 347 804 l 417 735 l 417 694 l 278 694 z m 278 556 l 417 556 l 417 515 l 347 446 l 278 515 z "},"Ḅ":{"ha":833,"x_min":0,"x_max":0,"o":"m 139 972 l 139 0 l 654 0 l 833 179 l 833 376 l 724 486 l 833 596 l 833 793 l 654 972 z m 278 833 l 596 833 l 694 735 l 694 654 l 596 556 l 278 556 z m 278 417 l 596 417 l 694 318 l 694 238 l 596 139 l 278 139 z m 417 -278 l 556 -278 l 556 -139 l 417 -139 z "},"ḅ":{"ha":833,"x_min":0,"x_max":0,"o":"m 139 972 l 139 0 l 654 0 l 833 179 l 833 515 l 654 694 l 278 694 l 278 972 z m 278 556 l 596 556 l 694 457 l 694 238 l 596 139 l 278 139 z m 417 -278 l 556 -278 l 556 -139 l 417 -139 z "},"Ḇ":{"ha":833,"x_min":0,"x_max":0,"o":"m 139 972 l 139 0 l 654 0 l 833 179 l 833 376 l 724 486 l 833 596 l 833 793 l 654 972 z m 278 833 l 596 833 l 694 735 l 694 654 l 596 556 l 278 556 z m 278 417 l 596 417 l 694 318 l 694 238 l 596 139 l 278 139 z m 278 -278 l 694 -278 l 694 -139 l 278 -139 z "},"ḇ":{"ha":833,"x_min":0,"x_max":0,"o":"m 139 972 l 139 0 l 654 0 l 833 179 l 833 515 l 654 694 l 278 694 l 278 972 z m 278 556 l 596 556 l 694 457 l 694 238 l 596 139 l 278 139 z m 278 -278 l 694 -278 l 694 -139 l 278 -139 z "},"Ḍ":{"ha":833,"x_min":0,"x_max":0,"o":"m 139 972 l 139 0 l 654 0 l 833 179 l 833 793 l 654 972 z m 278 833 l 596 833 l 694 735 l 694 238 l 596 139 l 278 139 z m 417 -278 l 556 -278 l 556 -139 l 417 -139 z "},"ḍ":{"ha":833,"x_min":0,"x_max":0,"o":"m 139 515 l 139 179 l 318 0 l 833 0 l 833 972 l 694 972 l 694 694 l 318 694 z m 376 556 l 694 556 l 694 139 l 376 139 l 278 238 l 278 457 z m 417 -278 l 556 -278 l 556 -139 l 417 -139 z "},"Ḏ":{"ha":833,"x_min":0,"x_max":0,"o":"m 139 972 l 139 0 l 654 0 l 833 179 l 833 793 l 654 972 z m 278 833 l 596 833 l 694 735 l 694 238 l 596 139 l 278 139 z m 278 -278 l 694 -278 l 694 -139 l 278 -139 z "},"ḏ":{"ha":833,"x_min":0,"x_max":0,"o":"m 139 515 l 139 179 l 318 0 l 833 0 l 833 972 l 694 972 l 694 694 l 318 694 z m 376 556 l 694 556 l 694 139 l 376 139 l 278 238 l 278 457 z m 278 -278 l 694 -278 l 694 -139 l 278 -139 z "},"Ḡ":{"ha":833,"x_min":0,"x_max":0,"o":"m 139 515 l 139 179 l 318 0 l 833 0 l 833 417 l 556 417 l 556 278 l 694 278 l 694 139 l 376 139 l 278 238 l 278 457 l 376 556 l 833 556 l 833 694 l 318 694 z m 278 833 l 694 833 l 694 972 l 278 972 z "},"ḡ":{"ha":833,"x_min":0,"x_max":0,"o":"m 139 515 l 139 179 l 318 0 l 694 0 l 694 -40 l 596 -139 l 278 -139 l 278 -278 l 654 -278 l 833 -99 l 833 694 l 318 694 z m 278 833 l 694 833 l 694 972 l 278 972 z m 376 556 l 694 556 l 694 139 l 376 139 l 278 238 l 278 457 z "},"Ḥ":{"ha":833,"x_min":0,"x_max":0,"o":"m 139 972 l 139 0 l 278 0 l 278 417 l 694 417 l 694 0 l 833 0 l 833 972 l 694 972 l 694 556 l 278 556 l 278 972 z m 417 -278 l 556 -278 l 556 -139 l 417 -139 z "},"ḥ":{"ha":833,"x_min":0,"x_max":0,"o":"m 139 972 l 139 0 l 278 0 l 278 556 l 596 556 l 694 457 l 694 0 l 833 0 l 833 515 l 654 694 l 278 694 l 278 972 z m 417 -278 l 556 -278 l 556 -139 l 417 -139 z "},"Ḧ":{"ha":833,"x_min":0,"x_max":0,"o":"m 139 694 l 139 0 l 278 0 l 278 278 l 694 278 l 694 0 l 833 0 l 833 694 l 694 694 l 694 417 l 278 417 l 278 694 z m 278 833 l 417 833 l 417 972 l 278 972 z m 556 833 l 694 833 l 694 972 l 556 972 z "},"ḧ":{"ha":833,"x_min":0,"x_max":0,"o":"m 139 972 l 139 0 l 278 0 l 278 556 l 596 556 l 694 457 l 694 0 l 833 0 l 833 515 l 654 694 l 278 694 l 278 972 z m 417 833 l 556 833 l 556 972 l 417 972 z m 694 833 l 833 833 l 833 972 l 694 972 z "},"Ḳ":{"ha":833,"x_min":0,"x_max":0,"o":"m 139 972 l 139 0 l 278 0 l 278 417 l 318 417 l 735 0 l 833 0 l 833 99 l 446 486 l 833 874 l 833 972 l 735 972 l 318 556 l 278 556 l 278 972 z m 417 -278 l 556 -278 l 556 -139 l 417 -139 z "},"ḳ":{"ha":833,"x_min":0,"x_max":0,"o":"m 278 972 l 278 0 l 417 0 l 417 278 l 457 278 l 735 0 l 833 0 l 833 99 l 585 347 l 833 596 l 833 694 l 735 694 l 457 417 l 417 417 l 417 972 z m 417 -278 l 556 -278 l 556 -139 l 417 -139 z "},"Ḵ":{"ha":833,"x_min":0,"x_max":0,"o":"m 139 972 l 139 0 l 278 0 l 278 417 l 318 417 l 735 0 l 833 0 l 833 99 l 446 486 l 833 874 l 833 972 l 735 972 l 318 556 l 278 556 l 278 972 z m 278 -278 l 694 -278 l 694 -139 l 278 -139 z "},"ḵ":{"ha":833,"x_min":0,"x_max":0,"o":"m 278 972 l 278 0 l 417 0 l 417 278 l 457 278 l 735 0 l 833 0 l 833 99 l 585 347 l 833 596 l 833 694 l 735 694 l 457 417 l 417 417 l 417 972 z m 278 -278 l 694 -278 l 694 -139 l 278 -139 z "},"Ḷ":{"ha":833,"x_min":0,"x_max":0,"o":"m 139 972 l 139 0 l 833 0 l 833 139 l 278 139 l 278 972 z m 417 -278 l 556 -278 l 556 -139 l 417 -139 z "},"ḷ":{"ha":833,"x_min":0,"x_max":0,"o":"m 278 833 l 417 833 l 417 139 l 278 139 l 278 0 l 694 0 l 694 139 l 556 139 l 556 972 l 278 972 z m 417 -278 l 556 -278 l 556 -139 l 417 -139 z "},"Ḻ":{"ha":833,"x_min":0,"x_max":0,"o":"m 139 972 l 139 0 l 833 0 l 833 139 l 278 139 l 278 972 z m 278 -278 l 694 -278 l 694 -139 l 278 -139 z "},"ḻ":{"ha":833,"x_min":0,"x_max":0,"o":"m 278 833 l 417 833 l 417 139 l 278 139 l 278 0 l 694 0 l 694 139 l 556 139 l 556 972 l 278 972 z m 278 -278 l 694 -278 l 694 -139 l 278 -139 z "},"Ṃ":{"ha":833,"x_min":0,"x_max":0,"o":"m 139 972 l 139 0 l 278 0 l 278 694 l 318 694 l 417 596 l 417 417 l 556 417 l 556 596 l 654 694 l 694 694 l 694 0 l 833 0 l 833 972 l 694 972 l 694 833 l 596 833 l 486 724 l 376 833 l 278 833 l 278 972 z m 417 -278 l 556 -278 l 556 -139 l 417 -139 z "},"ṃ":{"ha":833,"x_min":0,"x_max":0,"o":"m 139 694 l 139 0 l 278 0 l 278 556 l 318 556 l 417 457 l 417 0 l 556 0 l 556 457 l 625 526 l 694 457 l 694 0 l 833 0 l 833 515 l 654 694 l 596 694 l 486 585 l 376 694 z m 417 -278 l 556 -278 l 556 -139 l 417 -139 z "},"Ṇ":{"ha":833,"x_min":0,"x_max":0,"o":"m 139 972 l 139 0 l 278 0 l 278 556 l 318 556 l 596 278 l 694 278 l 694 0 l 833 0 l 833 972 l 694 972 l 694 417 l 654 417 l 376 694 l 278 694 l 278 972 z m 417 -278 l 556 -278 l 556 -139 l 417 -139 z "},"ṇ":{"ha":833,"x_min":0,"x_max":0,"o":"m 139 694 l 139 0 l 278 0 l 278 556 l 596 556 l 694 457 l 694 0 l 833 0 l 833 515 l 654 694 z m 417 -278 l 556 -278 l 556 -139 l 417 -139 z "},"Ṉ":{"ha":833,"x_min":0,"x_max":0,"o":"m 139 972 l 139 0 l 278 0 l 278 556 l 318 556 l 596 278 l 694 278 l 694 0 l 833 0 l 833 972 l 694 972 l 694 417 l 654 417 l 376 694 l 278 694 l 278 972 z m 278 -278 l 694 -278 l 694 -139 l 278 -139 z "},"ṉ":{"ha":833,"x_min":0,"x_max":0,"o":"m 139 694 l 139 0 l 278 0 l 278 556 l 596 556 l 694 457 l 694 0 l 833 0 l 833 515 l 654 694 z m 278 -278 l 694 -278 l 694 -139 l 278 -139 z "},"Ṛ":{"ha":833,"x_min":0,"x_max":0,"o":"m 139 972 l 139 0 l 278 0 l 278 417 l 417 417 l 417 318 l 735 0 l 833 0 l 833 99 l 556 376 l 556 417 l 654 417 l 833 596 l 833 793 l 654 972 z m 278 833 l 596 833 l 694 735 l 694 654 l 596 556 l 278 556 z m 417 -278 l 556 -278 l 556 -139 l 417 -139 z "},"ṛ":{"ha":833,"x_min":0,"x_max":0,"o":"m 278 694 l 278 0 l 417 0 l 417 417 l 515 417 l 654 556 l 833 556 l 833 694 l 596 694 l 457 556 l 417 556 l 417 694 z m 417 -278 l 556 -278 l 556 -139 l 417 -139 z "},"Ṝ":{"ha":833,"x_min":0,"x_max":0,"o":"m 139 694 l 139 0 l 278 0 l 278 278 l 556 278 l 556 179 l 735 0 l 833 0 l 833 99 l 694 238 l 694 318 l 833 457 l 833 515 l 654 694 z m 278 556 l 596 556 l 665 486 l 596 417 l 278 417 z m 278 833 l 694 833 l 694 972 l 278 972 z m 417 -278 l 556 -278 l 556 -139 l 417 -139 z "},"ṝ":{"ha":833,"x_min":0,"x_max":0,"o":"m 278 833 l 694 833 l 694 972 l 278 972 z m 278 694 l 278 0 l 417 0 l 417 417 l 515 417 l 654 556 l 833 556 l 833 694 l 596 694 l 457 556 l 417 556 l 417 694 z m 417 -278 l 556 -278 l 556 -139 l 417 -139 z "},"Ṟ":{"ha":833,"x_min":0,"x_max":0,"o":"m 139 972 l 139 0 l 278 0 l 278 417 l 417 417 l 417 318 l 735 0 l 833 0 l 833 99 l 556 376 l 556 417 l 654 417 l 833 596 l 833 793 l 654 972 z m 278 833 l 596 833 l 694 735 l 694 654 l 596 556 l 278 556 z m 278 -278 l 694 -278 l 694 -139 l 278 -139 z "},"ṟ":{"ha":833,"x_min":0,"x_max":0,"o":"m 278 694 l 278 0 l 417 0 l 417 417 l 515 417 l 654 556 l 833 556 l 833 694 l 596 694 l 457 556 l 417 556 l 417 694 z m 278 -278 l 694 -278 l 694 -139 l 278 -139 z "},"Ṣ":{"ha":833,"x_min":0,"x_max":0,"o":"m 139 793 l 139 596 l 318 417 l 596 417 l 694 318 l 694 238 l 596 139 l 376 139 l 238 278 l 139 278 l 139 179 l 318 0 l 654 0 l 833 179 l 833 376 l 654 556 l 376 556 l 278 654 l 278 735 l 376 833 l 596 833 l 735 694 l 833 694 l 833 793 l 654 972 l 318 972 z m 417 -278 l 556 -278 l 556 -139 l 417 -139 z "},"ṣ":{"ha":833,"x_min":0,"x_max":0,"o":"m 139 457 l 318 278 l 596 278 l 665 208 l 596 139 l 139 139 l 139 0 l 654 0 l 833 179 l 833 238 l 654 417 l 376 417 l 307 486 l 376 556 l 833 556 l 833 694 l 318 694 l 139 515 z m 417 -278 l 556 -278 l 556 -139 l 417 -139 z "},"Ṭ":{"ha":833,"x_min":0,"x_max":0,"o":"m 139 833 l 417 833 l 417 0 l 556 0 l 556 833 l 833 833 l 833 972 l 139 972 z m 417 -278 l 556 -278 l 556 -139 l 417 -139 z "},"ṭ":{"ha":833,"x_min":0,"x_max":0,"o":"m 278 556 l 417 556 l 417 179 l 596 0 l 694 0 l 694 99 l 556 238 l 556 556 l 694 556 l 694 694 l 556 694 l 556 972 l 417 972 l 417 694 l 278 694 z m 417 -278 l 556 -278 l 556 -139 l 417 -139 z "},"Ṯ":{"ha":833,"x_min":0,"x_max":0,"o":"m 139 833 l 417 833 l 417 0 l 556 0 l 556 833 l 833 833 l 833 972 l 139 972 z m 278 -278 l 694 -278 l 694 -139 l 278 -139 z "},"ṯ":{"ha":833,"x_min":0,"x_max":0,"o":"m 278 556 l 417 556 l 417 179 l 596 0 l 694 0 l 694 99 l 556 238 l 556 556 l 694 556 l 694 694 l 556 694 l 556 972 l 417 972 l 417 694 l 278 694 z m 278 -278 l 694 -278 l 694 -139 l 278 -139 z "},"Ṳ":{"ha":833,"x_min":0,"x_max":0,"o":"m 139 972 l 139 179 l 318 0 l 654 0 l 833 179 l 833 972 l 694 972 l 694 238 l 596 139 l 376 139 l 278 238 l 278 972 z m 278 -278 l 417 -278 l 417 -139 l 278 -139 z m 556 -278 l 694 -278 l 694 -139 l 556 -139 z "},"ṳ":{"ha":833,"x_min":0,"x_max":0,"o":"m 139 694 l 139 179 l 318 0 l 833 0 l 833 694 l 694 694 l 694 139 l 376 139 l 278 238 l 278 694 z m 278 -278 l 417 -278 l 417 -139 l 278 -139 z m 556 -278 l 694 -278 l 694 -139 l 556 -139 z "},"Ṿ":{"ha":833,"x_min":0,"x_max":0,"o":"m 139 972 l 139 596 l 278 457 l 278 318 l 417 179 l 417 0 l 556 0 l 556 179 l 694 318 l 694 457 l 833 596 l 833 972 l 694 972 l 694 654 l 556 515 l 556 376 l 486 307 l 417 376 l 417 515 l 278 654 l 278 972 z m 417 -278 l 556 -278 l 556 -139 l 417 -139 z "},"ṿ":{"ha":833,"x_min":0,"x_max":0,"o":"m 139 694 l 139 457 l 278 318 l 278 179 l 457 0 l 515 0 l 694 179 l 694 318 l 833 457 l 833 694 l 694 694 l 694 515 l 556 376 l 556 238 l 486 168 l 417 238 l 417 376 l 278 515 l 278 694 z m 417 -278 l 556 -278 l 556 -139 l 417 -139 z "},"Ẅ":{"ha":833,"x_min":0,"x_max":0,"o":"m 139 694 l 139 179 l 318 0 l 376 0 l 486 110 l 596 0 l 654 0 l 833 179 l 833 694 l 694 694 l 694 238 l 625 168 l 556 238 l 556 556 l 417 556 l 417 238 l 347 168 l 278 238 l 278 694 z m 278 833 l 417 833 l 417 972 l 278 972 z m 556 833 l 694 833 l 694 972 l 556 972 z "},"ẅ":{"ha":833,"x_min":0,"x_max":0,"o":"m 139 694 l 139 179 l 318 0 l 376 0 l 486 110 l 596 0 l 654 0 l 833 179 l 833 694 l 694 694 l 694 238 l 625 168 l 556 238 l 556 417 l 417 417 l 417 238 l 347 168 l 278 238 l 278 694 z m 278 833 l 417 833 l 417 972 l 278 972 z m 556 833 l 694 833 l 694 972 l 556 972 z "},"Ẉ":{"ha":833,"x_min":0,"x_max":0,"o":"m 139 972 l 139 179 l 318 0 l 376 0 l 486 110 l 596 0 l 654 0 l 833 179 l 833 972 l 694 972 l 694 238 l 625 168 l 556 238 l 556 556 l 417 556 l 417 238 l 347 168 l 278 238 l 278 972 z m 417 -278 l 556 -278 l 556 -139 l 417 -139 z "},"ẉ":{"ha":833,"x_min":0,"x_max":0,"o":"m 139 694 l 139 179 l 318 0 l 376 0 l 486 110 l 596 0 l 654 0 l 833 179 l 833 694 l 694 694 l 694 238 l 625 168 l 556 238 l 556 417 l 417 417 l 417 238 l 347 168 l 278 238 l 278 694 z m 417 -278 l 556 -278 l 556 -139 l 417 -139 z "},"Ẍ":{"ha":833,"x_min":0,"x_max":0,"o":"m 139 694 l 139 457 l 249 347 l 139 238 l 139 0 l 278 0 l 278 179 l 376 278 l 596 278 l 694 179 l 694 0 l 833 0 l 833 238 l 724 347 l 833 457 l 833 694 l 694 694 l 694 515 l 596 417 l 376 417 l 278 515 l 278 694 z m 278 833 l 417 833 l 417 972 l 278 972 z m 556 833 l 694 833 l 694 972 l 556 972 z "},"ẍ":{"ha":833,"x_min":0,"x_max":0,"o":"m 139 596 l 388 347 l 139 99 l 139 0 l 238 0 l 486 249 l 735 0 l 833 0 l 833 99 l 585 347 l 833 596 l 833 694 l 735 694 l 486 446 l 238 694 l 139 694 z m 278 833 l 417 833 l 417 972 l 278 972 z m 556 833 l 694 833 l 694 972 l 556 972 z "},"Ẓ":{"ha":833,"x_min":0,"x_max":0,"o":"m 139 833 l 694 833 l 694 793 l 139 238 l 139 0 l 833 0 l 833 139 l 278 139 l 278 179 l 833 735 l 833 972 l 139 972 z m 417 -278 l 556 -278 l 556 -139 l 417 -139 z "},"ẓ":{"ha":833,"x_min":0,"x_max":0,"o":"m 139 556 l 556 556 l 556 515 l 278 238 l 278 139 l 139 139 l 139 0 l 833 0 l 833 139 l 417 139 l 417 179 l 694 457 l 694 556 l 833 556 l 833 694 l 139 694 z m 417 -278 l 556 -278 l 556 -139 l 417 -139 z "},"Ẕ":{"ha":833,"x_min":0,"x_max":0,"o":"m 139 833 l 694 833 l 694 793 l 139 238 l 139 0 l 833 0 l 833 139 l 278 139 l 278 179 l 833 735 l 833 972 l 139 972 z m 278 -278 l 694 -278 l 694 -139 l 278 -139 z "},"ẕ":{"ha":833,"x_min":0,"x_max":0,"o":"m 139 556 l 556 556 l 556 515 l 278 238 l 278 139 l 139 139 l 139 0 l 833 0 l 833 139 l 417 139 l 417 179 l 694 457 l 694 556 l 833 556 l 833 694 l 139 694 z m 278 -278 l 694 -278 l 694 -139 l 278 -139 z "},"ẖ":{"ha":833,"x_min":0,"x_max":0,"o":"m 139 972 l 139 0 l 278 0 l 278 556 l 596 556 l 694 457 l 694 0 l 833 0 l 833 515 l 654 694 l 278 694 l 278 972 z m 278 -278 l 694 -278 l 694 -139 l 278 -139 z "},"ẗ":{"ha":833,"x_min":0,"x_max":0,"o":"m 139 833 l 278 833 l 278 972 l 139 972 z m 278 556 l 417 556 l 417 179 l 596 0 l 694 0 l 694 99 l 556 238 l 556 556 l 694 556 l 694 694 l 556 694 l 556 972 l 417 972 l 417 694 l 278 694 z m 694 833 l 833 833 l 833 972 l 694 972 z "},"ẞ":{"ha":833,"x_min":0,"x_max":0,"o":"m 139 793 l 139 0 l 278 0 l 278 735 l 376 833 l 596 833 l 665 764 l 556 654 l 556 457 l 694 318 l 694 238 l 596 139 l 417 139 l 417 0 l 654 0 l 833 179 l 833 376 l 694 515 l 694 596 l 833 735 l 833 793 l 654 972 l 318 972 z "},"Ạ":{"ha":833,"x_min":0,"x_max":0,"o":"m 139 654 l 139 0 l 278 0 l 278 278 l 694 278 l 694 0 l 833 0 l 833 654 l 515 972 l 457 972 z m 278 596 l 486 804 l 694 596 l 694 417 l 278 417 z m 417 -278 l 556 -278 l 556 -139 l 417 -139 z "},"ạ":{"ha":833,"x_min":0,"x_max":0,"o":"m 139 179 l 318 0 l 833 0 l 833 515 l 654 694 l 278 694 l 278 556 l 596 556 l 694 457 l 694 417 l 318 417 l 139 238 z m 376 139 l 307 208 l 376 278 l 694 278 l 694 139 z m 417 -278 l 556 -278 l 556 -139 l 417 -139 z "},"Ẹ":{"ha":833,"x_min":0,"x_max":0,"o":"m 139 972 l 139 0 l 833 0 l 833 139 l 278 139 l 278 417 l 694 417 l 694 556 l 278 556 l 278 833 l 833 833 l 833 972 z m 417 -278 l 556 -278 l 556 -139 l 417 -139 z "},"ẹ":{"ha":833,"x_min":0,"x_max":0,"o":"m 139 515 l 139 179 l 318 0 l 694 0 l 694 139 l 376 139 l 278 238 l 278 278 l 833 278 l 833 515 l 654 694 l 318 694 z m 376 556 l 596 556 l 694 457 l 694 417 l 278 417 l 278 457 z m 417 -278 l 556 -278 l 556 -139 l 417 -139 z "},"Ị":{"ha":833,"x_min":0,"x_max":0,"o":"m 278 833 l 417 833 l 417 139 l 278 139 l 278 0 l 694 0 l 694 139 l 556 139 l 556 833 l 694 833 l 694 972 l 278 972 z m 417 -278 l 556 -278 l 556 -139 l 417 -139 z "},"ị":{"ha":833,"x_min":0,"x_max":0,"o":"m 278 556 l 417 556 l 417 139 l 278 139 l 278 0 l 694 0 l 694 139 l 556 139 l 556 694 l 278 694 z m 417 833 l 556 833 l 556 972 l 417 972 z m 417 -278 l 556 -278 l 556 -139 l 417 -139 z "},"Ọ":{"ha":833,"x_min":0,"x_max":0,"o":"m 139 793 l 139 179 l 318 0 l 654 0 l 833 179 l 833 793 l 654 972 l 318 972 z m 376 833 l 596 833 l 694 735 l 694 238 l 596 139 l 376 139 l 278 238 l 278 735 z m 417 -278 l 556 -278 l 556 -139 l 417 -139 z "},"ọ":{"ha":833,"x_min":0,"x_max":0,"o":"m 139 515 l 139 179 l 318 0 l 654 0 l 833 179 l 833 515 l 654 694 l 318 694 z m 376 556 l 596 556 l 694 457 l 694 238 l 596 139 l 376 139 l 278 238 l 278 457 z m 417 -278 l 556 -278 l 556 -139 l 417 -139 z "},"Ụ":{"ha":833,"x_min":0,"x_max":0,"o":"m 139 972 l 139 179 l 318 0 l 654 0 l 833 179 l 833 972 l 694 972 l 694 238 l 596 139 l 376 139 l 278 238 l 278 972 z m 417 -278 l 556 -278 l 556 -139 l 417 -139 z "},"ụ":{"ha":833,"x_min":0,"x_max":0,"o":"m 139 694 l 139 179 l 318 0 l 833 0 l 833 694 l 694 694 l 694 139 l 376 139 l 278 238 l 278 694 z m 417 -278 l 556 -278 l 556 -139 l 417 -139 z "},"Ỵ":{"ha":833,"x_min":0,"x_max":0,"o":"m 139 972 l 139 735 l 417 457 l 417 0 l 556 0 l 556 457 l 833 735 l 833 972 l 694 972 l 694 793 l 486 585 l 278 793 l 278 972 z m 417 -278 l 556 -278 l 556 -139 l 417 -139 z "},"ỵ":{"ha":833,"x_min":0,"x_max":0,"o":"m 139 694 l 139 457 l 318 278 l 694 278 l 694 238 l 596 139 l 278 139 l 278 0 l 654 0 l 833 179 l 833 694 l 694 694 l 694 417 l 376 417 l 278 515 l 278 694 z m 417 -278 l 556 -278 l 556 -139 l 417 -139 z "},"‐":{"ha":833,"x_min":0,"x_max":0,"o":"m 278 417 l 694 417 l 694 556 l 278 556 z "},"‑":{"ha":833,"x_min":0,"x_max":0,"o":"m 278 417 l 694 417 l 694 556 l 278 556 z "},"–":{"ha":833,"x_min":0,"x_max":0,"o":"m 139 417 l 694 417 l 694 556 l 139 556 z "},"—":{"ha":833,"x_min":0,"x_max":0,"o":"m 139 417 l 833 417 l 833 556 l 139 556 z "},"‖":{"ha":833,"x_min":0,"x_max":0,"o":"m 278 972 l 278 0 l 417 0 l 417 972 z m 556 972 l 556 0 l 694 0 l 694 972 z "},"‗":{"ha":833,"x_min":0,"x_max":0,"o":"m 139 0 l 833 0 l 833 139 l 139 139 z m 139 -278 l 833 -278 l 833 -139 l 139 -139 z "},"‘":{"ha":833,"x_min":0,"x_max":0,"o":"m 417 793 l 417 556 l 556 556 l 556 735 l 694 874 l 694 972 l 596 972 z "},"’":{"ha":833,"x_min":0,"x_max":0,"o":"m 417 793 l 278 654 l 278 556 l 376 556 l 556 735 l 556 972 l 417 972 z "},"‚":{"ha":833,"x_min":0,"x_max":0,"o":"m 417 99 l 278 -40 l 278 -139 l 376 -139 l 556 40 l 556 278 l 417 278 z "},"‛":{"ha":833,"x_min":0,"x_max":0,"o":"m 417 972 l 417 735 l 596 556 l 694 556 l 694 654 l 556 793 l 556 972 z "},"“":{"ha":833,"x_min":0,"x_max":0,"o":"m 139 793 l 139 556 l 278 556 l 278 735 l 417 874 l 417 972 l 318 972 z m 556 793 l 556 556 l 694 556 l 694 735 l 833 874 l 833 972 l 735 972 z "},"”":{"ha":833,"x_min":0,"x_max":0,"o":"m 278 793 l 139 654 l 139 556 l 238 556 l 417 735 l 417 972 l 278 972 z m 694 793 l 556 654 l 556 556 l 654 556 l 833 735 l 833 972 l 694 972 z "},"„":{"ha":833,"x_min":0,"x_max":0,"o":"m 278 99 l 139 -40 l 139 -139 l 238 -139 l 417 40 l 417 278 l 278 278 z m 694 99 l 556 -40 l 556 -139 l 654 -139 l 833 40 l 833 278 l 694 278 z "},"‟":{"ha":833,"x_min":0,"x_max":0,"o":"m 139 972 l 139 735 l 318 556 l 417 556 l 417 654 l 278 793 l 278 972 z m 556 972 l 556 735 l 735 556 l 833 556 l 833 654 l 694 793 l 694 972 z "},"†":{"ha":833,"x_min":0,"x_max":0,"o":"m 139 556 l 417 556 l 417 -278 l 556 -278 l 556 556 l 833 556 l 833 694 l 556 694 l 556 972 l 417 972 l 417 694 l 139 694 z "},"‡":{"ha":833,"x_min":0,"x_max":0,"o":"m 139 556 l 417 556 l 417 139 l 139 139 l 139 0 l 417 0 l 417 -278 l 556 -278 l 556 0 l 833 0 l 833 139 l 556 139 l 556 556 l 833 556 l 833 694 l 556 694 l 556 972 l 417 972 l 417 694 l 139 694 z "},"•":{"ha":833,"x_min":0,"x_max":0,"o":"m 278 694 l 278 278 l 694 278 l 694 694 z "},"…":{"ha":833,"x_min":0,"x_max":0,"o":"m 139 0 l 278 0 l 278 139 l 139 139 z m 417 0 l 556 0 l 556 139 l 417 139 z m 694 0 l 833 0 l 833 139 l 694 139 z "},"‰":{"ha":833,"x_min":0,"x_max":0,"o":"m 139 972 l 139 694 l 278 694 l 278 972 z m 139 278 l 238 278 l 833 874 l 833 972 l 735 972 l 139 376 z m 417 278 l 417 0 l 556 0 l 556 278 z m 694 278 l 694 0 l 833 0 l 833 278 z "},"′":{"ha":833,"x_min":0,"x_max":0,"o":"m 278 793 l 139 654 l 139 417 l 278 417 l 278 596 l 417 735 l 417 972 l 278 972 z "},"″":{"ha":833,"x_min":0,"x_max":0,"o":"m 278 793 l 139 654 l 139 417 l 278 417 l 278 596 l 417 735 l 417 972 l 278 972 z m 694 793 l 556 654 l 556 417 l 694 417 l 694 596 l 833 735 l 833 972 l 694 972 z "},"‵":{"ha":833,"x_min":0,"x_max":0,"o":"m 556 972 l 556 735 l 694 596 l 694 417 l 833 417 l 833 654 l 694 793 l 694 972 z "},"‶":{"ha":833,"x_min":0,"x_max":0,"o":"m 139 972 l 139 735 l 278 596 l 278 417 l 417 417 l 417 654 l 278 793 l 278 972 z m 556 972 l 556 735 l 694 596 l 694 417 l 833 417 l 833 654 l 694 793 l 694 972 z "},"‹":{"ha":833,"x_min":0,"x_max":0,"o":"m 417 318 l 596 139 l 694 139 l 694 238 l 585 347 l 694 457 l 694 556 l 596 556 l 417 376 z "},"›":{"ha":833,"x_min":0,"x_max":0,"o":"m 278 457 l 388 347 l 278 238 l 278 139 l 376 139 l 556 318 l 556 376 l 376 556 l 278 556 z "},"※":{"ha":833,"x_min":0,"x_max":0,"o":"m 139 972 l 139 735 l 417 457 l 417 238 l 139 -40 l 139 -278 l 278 -278 l 278 -99 l 486 110 l 694 -99 l 694 -278 l 833 -278 l 833 -40 l 556 238 l 556 457 l 833 735 l 833 972 l 694 972 l 694 793 l 486 585 l 278 793 l 278 972 z m 139 278 l 278 278 l 278 417 l 139 417 z m 417 833 l 556 833 l 556 972 l 417 972 z m 417 -278 l 556 -278 l 556 -139 l 417 -139 z m 694 278 l 833 278 l 833 417 l 694 417 z "},"‼":{"ha":833,"x_min":0,"x_max":0,"o":"m 278 972 l 278 278 l 417 278 l 417 972 z m 278 0 l 417 0 l 417 139 l 278 139 z m 556 972 l 556 278 l 694 278 l 694 972 z m 556 0 l 694 0 l 694 139 l 556 139 z "},"‽":{"ha":833,"x_min":0,"x_max":0,"o":"m 139 694 l 238 694 l 376 833 l 417 833 l 417 278 l 556 278 l 556 417 l 654 417 l 833 596 l 833 793 l 654 972 l 318 972 l 139 793 z m 556 833 l 596 833 l 694 735 l 694 654 l 596 556 l 556 556 z m 417 0 l 556 0 l 556 139 l 417 139 z "},"‾":{"ha":833,"x_min":0,"x_max":0,"o":"m 139 833 l 833 833 l 833 972 l 139 972 z "},"‿":{"ha":833,"x_min":0,"x_max":0,"o":"m 139 -99 l 318 -278 l 654 -278 l 833 -99 l 833 0 l 735 0 l 596 -139 l 376 -139 l 238 0 l 139 0 z "},"⁀":{"ha":833,"x_min":0,"x_max":0,"o":"m 139 694 l 238 694 l 376 833 l 596 833 l 735 694 l 833 694 l 833 793 l 654 972 l 318 972 l 139 793 z "},"⁄":{"ha":833,"x_min":0,"x_max":0,"o":"m 278 99 l 139 -40 l 139 -278 l 278 -278 l 278 -99 l 417 40 l 417 179 l 694 457 l 694 596 l 833 735 l 833 972 l 694 972 l 694 793 l 556 654 l 556 515 l 278 238 z "},"⁇":{"ha":833,"x_min":0,"x_max":0,"o":"m 139 694 l 238 694 l 347 804 l 417 735 l 417 654 l 278 515 l 278 278 l 417 278 l 417 457 l 556 596 l 556 735 l 625 804 l 694 735 l 694 515 l 556 376 l 556 278 l 654 278 l 833 457 l 833 793 l 654 972 l 596 972 l 486 863 l 376 972 l 318 972 l 139 793 z m 278 0 l 417 0 l 417 139 l 278 139 z m 556 0 l 694 0 l 694 139 l 556 139 z "},"⁈":{"ha":833,"x_min":0,"x_max":0,"o":"m 139 694 l 238 694 l 347 804 l 417 735 l 417 654 l 278 515 l 278 278 l 417 278 l 417 457 l 556 596 l 556 793 l 376 972 l 318 972 l 139 793 z m 278 0 l 417 0 l 417 139 l 278 139 z m 694 972 l 694 278 l 833 278 l 833 972 z m 694 0 l 833 0 l 833 139 l 694 139 z "},"⁉":{"ha":833,"x_min":0,"x_max":0,"o":"m 139 972 l 139 278 l 278 278 l 278 972 z m 139 0 l 278 0 l 278 139 l 139 139 z m 417 694 l 515 694 l 625 804 l 694 735 l 694 654 l 556 515 l 556 278 l 694 278 l 694 457 l 833 596 l 833 793 l 654 972 l 596 972 l 417 793 z m 556 0 l 694 0 l 694 139 l 556 139 z "},"⁋":{"ha":833,"x_min":0,"x_max":0,"o":"m 139 972 l 139 0 l 278 0 l 278 972 z m 417 972 l 417 0 l 556 0 l 556 417 l 654 417 l 833 596 l 833 793 l 654 972 z m 556 833 l 596 833 l 694 735 l 694 654 l 596 556 l 556 556 z "},"⁏":{"ha":833,"x_min":0,"x_max":0,"o":"m 417 556 l 556 556 l 556 694 l 417 694 z m 417 278 l 417 40 l 596 -139 l 694 -139 l 694 -40 l 556 99 l 556 278 z "},"⁒":{"ha":833,"x_min":0,"x_max":0,"o":"m 139 833 l 278 833 l 278 972 l 139 972 z m 139 238 l 139 0 l 278 0 l 278 179 l 833 735 l 833 972 l 694 972 l 694 793 z m 694 0 l 833 0 l 833 139 l 694 139 z "},"⁓":{"ha":833,"x_min":0,"x_max":0,"o":"m 139 417 l 238 417 l 347 526 l 596 278 l 654 278 l 833 457 l 833 556 l 735 556 l 625 446 l 376 694 l 318 694 l 139 515 z "},"⁔":{"ha":833,"x_min":0,"x_max":0,"o":"m 139 -278 l 238 -278 l 376 -139 l 596 -139 l 735 -278 l 833 -278 l 833 -179 l 654 0 l 318 0 l 139 -179 z "},"⁖":{"ha":833,"x_min":0,"x_max":0,"o":"m 139 278 l 278 278 l 278 417 l 139 417 z m 694 556 l 833 556 l 833 694 l 694 694 z m 694 0 l 833 0 l 833 139 l 694 139 z "},"⁘":{"ha":833,"x_min":0,"x_max":0,"o":"m 139 278 l 278 278 l 278 417 l 139 417 z m 417 556 l 556 556 l 556 694 l 417 694 z m 417 0 l 556 0 l 556 139 l 417 139 z m 694 278 l 833 278 l 833 417 l 694 417 z "},"⁙":{"ha":833,"x_min":0,"x_max":0,"o":"m 139 556 l 278 556 l 278 694 l 139 694 z m 139 0 l 278 0 l 278 139 l 139 139 z m 417 278 l 556 278 l 556 417 l 417 417 z m 694 556 l 833 556 l 833 694 l 694 694 z m 694 0 l 833 0 l 833 139 l 694 139 z "},"⁚":{"ha":833,"x_min":0,"x_max":0,"o":"m 417 833 l 556 833 l 556 972 l 417 972 z m 417 0 l 556 0 l 556 139 l 417 139 z "},"⁛":{"ha":833,"x_min":0,"x_max":0,"o":"m 139 278 l 278 278 l 278 417 l 139 417 z m 417 833 l 556 833 l 556 972 l 417 972 z m 417 -278 l 556 -278 l 556 -139 l 417 -139 z m 694 278 l 833 278 l 833 417 l 694 417 z "},"⁜":{"ha":833,"x_min":0,"x_max":0,"o":"m 139 556 l 278 556 l 278 694 l 139 694 z m 139 278 l 417 278 l 417 0 l 556 0 l 556 278 l 833 278 l 833 417 l 556 417 l 556 694 l 417 694 l 417 417 l 139 417 z m 139 0 l 278 0 l 278 139 l 139 139 z m 694 556 l 833 556 l 833 694 l 694 694 z m 694 0 l 833 0 l 833 139 l 694 139 z "},"⁝":{"ha":833,"x_min":0,"x_max":0,"o":"m 417 833 l 556 833 l 556 972 l 417 972 z m 417 417 l 556 417 l 556 556 l 417 556 z m 417 0 l 556 0 l 556 139 l 417 139 z "},"⁞":{"ha":833,"x_min":0,"x_max":0,"o":"m 417 833 l 556 833 l 556 972 l 417 972 z m 417 556 l 556 556 l 556 694 l 417 694 z m 417 278 l 556 278 l 556 417 l 417 417 z m 417 0 l 556 0 l 556 139 l 417 139 z "},"⁰":{"ha":833,"x_min":0,"x_max":0,"o":"m 278 793 l 278 457 l 457 278 l 515 278 l 694 457 l 694 793 l 515 972 l 457 972 z m 417 735 l 486 804 l 556 735 l 556 515 l 486 446 l 417 515 z "},"ⁱ":{"ha":833,"x_min":0,"x_max":0,"o":"m 278 556 l 417 556 l 417 417 l 278 417 l 278 278 l 694 278 l 694 417 l 556 417 l 556 694 l 278 694 z m 417 833 l 556 833 l 556 972 l 417 972 z "},"⁴":{"ha":833,"x_min":0,"x_max":0,"o":"m 278 654 l 278 417 l 556 417 l 556 278 l 694 278 l 694 972 l 556 972 l 556 833 l 457 833 z m 515 694 l 556 694 l 556 556 l 417 556 l 417 596 z "},"⁵":{"ha":833,"x_min":0,"x_max":0,"o":"m 278 972 l 278 556 l 457 556 l 526 486 l 457 417 l 278 417 l 278 278 l 515 278 l 694 457 l 694 515 l 515 694 l 417 694 l 417 833 l 694 833 l 694 972 z "},"⁶":{"ha":833,"x_min":0,"x_max":0,"o":"m 278 793 l 278 457 l 457 278 l 515 278 l 694 457 l 694 515 l 515 694 l 417 694 l 417 735 l 556 874 l 556 972 l 457 972 z m 417 556 l 457 556 l 526 486 l 486 446 l 417 515 z "},"⁷":{"ha":833,"x_min":0,"x_max":0,"o":"m 278 833 l 556 833 l 556 793 l 278 515 l 278 278 l 417 278 l 417 457 l 694 735 l 694 972 l 278 972 z "},"⁸":{"ha":833,"x_min":0,"x_max":0,"o":"m 278 735 l 388 625 l 278 515 l 278 457 l 457 278 l 515 278 l 694 457 l 694 515 l 585 625 l 694 735 l 694 793 l 515 972 l 457 972 l 278 793 z m 486 724 l 446 764 l 486 804 l 526 764 z m 486 446 l 446 486 l 486 526 l 526 486 z "},"⁹":{"ha":833,"x_min":0,"x_max":0,"o":"m 278 735 l 457 556 l 556 556 l 556 515 l 417 376 l 417 278 l 515 278 l 694 457 l 694 793 l 515 972 l 457 972 l 278 793 z m 515 694 l 446 764 l 486 804 l 556 735 l 556 694 z "},"⁺":{"ha":833,"x_min":0,"x_max":0,"o":"m 278 556 l 417 556 l 417 417 l 556 417 l 556 556 l 694 556 l 694 694 l 556 694 l 556 833 l 417 833 l 417 694 l 278 694 z "},"⁻":{"ha":833,"x_min":0,"x_max":0,"o":"m 278 556 l 694 556 l 694 694 l 278 694 z "},"⁼":{"ha":833,"x_min":0,"x_max":0,"o":"m 278 694 l 694 694 l 694 833 l 278 833 z m 278 417 l 694 417 l 694 556 l 278 556 z "},"⁽":{"ha":833,"x_min":0,"x_max":0,"o":"m 417 793 l 417 457 l 596 278 l 694 278 l 694 376 l 556 515 l 556 735 l 694 874 l 694 972 l 596 972 z "},"⁾":{"ha":833,"x_min":0,"x_max":0,"o":"m 278 874 l 417 735 l 417 515 l 278 376 l 278 278 l 376 278 l 556 457 l 556 793 l 376 972 l 278 972 z "},"ⁿ":{"ha":833,"x_min":0,"x_max":0,"o":"m 278 694 l 278 278 l 417 278 l 417 556 l 457 556 l 556 457 l 556 278 l 694 278 l 694 515 l 515 694 z "},"₀":{"ha":833,"x_min":0,"x_max":0,"o":"m 278 238 l 278 -99 l 457 -278 l 515 -278 l 694 -99 l 694 238 l 515 417 l 457 417 z m 417 179 l 486 249 l 556 179 l 556 -40 l 486 -110 l 417 -40 z "},"₁":{"ha":833,"x_min":0,"x_max":0,"o":"m 278 139 l 417 139 l 417 -139 l 278 -139 l 278 -278 l 694 -278 l 694 -139 l 556 -139 l 556 417 l 417 417 l 417 278 l 278 278 z "},"₂":{"ha":833,"x_min":0,"x_max":0,"o":"m 278 278 l 457 278 l 526 208 l 278 -40 l 278 -278 l 694 -278 l 694 -139 l 417 -139 l 417 -99 l 694 179 l 694 238 l 515 417 l 278 417 z "},"₃":{"ha":833,"x_min":0,"x_max":0,"o":"m 278 278 l 457 278 l 526 208 l 457 139 l 278 139 l 278 0 l 457 0 l 526 -69 l 457 -139 l 278 -139 l 278 -278 l 515 -278 l 694 -99 l 694 -40 l 585 69 l 694 179 l 694 238 l 515 417 l 278 417 z "},"₄":{"ha":833,"x_min":0,"x_max":0,"o":"m 278 99 l 278 -139 l 556 -139 l 556 -278 l 694 -278 l 694 417 l 556 417 l 556 278 l 457 278 z m 515 139 l 556 139 l 556 0 l 417 0 l 417 40 z "},"₅":{"ha":833,"x_min":0,"x_max":0,"o":"m 278 417 l 278 0 l 457 0 l 526 -69 l 457 -139 l 278 -139 l 278 -278 l 515 -278 l 694 -99 l 694 -40 l 515 139 l 417 139 l 417 278 l 694 278 l 694 417 z "},"₆":{"ha":833,"x_min":0,"x_max":0,"o":"m 278 238 l 278 -99 l 457 -278 l 515 -278 l 694 -99 l 694 -40 l 515 139 l 417 139 l 417 179 l 556 318 l 556 417 l 457 417 z m 417 0 l 457 0 l 526 -69 l 486 -110 l 417 -40 z "},"₇":{"ha":833,"x_min":0,"x_max":0,"o":"m 278 278 l 556 278 l 556 238 l 278 -40 l 278 -278 l 417 -278 l 417 -99 l 694 179 l 694 417 l 278 417 z "},"₈":{"ha":833,"x_min":0,"x_max":0,"o":"m 278 179 l 388 69 l 278 -40 l 278 -99 l 457 -278 l 515 -278 l 694 -99 l 694 -40 l 585 69 l 694 179 l 694 238 l 515 417 l 457 417 l 278 238 z m 486 168 l 446 208 l 486 249 l 526 208 z m 486 -110 l 446 -69 l 486 -29 l 526 -69 z "},"₉":{"ha":833,"x_min":0,"x_max":0,"o":"m 278 179 l 457 0 l 556 0 l 556 -40 l 417 -179 l 417 -278 l 515 -278 l 694 -99 l 694 238 l 515 417 l 457 417 l 278 238 z m 515 139 l 446 208 l 486 249 l 556 179 l 556 139 z "},"₊":{"ha":833,"x_min":0,"x_max":0,"o":"m 278 0 l 417 0 l 417 -139 l 556 -139 l 556 0 l 694 0 l 694 139 l 556 139 l 556 278 l 417 278 l 417 139 l 278 139 z "},"₋":{"ha":833,"x_min":0,"x_max":0,"o":"m 278 0 l 694 0 l 694 139 l 278 139 z "},"₌":{"ha":833,"x_min":0,"x_max":0,"o":"m 278 139 l 694 139 l 694 278 l 278 278 z m 278 -139 l 694 -139 l 694 0 l 278 0 z "},"₍":{"ha":833,"x_min":0,"x_max":0,"o":"m 417 238 l 417 -99 l 596 -278 l 694 -278 l 694 -179 l 556 -40 l 556 179 l 694 318 l 694 417 l 596 417 z "},"₎":{"ha":833,"x_min":0,"x_max":0,"o":"m 278 318 l 417 179 l 417 -40 l 278 -179 l 278 -278 l 376 -278 l 556 -99 l 556 238 l 376 417 l 278 417 z "},"ₙ":{"ha":833,"x_min":0,"x_max":0,"o":"m 278 139 l 278 -278 l 417 -278 l 417 0 l 457 0 l 556 -99 l 556 -278 l 694 -278 l 694 -40 l 515 139 z "},"₧":{"ha":833,"x_min":0,"x_max":0,"o":"m 139 972 l 139 0 l 278 0 l 278 556 l 376 556 l 556 735 l 556 793 l 376 972 z m 278 833 l 318 833 l 388 764 l 318 694 l 278 694 z m 417 278 l 556 278 l 556 179 l 735 0 l 833 0 l 833 99 l 694 238 l 694 278 l 833 278 l 833 417 l 694 417 l 694 556 l 556 556 l 556 417 l 417 417 z "},"₪":{"ha":833,"x_min":0,"x_max":0,"o":"m 139 972 l 139 0 l 278 0 l 278 833 l 318 833 l 417 735 l 417 556 l 556 556 l 556 793 l 376 972 z m 417 417 l 417 0 l 654 0 l 833 179 l 833 972 l 694 972 l 694 238 l 596 139 l 556 139 l 556 417 z "},"€":{"ha":833,"x_min":0,"x_max":0,"o":"m 139 556 l 278 556 l 278 417 l 139 417 l 139 278 l 278 278 l 278 179 l 457 0 l 654 0 l 833 179 l 833 278 l 735 278 l 596 139 l 515 139 l 417 238 l 417 278 l 556 278 l 556 417 l 417 417 l 417 556 l 556 556 l 556 694 l 417 694 l 417 735 l 515 833 l 596 833 l 735 694 l 833 694 l 833 793 l 654 972 l 457 972 l 278 793 l 278 694 l 139 694 z "},"℗":{"ha":833,"x_min":0,"x_max":0,"o":"m 139 793 l 139 -99 l 318 -278 l 654 -278 l 833 -99 l 833 793 l 654 972 l 318 972 z m 376 833 l 596 833 l 694 735 l 694 556 l 654 556 l 515 694 l 278 694 l 278 735 z m 417 556 l 457 556 l 556 457 l 556 376 l 457 278 l 417 278 z m 278 0 l 417 0 l 417 139 l 515 139 l 654 278 l 694 278 l 694 -40 l 596 -139 l 376 -139 l 278 -40 z "},"Ω":{"ha":833,"x_min":0,"x_max":0,"o":"m 139 793 l 139 318 l 278 179 l 278 139 l 139 139 l 139 0 l 417 0 l 417 238 l 278 376 l 278 735 l 376 833 l 596 833 l 694 735 l 694 376 l 556 238 l 556 0 l 833 0 l 833 139 l 694 139 l 694 179 l 833 318 l 833 793 l 654 972 l 318 972 z "},"℧":{"ha":833,"x_min":0,"x_max":0,"o":"m 139 833 l 278 833 l 278 793 l 139 654 l 139 179 l 318 0 l 654 0 l 833 179 l 833 654 l 694 793 l 694 833 l 833 833 l 833 972 l 556 972 l 556 735 l 694 596 l 694 238 l 596 139 l 376 139 l 278 238 l 278 596 l 417 735 l 417 972 l 139 972 z "},"℩":{"ha":833,"x_min":0,"x_max":0,"o":"m 278 596 l 417 457 l 417 0 l 694 0 l 694 139 l 556 139 l 556 515 l 376 694 l 278 694 z "},"Ⅎ":{"ha":833,"x_min":0,"x_max":0,"o":"m 139 0 l 833 0 l 833 972 l 694 972 l 694 556 l 278 556 l 278 417 l 694 417 l 694 139 l 139 139 z "},"⅋":{"ha":833,"x_min":0,"x_max":0,"o":"m 139 874 l 249 764 l 139 654 l 139 556 l 238 556 l 347 665 l 526 486 l 417 376 l 417 179 l 596 0 l 654 0 l 833 179 l 833 376 l 724 486 l 833 596 l 833 793 l 654 972 l 457 972 l 347 863 l 238 972 l 139 972 z m 515 833 l 596 833 l 694 735 l 694 654 l 625 585 l 446 764 z m 556 318 l 625 388 l 694 318 l 694 238 l 625 168 l 556 238 z "},"ⅎ":{"ha":833,"x_min":0,"x_max":0,"o":"m 139 0 l 833 0 l 833 694 l 694 694 l 694 417 l 278 417 l 278 278 l 694 278 l 694 139 l 139 139 z "},"⅐":{"ha":833,"x_min":0,"x_max":0,"o":"m 139 972 l 139 278 l 278 278 l 278 972 z m 417 278 l 694 278 l 694 238 l 417 -40 l 417 -278 l 556 -278 l 556 -99 l 833 179 l 833 417 l 417 417 z "},"⅑":{"ha":833,"x_min":0,"x_max":0,"o":"m 139 972 l 139 278 l 278 278 l 278 972 z m 417 179 l 596 0 l 694 0 l 694 -40 l 556 -179 l 556 -278 l 654 -278 l 833 -99 l 833 238 l 654 417 l 596 417 l 417 238 z m 654 139 l 585 208 l 625 249 l 694 179 l 694 139 z "},"⅒":{"ha":833,"x_min":0,"x_max":0,"o":"m 139 278 l 139 -278 l 278 -278 l 278 278 z m 278 972 l 278 417 l 417 417 l 417 972 z m 417 99 l 417 -99 l 596 -278 l 654 -278 l 833 -99 l 833 99 l 654 278 l 596 278 z m 556 40 l 625 110 l 694 40 l 694 -40 l 625 -110 l 556 -40 z "},"⅓":{"ha":833,"x_min":0,"x_max":0,"o":"m 139 972 l 139 278 l 278 278 l 278 972 z m 417 278 l 596 278 l 665 208 l 596 139 l 417 139 l 417 0 l 596 0 l 665 -69 l 596 -139 l 417 -139 l 417 -278 l 654 -278 l 833 -99 l 833 -40 l 724 69 l 833 179 l 833 238 l 654 417 l 417 417 z "},"⅔":{"ha":833,"x_min":0,"x_max":0,"o":"m 139 874 l 278 735 l 278 654 l 139 515 l 139 278 l 417 278 l 417 417 l 278 417 l 278 457 l 417 596 l 417 793 l 238 972 l 139 972 z m 556 318 l 665 208 l 556 99 l 556 40 l 665 -69 l 556 -179 l 556 -278 l 654 -278 l 833 -99 l 833 -40 l 724 69 l 833 179 l 833 238 l 654 417 l 556 417 z "},"⅕":{"ha":833,"x_min":0,"x_max":0,"o":"m 139 972 l 139 278 l 278 278 l 278 972 z m 417 417 l 417 0 l 596 0 l 665 -69 l 596 -139 l 417 -139 l 417 -278 l 654 -278 l 833 -99 l 833 -40 l 654 139 l 556 139 l 556 278 l 833 278 l 833 417 z "},"⅖":{"ha":833,"x_min":0,"x_max":0,"o":"m 139 874 l 278 735 l 278 654 l 139 515 l 139 278 l 417 278 l 417 417 l 278 417 l 278 457 l 417 596 l 417 793 l 238 972 l 139 972 z m 556 417 l 556 0 l 694 0 l 694 -40 l 556 -179 l 556 -278 l 654 -278 l 833 -99 l 833 139 l 694 139 l 694 278 l 833 278 l 833 417 z "},"⅗":{"ha":833,"x_min":0,"x_max":0,"o":"m 139 874 l 249 764 l 139 654 l 139 596 l 249 486 l 139 376 l 139 278 l 238 278 l 417 457 l 417 515 l 307 625 l 417 735 l 417 793 l 238 972 l 139 972 z m 556 417 l 556 0 l 694 0 l 694 -40 l 556 -179 l 556 -278 l 654 -278 l 833 -99 l 833 139 l 694 139 l 694 278 l 833 278 l 833 417 z "},"⅘":{"ha":833,"x_min":0,"x_max":0,"o":"m 139 654 l 139 417 l 417 417 l 417 278 l 556 278 l 556 0 l 694 0 l 694 -40 l 556 -179 l 556 -278 l 654 -278 l 833 -99 l 833 139 l 694 139 l 694 278 l 833 278 l 833 417 l 556 417 l 556 972 l 417 972 l 417 833 l 318 833 z m 376 694 l 417 694 l 417 556 l 278 556 l 278 596 z "},"⅙":{"ha":833,"x_min":0,"x_max":0,"o":"m 139 972 l 139 278 l 278 278 l 278 972 z m 417 238 l 417 -99 l 596 -278 l 654 -278 l 833 -99 l 833 -40 l 654 139 l 556 139 l 556 179 l 694 318 l 694 417 l 596 417 z m 556 0 l 596 0 l 665 -69 l 625 -110 l 556 -40 z "},"⅚":{"ha":833,"x_min":0,"x_max":0,"o":"m 139 972 l 139 556 l 278 556 l 278 515 l 139 376 l 139 278 l 238 278 l 417 457 l 417 694 l 278 694 l 278 833 l 417 833 l 417 972 z m 417 238 l 417 -99 l 596 -278 l 654 -278 l 833 -99 l 833 -40 l 654 139 l 556 139 l 556 179 l 694 318 l 694 417 l 596 417 z m 556 0 l 596 0 l 665 -69 l 625 -110 l 556 -40 z "},"⅛":{"ha":833,"x_min":0,"x_max":0,"o":"m 139 972 l 139 278 l 278 278 l 278 972 z m 417 179 l 526 69 l 417 -40 l 417 -99 l 596 -278 l 654 -278 l 833 -99 l 833 -40 l 724 69 l 833 179 l 833 238 l 654 417 l 596 417 l 417 238 z m 625 168 l 585 208 l 625 249 l 665 208 z m 625 -110 l 585 -69 l 625 -29 l 665 -69 z "},"⅜":{"ha":833,"x_min":0,"x_max":0,"o":"m 139 874 l 249 764 l 139 654 l 139 596 l 249 486 l 139 376 l 139 278 l 238 278 l 417 457 l 417 515 l 307 625 l 417 735 l 417 793 l 238 972 l 139 972 z m 417 179 l 526 69 l 417 -40 l 417 -99 l 596 -278 l 654 -278 l 833 -99 l 833 -40 l 724 69 l 833 179 l 833 238 l 654 417 l 596 417 l 417 238 z m 625 168 l 585 208 l 625 249 l 665 208 z m 625 -110 l 585 -69 l 625 -29 l 665 -69 z "},"⅝":{"ha":833,"x_min":0,"x_max":0,"o":"m 139 972 l 139 556 l 278 556 l 278 515 l 139 376 l 139 278 l 238 278 l 417 457 l 417 694 l 278 694 l 278 833 l 417 833 l 417 972 z m 417 179 l 526 69 l 417 -40 l 417 -99 l 596 -278 l 654 -278 l 833 -99 l 833 -40 l 724 69 l 833 179 l 833 238 l 654 417 l 596 417 l 417 238 z m 625 168 l 585 208 l 625 249 l 665 208 z m 625 -110 l 585 -69 l 625 -29 l 665 -69 z "},"⅞":{"ha":833,"x_min":0,"x_max":0,"o":"m 139 833 l 417 833 l 417 793 l 139 515 l 139 278 l 278 278 l 278 457 l 556 735 l 556 972 l 139 972 z m 417 179 l 526 69 l 417 -40 l 417 -99 l 596 -278 l 654 -278 l 833 -99 l 833 -40 l 724 69 l 833 179 l 833 238 l 654 417 l 596 417 l 417 238 z m 625 168 l 585 208 l 625 249 l 665 208 z m 625 -110 l 585 -69 l 625 -29 l 665 -69 z "},"↉":{"ha":833,"x_min":0,"x_max":0,"o":"m 139 793 l 139 596 l 318 417 l 376 417 l 556 596 l 556 793 l 376 972 l 318 972 z m 278 735 l 347 804 l 417 735 l 417 654 l 347 585 l 278 654 z m 556 318 l 665 208 l 556 99 l 556 40 l 665 -69 l 556 -179 l 556 -278 l 654 -278 l 833 -99 l 833 -40 l 724 69 l 833 179 l 833 238 l 654 417 l 556 417 z "},"↊":{"ha":833,"x_min":0,"x_max":0,"o":"m 139 833 l 694 833 l 694 793 l 457 556 l 318 556 l 139 376 l 139 179 l 318 0 l 654 0 l 833 179 l 833 278 l 735 278 l 596 139 l 376 139 l 278 238 l 278 318 l 376 417 l 515 417 l 833 735 l 833 972 l 139 972 z "},"↋":{"ha":833,"x_min":0,"x_max":0,"o":"m 139 793 l 139 596 l 278 457 l 278 376 l 139 238 l 139 0 l 833 0 l 833 139 l 278 139 l 278 179 l 417 318 l 417 417 l 556 417 l 556 556 l 376 556 l 278 654 l 278 735 l 376 833 l 596 833 l 735 694 l 833 694 l 833 793 l 654 972 l 318 972 z "},"←":{"ha":833,"x_min":0,"x_max":0,"o":"m 139 417 l 278 417 l 278 318 l 457 139 l 556 139 l 556 238 l 417 376 l 417 417 l 833 417 l 833 556 l 417 556 l 417 596 l 556 735 l 556 833 l 457 833 l 278 654 l 278 556 l 139 556 z "},"↑":{"ha":833,"x_min":0,"x_max":0,"o":"m 139 417 l 238 417 l 376 556 l 417 556 l 417 139 l 556 139 l 556 556 l 596 556 l 735 417 l 833 417 l 833 515 l 654 694 l 556 694 l 556 833 l 417 833 l 417 694 l 318 694 l 139 515 z "},"→":{"ha":833,"x_min":0,"x_max":0,"o":"m 139 417 l 556 417 l 556 376 l 417 238 l 417 139 l 515 139 l 694 318 l 694 417 l 833 417 l 833 556 l 694 556 l 694 654 l 515 833 l 417 833 l 417 735 l 556 596 l 556 556 l 139 556 z "},"↓":{"ha":833,"x_min":0,"x_max":0,"o":"m 139 457 l 318 278 l 417 278 l 417 139 l 556 139 l 556 278 l 654 278 l 833 457 l 833 556 l 735 556 l 596 417 l 556 417 l 556 833 l 417 833 l 417 417 l 376 417 l 238 556 l 139 556 z "},"↔":{"ha":833,"x_min":0,"x_max":0,"o":"m 139 654 l 139 318 l 318 139 l 417 139 l 417 238 l 278 376 l 278 417 l 694 417 l 694 376 l 556 238 l 556 139 l 654 139 l 833 318 l 833 654 l 654 833 l 556 833 l 556 735 l 694 596 l 694 556 l 278 556 l 278 596 l 417 735 l 417 833 l 318 833 z "},"↕":{"ha":833,"x_min":0,"x_max":0,"o":"m 139 556 l 238 556 l 376 694 l 417 694 l 417 278 l 376 278 l 238 417 l 139 417 l 139 318 l 318 139 l 417 139 l 417 0 l 556 0 l 556 139 l 654 139 l 833 318 l 833 417 l 735 417 l 596 278 l 556 278 l 556 694 l 596 694 l 735 556 l 833 556 l 833 654 l 654 833 l 556 833 l 556 972 l 417 972 l 417 833 l 318 833 l 139 654 z "},"↖":{"ha":833,"x_min":0,"x_max":0,"o":"m 139 833 l 139 278 l 278 278 l 278 556 l 318 556 l 735 139 l 833 139 l 833 238 l 417 654 l 417 694 l 694 694 l 694 833 z "},"↗":{"ha":833,"x_min":0,"x_max":0,"o":"m 139 139 l 238 139 l 654 556 l 694 556 l 694 278 l 833 278 l 833 833 l 278 833 l 278 694 l 556 694 l 556 654 l 139 238 z "},"↘":{"ha":833,"x_min":0,"x_max":0,"o":"m 139 735 l 556 318 l 556 278 l 278 278 l 278 139 l 833 139 l 833 694 l 694 694 l 694 417 l 654 417 l 238 833 l 139 833 z "},"↙":{"ha":833,"x_min":0,"x_max":0,"o":"m 139 694 l 139 139 l 694 139 l 694 278 l 417 278 l 417 318 l 833 735 l 833 833 l 735 833 l 318 417 l 278 417 l 278 694 z "},"↤":{"ha":833,"x_min":0,"x_max":0,"o":"m 139 417 l 278 417 l 278 318 l 457 139 l 556 139 l 556 238 l 417 376 l 417 417 l 694 417 l 694 139 l 833 139 l 833 833 l 694 833 l 694 556 l 417 556 l 417 596 l 556 735 l 556 833 l 457 833 l 278 654 l 278 556 l 139 556 z "},"↥":{"ha":833,"x_min":0,"x_max":0,"o":"m 139 417 l 238 417 l 376 556 l 417 556 l 417 278 l 139 278 l 139 139 l 833 139 l 833 278 l 556 278 l 556 556 l 596 556 l 735 417 l 833 417 l 833 515 l 654 694 l 556 694 l 556 833 l 417 833 l 417 694 l 318 694 l 139 515 z "},"↦":{"ha":833,"x_min":0,"x_max":0,"o":"m 139 833 l 139 139 l 278 139 l 278 417 l 556 417 l 556 376 l 417 238 l 417 139 l 515 139 l 694 318 l 694 417 l 833 417 l 833 556 l 694 556 l 694 654 l 515 833 l 417 833 l 417 735 l 556 596 l 556 556 l 278 556 l 278 833 z "},"↧":{"ha":833,"x_min":0,"x_max":0,"o":"m 139 694 l 417 694 l 417 417 l 376 417 l 238 556 l 139 556 l 139 457 l 318 278 l 417 278 l 417 139 l 556 139 l 556 278 l 654 278 l 833 457 l 833 556 l 735 556 l 596 417 l 556 417 l 556 694 l 833 694 l 833 833 l 139 833 z "},"↨":{"ha":833,"x_min":0,"x_max":0,"o":"m 139 556 l 238 556 l 376 694 l 417 694 l 417 278 l 376 278 l 238 417 l 139 417 l 139 318 l 278 179 l 278 139 l 139 139 l 139 0 l 833 0 l 833 139 l 694 139 l 694 179 l 833 318 l 833 417 l 735 417 l 596 278 l 556 278 l 556 694 l 596 694 l 735 556 l 833 556 l 833 654 l 654 833 l 556 833 l 556 972 l 417 972 l 417 833 l 318 833 l 139 654 z "},"↴":{"ha":833,"x_min":0,"x_max":0,"o":"m 139 694 l 417 694 l 417 417 l 376 417 l 238 556 l 139 556 l 139 457 l 318 278 l 417 278 l 417 139 l 556 139 l 556 278 l 654 278 l 833 457 l 833 556 l 735 556 l 596 417 l 556 417 l 556 833 l 139 833 z "},"↵":{"ha":833,"x_min":0,"x_max":0,"o":"m 139 417 l 278 417 l 278 318 l 457 139 l 556 139 l 556 238 l 417 376 l 417 417 l 833 417 l 833 972 l 694 972 l 694 556 l 417 556 l 417 596 l 556 735 l 556 833 l 457 833 l 278 654 l 278 556 l 139 556 z "},"↹":{"ha":833,"x_min":0,"x_max":0,"o":"m 139 972 l 139 278 l 278 278 l 278 417 l 318 417 l 556 179 l 556 139 l 139 139 l 139 0 l 556 0 l 556 -40 l 417 -179 l 417 -278 l 515 -278 l 654 -139 l 694 -139 l 694 -278 l 833 -278 l 833 417 l 694 417 l 694 278 l 654 278 l 417 515 l 417 556 l 833 556 l 833 694 l 417 694 l 417 735 l 556 874 l 556 972 l 457 972 l 318 833 l 278 833 l 278 972 z "},"↼":{"ha":833,"x_min":0,"x_max":0,"o":"m 139 417 l 833 417 l 833 556 l 417 556 l 417 596 l 556 735 l 556 833 l 457 833 l 278 654 l 278 556 l 139 556 z "},"↽":{"ha":833,"x_min":0,"x_max":0,"o":"m 139 417 l 278 417 l 278 318 l 457 139 l 556 139 l 556 238 l 417 376 l 417 417 l 833 417 l 833 556 l 139 556 z "},"↾":{"ha":833,"x_min":0,"x_max":0,"o":"m 417 833 l 417 139 l 556 139 l 556 556 l 596 556 l 735 417 l 833 417 l 833 515 l 654 694 l 556 694 l 556 833 z "},"↿":{"ha":833,"x_min":0,"x_max":0,"o":"m 139 417 l 238 417 l 376 556 l 417 556 l 417 139 l 556 139 l 556 833 l 417 833 l 417 694 l 318 694 l 139 515 z "},"⇀":{"ha":833,"x_min":0,"x_max":0,"o":"m 139 417 l 833 417 l 833 556 l 694 556 l 694 654 l 515 833 l 417 833 l 417 735 l 556 596 l 556 556 l 139 556 z "},"⇁":{"ha":833,"x_min":0,"x_max":0,"o":"m 139 417 l 556 417 l 556 376 l 417 238 l 417 139 l 515 139 l 694 318 l 694 417 l 833 417 l 833 556 l 139 556 z "},"⇂":{"ha":833,"x_min":0,"x_max":0,"o":"m 417 833 l 417 139 l 556 139 l 556 278 l 654 278 l 833 457 l 833 556 l 735 556 l 596 417 l 556 417 l 556 833 z "},"⇃":{"ha":833,"x_min":0,"x_max":0,"o":"m 139 457 l 318 278 l 417 278 l 417 139 l 556 139 l 556 833 l 417 833 l 417 417 l 376 417 l 238 556 l 139 556 z "},"⇋":{"ha":833,"x_min":0,"x_max":0,"o":"m 139 556 l 833 556 l 833 694 l 417 694 l 417 735 l 556 874 l 556 972 l 457 972 l 278 793 l 278 694 l 139 694 z m 139 278 l 556 278 l 556 238 l 417 99 l 417 0 l 515 0 l 694 179 l 694 278 l 833 278 l 833 417 l 139 417 z "},"⇌":{"ha":833,"x_min":0,"x_max":0,"o":"m 139 556 l 833 556 l 833 694 l 694 694 l 694 793 l 515 972 l 417 972 l 417 874 l 556 735 l 556 694 l 139 694 z m 139 278 l 278 278 l 278 179 l 457 0 l 556 0 l 556 99 l 417 238 l 417 278 l 833 278 l 833 417 l 139 417 z "},"⇐":{"ha":833,"x_min":0,"x_max":0,"o":"m 139 457 l 457 139 l 694 139 l 694 278 l 833 278 l 833 417 l 556 417 l 556 278 l 515 278 l 307 486 l 515 694 l 556 694 l 556 556 l 833 556 l 833 694 l 694 694 l 694 833 l 457 833 l 139 515 z "},"⇑":{"ha":833,"x_min":0,"x_max":0,"o":"m 139 654 l 139 417 l 278 417 l 278 0 l 417 0 l 417 556 l 278 556 l 278 596 l 486 804 l 694 596 l 694 556 l 556 556 l 556 0 l 694 0 l 694 417 l 833 417 l 833 654 l 515 972 l 457 972 z "},"⇒":{"ha":833,"x_min":0,"x_max":0,"o":"m 139 556 l 417 556 l 417 694 l 457 694 l 665 486 l 457 278 l 417 278 l 417 417 l 139 417 l 139 278 l 278 278 l 278 139 l 515 139 l 833 457 l 833 515 l 515 833 l 278 833 l 278 694 l 139 694 z "},"⇓":{"ha":833,"x_min":0,"x_max":0,"o":"m 139 556 l 139 318 l 457 0 l 515 0 l 833 318 l 833 556 l 694 556 l 694 972 l 556 972 l 556 417 l 694 417 l 694 376 l 486 168 l 278 376 l 278 417 l 417 417 l 417 972 l 278 972 l 278 556 z "},"⇤":{"ha":833,"x_min":0,"x_max":0,"o":"m 139 833 l 139 139 l 278 139 l 278 278 l 318 278 l 457 139 l 556 139 l 556 238 l 417 376 l 417 417 l 833 417 l 833 556 l 417 556 l 417 596 l 556 735 l 556 833 l 457 833 l 318 694 l 278 694 l 278 833 z "},"⇥":{"ha":833,"x_min":0,"x_max":0,"o":"m 139 417 l 556 417 l 556 376 l 417 238 l 417 139 l 515 139 l 654 278 l 694 278 l 694 139 l 833 139 l 833 833 l 694 833 l 694 694 l 654 694 l 515 833 l 417 833 l 417 735 l 556 596 l 556 556 l 139 556 z "},"⇦":{"ha":833,"x_min":0,"x_max":0,"o":"m 139 457 l 457 139 l 694 139 l 694 278 l 833 278 l 833 694 l 694 694 l 694 833 l 457 833 l 139 515 z m 307 486 l 515 694 l 556 694 l 556 556 l 694 556 l 694 417 l 556 417 l 556 278 l 515 278 z "},"⇧":{"ha":833,"x_min":0,"x_max":0,"o":"m 139 654 l 139 417 l 278 417 l 278 0 l 694 0 l 694 417 l 833 417 l 833 654 l 515 972 l 457 972 z m 278 596 l 486 804 l 694 596 l 694 556 l 556 556 l 556 139 l 417 139 l 417 556 l 278 556 z "},"⇨":{"ha":833,"x_min":0,"x_max":0,"o":"m 139 694 l 139 278 l 278 278 l 278 139 l 515 139 l 833 457 l 833 515 l 515 833 l 278 833 l 278 694 z m 278 556 l 417 556 l 417 694 l 457 694 l 665 486 l 457 278 l 417 278 l 417 417 l 278 417 z "},"⇩":{"ha":833,"x_min":0,"x_max":0,"o":"m 139 556 l 139 318 l 457 0 l 515 0 l 833 318 l 833 556 l 694 556 l 694 972 l 278 972 l 278 556 z m 278 417 l 417 417 l 417 833 l 556 833 l 556 417 l 694 417 l 694 376 l 486 168 l 278 376 z "},"⇪":{"ha":833,"x_min":0,"x_max":0,"o":"m 139 654 l 139 417 l 278 417 l 278 0 l 694 0 l 694 417 l 833 417 l 833 654 l 515 972 l 457 972 z m 278 596 l 486 804 l 694 596 l 694 556 l 556 556 l 556 417 l 417 417 l 417 556 l 278 556 z m 417 278 l 556 278 l 556 139 l 417 139 z "},"∂":{"ha":833,"x_min":0,"x_max":0,"o":"m 139 694 l 238 694 l 376 833 l 596 833 l 694 735 l 694 556 l 318 556 l 139 376 l 139 179 l 318 0 l 654 0 l 833 179 l 833 793 l 654 972 l 318 972 l 139 793 z m 376 417 l 694 417 l 694 238 l 596 139 l 376 139 l 278 238 l 278 318 z "},"∆":{"ha":833,"x_min":0,"x_max":0,"o":"m 278 515 l 139 376 l 139 0 l 833 0 l 833 376 l 694 515 l 694 654 l 556 793 l 556 972 l 417 972 l 417 793 l 278 654 z m 417 457 l 417 596 l 486 665 l 556 596 l 556 457 l 694 318 l 694 139 l 278 139 l 278 318 z "},"∇":{"ha":833,"x_min":0,"x_max":0,"o":"m 139 972 l 139 596 l 278 457 l 278 318 l 417 179 l 417 0 l 556 0 l 556 179 l 694 318 l 694 457 l 833 596 l 833 972 z m 278 833 l 694 833 l 694 654 l 556 515 l 556 376 l 486 307 l 417 376 l 417 515 l 278 654 z "},"∈":{"ha":833,"x_min":0,"x_max":0,"o":"m 139 793 l 139 179 l 318 0 l 833 0 l 833 139 l 376 139 l 278 238 l 278 417 l 833 417 l 833 556 l 278 556 l 278 735 l 376 833 l 833 833 l 833 972 l 318 972 z "},"∊":{"ha":833,"x_min":0,"x_max":0,"o":"m 139 654 l 139 318 l 318 139 l 833 139 l 833 278 l 376 278 l 278 376 l 278 417 l 833 417 l 833 556 l 278 556 l 278 596 l 376 694 l 833 694 l 833 833 l 318 833 z "},"∋":{"ha":833,"x_min":0,"x_max":0,"o":"m 139 833 l 596 833 l 694 735 l 694 556 l 139 556 l 139 417 l 694 417 l 694 238 l 596 139 l 139 139 l 139 0 l 654 0 l 833 179 l 833 793 l 654 972 l 139 972 z "},"∍":{"ha":833,"x_min":0,"x_max":0,"o":"m 139 694 l 596 694 l 694 596 l 694 556 l 139 556 l 139 417 l 694 417 l 694 376 l 596 278 l 139 278 l 139 139 l 654 139 l 833 318 l 833 654 l 654 833 l 139 833 z "},"∏":{"ha":833,"x_min":0,"x_max":0,"o":"m 139 972 l 139 -278 l 278 -278 l 278 833 l 694 833 l 694 -278 l 833 -278 l 833 972 z "},"∐":{"ha":833,"x_min":0,"x_max":0,"o":"m 139 972 l 139 -278 l 833 -278 l 833 972 l 694 972 l 694 -139 l 278 -139 l 278 972 z "},"∑":{"ha":833,"x_min":0,"x_max":0,"o":"m 139 972 l 139 735 l 526 347 l 139 -40 l 139 -278 l 833 -278 l 833 -139 l 278 -139 l 278 -99 l 694 318 l 694 376 l 278 793 l 278 833 l 833 833 l 833 972 z "},"−":{"ha":833,"x_min":0,"x_max":0,"o":"m 139 417 l 833 417 l 833 556 l 139 556 z "},"∓":{"ha":833,"x_min":0,"x_max":0,"o":"m 139 833 l 833 833 l 833 972 l 139 972 z m 139 278 l 417 278 l 417 0 l 556 0 l 556 278 l 833 278 l 833 417 l 556 417 l 556 694 l 417 694 l 417 417 l 139 417 z "},"∔":{"ha":833,"x_min":0,"x_max":0,"o":"m 139 278 l 417 278 l 417 0 l 556 0 l 556 278 l 833 278 l 833 417 l 556 417 l 556 694 l 417 694 l 417 417 l 139 417 z m 417 833 l 556 833 l 556 972 l 417 972 z "},"∘":{"ha":833,"x_min":0,"x_max":0,"o":"m 278 515 l 278 318 l 457 139 l 515 139 l 694 318 l 694 515 l 515 694 l 457 694 z m 417 457 l 486 526 l 556 457 l 556 376 l 486 307 l 417 376 z "},"∙":{"ha":833,"x_min":0,"x_max":0,"o":"m 278 417 l 417 417 l 417 278 l 556 278 l 556 417 l 694 417 l 694 556 l 556 556 l 556 694 l 417 694 l 417 556 l 278 556 z "},"√":{"ha":833,"x_min":0,"x_max":0,"o":"m 139 318 l 318 139 l 417 139 l 417 0 l 556 0 l 556 833 l 833 833 l 833 972 l 417 972 l 417 278 l 376 278 l 238 417 l 139 417 z "},"∛":{"ha":833,"x_min":0,"x_max":0,"o":"m 139 874 l 249 764 l 139 654 l 139 596 l 249 486 l 139 376 l 139 278 l 238 278 l 417 457 l 417 515 l 307 625 l 417 735 l 417 793 l 238 972 l 139 972 z m 417 139 l 556 139 l 556 0 l 694 0 l 694 833 l 833 833 l 833 972 l 556 972 l 556 278 l 417 278 z "},"∜":{"ha":833,"x_min":0,"x_max":0,"o":"m 139 793 l 139 556 l 417 556 l 417 417 l 556 417 l 556 972 l 318 972 z m 376 833 l 417 833 l 417 694 l 278 694 l 278 735 z m 556 139 l 694 139 l 694 0 l 833 0 l 833 972 l 694 972 l 694 278 l 556 278 z "},"∝":{"ha":833,"x_min":0,"x_max":0,"o":"m 139 654 l 139 318 l 318 139 l 376 139 l 486 249 l 596 139 l 654 139 l 833 318 l 833 417 l 735 417 l 625 307 l 556 376 l 556 596 l 625 665 l 735 556 l 833 556 l 833 654 l 654 833 l 596 833 l 486 724 l 376 833 l 318 833 z m 278 596 l 347 665 l 417 596 l 417 376 l 347 307 l 278 376 z "},"∞":{"ha":833,"x_min":0,"x_max":0,"o":"m 139 654 l 139 318 l 318 139 l 376 139 l 486 249 l 596 139 l 654 139 l 833 318 l 833 654 l 654 833 l 596 833 l 486 724 l 376 833 l 318 833 z m 278 596 l 347 665 l 417 596 l 417 376 l 347 307 l 278 376 z m 556 596 l 625 665 l 694 596 l 694 376 l 625 307 l 556 376 z "},"∟":{"ha":833,"x_min":0,"x_max":0,"o":"m 139 833 l 139 139 l 833 139 l 833 278 l 278 278 l 278 833 z "},"∣":{"ha":833,"x_min":0,"x_max":0,"o":"m 417 972 l 417 0 l 556 0 l 556 972 z "},"∥":{"ha":833,"x_min":0,"x_max":0,"o":"m 278 972 l 278 0 l 417 0 l 417 972 z m 556 972 l 556 0 l 694 0 l 694 972 z "},"∧":{"ha":833,"x_min":0,"x_max":0,"o":"m 139 278 l 238 278 l 486 526 l 735 278 l 833 278 l 833 376 l 515 694 l 457 694 l 139 376 z "},"∨":{"ha":833,"x_min":0,"x_max":0,"o":"m 139 596 l 457 278 l 515 278 l 833 596 l 833 694 l 735 694 l 486 446 l 238 694 l 139 694 z "},"∩":{"ha":833,"x_min":0,"x_max":0,"o":"m 139 654 l 139 139 l 278 139 l 278 596 l 376 694 l 596 694 l 694 596 l 694 139 l 833 139 l 833 654 l 654 833 l 318 833 z "},"∪":{"ha":833,"x_min":0,"x_max":0,"o":"m 139 833 l 139 318 l 318 139 l 654 139 l 833 318 l 833 833 l 694 833 l 694 376 l 596 278 l 376 278 l 278 376 l 278 833 z "},"∫":{"ha":833,"x_min":0,"x_max":0,"o":"m 139 -99 l 318 -278 l 376 -278 l 556 -99 l 556 735 l 625 804 l 735 694 l 833 694 l 833 793 l 654 972 l 596 972 l 417 793 l 417 -40 l 347 -110 l 238 0 l 139 0 z "},"∮":{"ha":833,"x_min":0,"x_max":0,"o":"m 139 318 l 318 139 l 417 139 l 417 -40 l 347 -110 l 238 0 l 139 0 l 139 -99 l 318 -278 l 376 -278 l 556 -99 l 556 139 l 654 139 l 833 318 l 833 376 l 654 556 l 556 556 l 556 735 l 625 804 l 735 694 l 833 694 l 833 793 l 654 972 l 596 972 l 417 793 l 417 556 l 318 556 l 139 376 z m 376 278 l 307 347 l 376 417 l 417 417 l 417 278 z m 556 417 l 596 417 l 665 347 l 596 278 l 556 278 z "},"∴":{"ha":833,"x_min":0,"x_max":0,"o":"m 139 139 l 278 139 l 278 278 l 139 278 z m 417 694 l 556 694 l 556 833 l 417 833 z m 694 139 l 833 139 l 833 278 l 694 278 z "},"∵":{"ha":833,"x_min":0,"x_max":0,"o":"m 139 694 l 278 694 l 278 833 l 139 833 z m 417 139 l 556 139 l 556 278 l 417 278 z m 694 694 l 833 694 l 833 833 l 694 833 z "},"∸":{"ha":833,"x_min":0,"x_max":0,"o":"m 139 417 l 833 417 l 833 556 l 139 556 z m 417 694 l 556 694 l 556 833 l 417 833 z "},"∺":{"ha":833,"x_min":0,"x_max":0,"o":"m 139 694 l 278 694 l 278 833 l 139 833 z m 139 417 l 833 417 l 833 556 l 139 556 z m 139 139 l 278 139 l 278 278 l 139 278 z m 694 694 l 833 694 l 833 833 l 694 833 z m 694 139 l 833 139 l 833 278 l 694 278 z "},"∼":{"ha":833,"x_min":0,"x_max":0,"o":"m 139 417 l 238 417 l 347 526 l 596 278 l 654 278 l 833 457 l 833 556 l 735 556 l 625 446 l 376 694 l 318 694 l 139 515 z "},"∽":{"ha":833,"x_min":0,"x_max":0,"o":"m 139 457 l 318 278 l 376 278 l 625 526 l 735 417 l 833 417 l 833 515 l 654 694 l 596 694 l 347 446 l 238 556 l 139 556 z "},"∿":{"ha":833,"x_min":0,"x_max":0,"o":"m 139 654 l 139 417 l 278 417 l 278 596 l 347 665 l 417 596 l 417 318 l 596 139 l 654 139 l 833 318 l 833 556 l 694 556 l 694 376 l 625 307 l 556 376 l 556 654 l 376 833 l 318 833 z "},"≂":{"ha":833,"x_min":0,"x_max":0,"o":"m 139 694 l 833 694 l 833 833 l 139 833 z m 139 278 l 238 278 l 347 388 l 596 139 l 654 139 l 833 318 l 833 417 l 735 417 l 625 307 l 376 556 l 318 556 l 139 376 z "},"≃":{"ha":833,"x_min":0,"x_max":0,"o":"m 139 556 l 238 556 l 347 665 l 596 417 l 654 417 l 833 596 l 833 694 l 735 694 l 625 585 l 376 833 l 318 833 l 139 654 z m 139 139 l 833 139 l 833 278 l 139 278 z "},"≅":{"ha":833,"x_min":0,"x_max":0,"o":"m 139 694 l 238 694 l 347 804 l 596 556 l 654 556 l 833 735 l 833 833 l 735 833 l 625 724 l 376 972 l 318 972 l 139 793 z m 139 278 l 833 278 l 833 417 l 139 417 z m 139 0 l 833 0 l 833 139 l 139 139 z "},"≈":{"ha":833,"x_min":0,"x_max":0,"o":"m 139 556 l 238 556 l 347 665 l 596 417 l 654 417 l 833 596 l 833 694 l 735 694 l 625 585 l 376 833 l 318 833 l 139 654 z m 139 139 l 238 139 l 347 249 l 596 0 l 654 0 l 833 179 l 833 278 l 735 278 l 625 168 l 376 417 l 318 417 l 139 238 z "},"≌":{"ha":833,"x_min":0,"x_max":0,"o":"m 139 735 l 318 556 l 376 556 l 625 804 l 735 694 l 833 694 l 833 793 l 654 972 l 596 972 l 347 724 l 238 833 l 139 833 z m 139 278 l 833 278 l 833 417 l 139 417 z m 139 0 l 833 0 l 833 139 l 139 139 z "},"≍":{"ha":833,"x_min":0,"x_max":0,"o":"m 139 735 l 318 556 l 654 556 l 833 735 l 833 833 l 735 833 l 596 694 l 376 694 l 238 833 l 139 833 z m 139 139 l 238 139 l 376 278 l 596 278 l 735 139 l 833 139 l 833 238 l 654 417 l 318 417 l 139 238 z "},"≎":{"ha":833,"x_min":0,"x_max":0,"o":"m 139 556 l 376 556 l 486 665 l 596 556 l 833 556 l 833 694 l 654 694 l 515 833 l 457 833 l 318 694 l 139 694 z m 139 278 l 318 278 l 457 139 l 515 139 l 654 278 l 833 278 l 833 417 l 596 417 l 486 307 l 376 417 l 139 417 z "},"≏":{"ha":833,"x_min":0,"x_max":0,"o":"m 139 556 l 376 556 l 486 665 l 596 556 l 833 556 l 833 694 l 654 694 l 515 833 l 457 833 l 318 694 l 139 694 z m 139 278 l 833 278 l 833 417 l 139 417 z "},"≐":{"ha":833,"x_min":0,"x_max":0,"o":"m 139 556 l 833 556 l 833 694 l 139 694 z m 139 278 l 833 278 l 833 417 l 139 417 z m 417 833 l 556 833 l 556 972 l 417 972 z "},"≑":{"ha":833,"x_min":0,"x_max":0,"o":"m 139 556 l 833 556 l 833 694 l 139 694 z m 139 278 l 833 278 l 833 417 l 139 417 z m 417 833 l 556 833 l 556 972 l 417 972 z m 417 0 l 556 0 l 556 139 l 417 139 z "},"≒":{"ha":833,"x_min":0,"x_max":0,"o":"m 139 833 l 278 833 l 278 972 l 139 972 z m 139 556 l 833 556 l 833 694 l 139 694 z m 139 278 l 833 278 l 833 417 l 139 417 z m 694 0 l 833 0 l 833 139 l 694 139 z "},"≓":{"ha":833,"x_min":0,"x_max":0,"o":"m 139 556 l 833 556 l 833 694 l 139 694 z m 139 278 l 833 278 l 833 417 l 139 417 z m 139 0 l 278 0 l 278 139 l 139 139 z m 694 833 l 833 833 l 833 972 l 694 972 z "},"≘":{"ha":833,"x_min":0,"x_max":0,"o":"m 139 694 l 238 694 l 376 833 l 596 833 l 735 694 l 833 694 l 833 793 l 654 972 l 318 972 l 139 793 z m 139 417 l 833 417 l 833 556 l 139 556 z m 139 139 l 833 139 l 833 278 l 139 278 z "},"≞":{"ha":833,"x_min":0,"x_max":0,"o":"m 139 972 l 139 556 l 278 556 l 278 833 l 318 833 l 417 735 l 417 556 l 556 556 l 556 735 l 625 804 l 694 735 l 694 556 l 833 556 l 833 793 l 654 972 l 596 972 l 486 863 l 376 972 z m 139 278 l 833 278 l 833 417 l 139 417 z m 139 0 l 833 0 l 833 139 l 139 139 z "},"≠":{"ha":833,"x_min":0,"x_max":0,"o":"m 139 556 l 417 556 l 417 417 l 139 417 l 139 278 l 278 278 l 278 139 l 417 139 l 417 278 l 833 278 l 833 417 l 556 417 l 556 556 l 833 556 l 833 694 l 694 694 l 694 833 l 556 833 l 556 694 l 139 694 z "},"≡":{"ha":833,"x_min":0,"x_max":0,"o":"m 139 694 l 833 694 l 833 833 l 139 833 z m 139 417 l 833 417 l 833 556 l 139 556 z m 139 139 l 833 139 l 833 278 l 139 278 z "},"≢":{"ha":833,"x_min":0,"x_max":0,"o":"m 139 694 l 417 694 l 417 556 l 139 556 l 139 417 l 417 417 l 417 278 l 139 278 l 139 139 l 278 139 l 278 0 l 417 0 l 417 139 l 833 139 l 833 278 l 556 278 l 556 417 l 833 417 l 833 556 l 556 556 l 556 694 l 833 694 l 833 833 l 694 833 l 694 972 l 556 972 l 556 833 l 139 833 z "},"≤":{"ha":833,"x_min":0,"x_max":0,"o":"m 139 596 l 318 417 l 457 417 l 596 278 l 833 278 l 833 417 l 654 417 l 515 556 l 376 556 l 307 625 l 376 694 l 515 694 l 654 833 l 833 833 l 833 972 l 596 972 l 457 833 l 318 833 l 139 654 z m 139 139 l 318 139 l 457 0 l 833 0 l 833 139 l 515 139 l 376 278 l 139 278 z "},"≥":{"ha":833,"x_min":0,"x_max":0,"o":"m 139 833 l 318 833 l 457 694 l 596 694 l 665 625 l 596 556 l 457 556 l 318 417 l 139 417 l 139 278 l 376 278 l 515 417 l 654 417 l 833 596 l 833 654 l 654 833 l 515 833 l 376 972 l 139 972 z m 139 0 l 515 0 l 654 139 l 833 139 l 833 278 l 596 278 l 457 139 l 139 139 z "},"≬":{"ha":833,"x_min":0,"x_max":0,"o":"m 278 874 l 388 764 l 278 654 l 278 318 l 388 208 l 278 99 l 278 0 l 376 0 l 486 110 l 596 0 l 694 0 l 694 99 l 585 208 l 694 318 l 694 654 l 585 764 l 694 874 l 694 972 l 596 972 l 486 863 l 376 972 l 278 972 z m 417 596 l 486 665 l 556 596 l 556 376 l 486 307 l 417 376 z "},"⊂":{"ha":833,"x_min":0,"x_max":0,"o":"m 139 654 l 139 318 l 318 139 l 833 139 l 833 278 l 376 278 l 278 376 l 278 596 l 376 694 l 833 694 l 833 833 l 318 833 z "},"⊃":{"ha":833,"x_min":0,"x_max":0,"o":"m 139 694 l 596 694 l 694 596 l 694 376 l 596 278 l 139 278 l 139 139 l 654 139 l 833 318 l 833 654 l 654 833 l 139 833 z "},"⊆":{"ha":833,"x_min":0,"x_max":0,"o":"m 139 793 l 139 457 l 318 278 l 833 278 l 833 417 l 376 417 l 278 515 l 278 735 l 376 833 l 833 833 l 833 972 l 318 972 z m 139 0 l 833 0 l 833 139 l 139 139 z "},"⊇":{"ha":833,"x_min":0,"x_max":0,"o":"m 139 833 l 596 833 l 694 735 l 694 515 l 596 417 l 139 417 l 139 278 l 654 278 l 833 457 l 833 793 l 654 972 l 139 972 z m 139 0 l 833 0 l 833 139 l 139 139 z "}}}
